<?xml version="1.0" encoding="UTF-8"?>
<svg id="Layer_2" data-name="Layer 2" xmlns="http://www.w3.org/2000/svg" xmlns:xlink="http://www.w3.org/1999/xlink" viewBox="0 0 451.99 452.11">
  <defs>
    <style>
      .cls-1 {
        fill: #a6ddff;
      }

      .cls-2 {
        stroke-dasharray: 1.93 1.93;
      }

      .cls-2, .cls-3, .cls-4, .cls-5, .cls-6, .cls-7, .cls-8, .cls-9, .cls-10, .cls-11, .cls-12, .cls-13, .cls-14, .cls-15 {
        fill: none;
        stroke-miterlimit: 10;
      }

      .cls-2, .cls-3, .cls-4, .cls-5, .cls-6, .cls-7, .cls-8, .cls-9, .cls-10, .cls-12, .cls-13, .cls-14, .cls-15 {
        stroke: #ffa93f;
        stroke-width: .26px;
      }

      .cls-3 {
        stroke-dasharray: 2.29 2.29;
      }

      .cls-16 {
        fill: #3f1a17;
      }

      .cls-17 {
        fill: #749ab2;
      }

      .cls-18 {
        fill: #ffa93f;
      }

      .cls-19 {
        fill: #fbab48;
      }

      .cls-20 {
        fill: #fefcfd;
      }

      .cls-4 {
        stroke-dasharray: 2.07 2.07;
      }

      .cls-21 {
        fill: #fac1b0;
      }

      .cls-22 {
        fill: url(#radial-gradient);
      }

      .cls-23 {
        fill: #ffffbd;
      }

      .cls-5 {
        stroke-dasharray: 1.93 1.93;
      }

      .cls-24 {
        fill: #cc8333;
      }

      .cls-25 {
        fill: #8fbdde;
      }

      .cls-7 {
        stroke-dasharray: 2.95 2.95;
      }

      .cls-8 {
        stroke-dasharray: 2.27 2.27;
      }

      .cls-26 {
        fill: #d8e9a2;
      }

      .cls-9 {
        stroke-dasharray: 2.59 2.59;
      }

      .cls-27 {
        fill: #2d1410;
      }

      .cls-10 {
        stroke-dasharray: 2.34 2.34;
      }

      .cls-28 {
        fill: #c9c2b6;
      }

      .cls-11 {
        stroke: #f4f4f4;
        stroke-width: .51px;
      }

      .cls-29 {
        fill: #ffc280;
      }

      .cls-30 {
        fill: #e8ddc5;
      }

      .cls-12 {
        stroke-dasharray: 1.61 1.61;
      }

      .cls-13 {
        stroke-dasharray: 2.19 2.19;
      }

      .cls-14 {
        stroke-dasharray: 2.64 2.64;
      }

      .cls-15 {
        stroke-dasharray: 2.28 2.28;
      }

      .cls-31 {
        fill: #fcf1d1;
      }
    </style>
    <radialGradient id="radial-gradient" cx="135.62" cy="162.63" fx="135.62" fy="162.63" r="109.17" gradientUnits="userSpaceOnUse">
      <stop offset="0" stop-color="#fff" stop-opacity="0"/>
      <stop offset=".86" stop-color="#848484" stop-opacity=".05"/>
      <stop offset="1" stop-color="#000" stop-opacity=".1"/>
    </radialGradient>
  </defs>
  <g id="Layer_1-2" data-name="Layer 1">
    <path class="cls-18" d="M211.67,397.89c1.79,1.64,4.55,3.92,8.25,6.08,5.37,3.14,9.71,4.27,13.3,5.43,4.83,1.56,11.58,4.23,19.53,9.08-.18,1.09-.29,2.92.69,4.56.56.92,1.97,1.71,4.76,3.26,3.47,1.91,5.23,2.87,6.55,3.01,1.81.19,3.32-.21,4.23-.53-.28.9-.88,3.22.2,5.5.88,1.85,2.42,2.72,4.48,3.87,1.72.96,3.83,2.15,6.84,2.44,5.14.5,9.05-1.97,10.95-3.18,1.43-.91,2.91-1.84,4.19-3.62.97-1.35.97-1.97,2.01-3.07,1.76-1.84,3.02-1.38,4.01-2.59,1.76-2.16.58-7.05-2.24-9.73-2.28-2.17-5.2-2.48-5.83-2.55-2.52-.27-2.99.65-6.38.39-.99-.08-4.57-.35-5.1-2.03-.14-.43.05-.54-.06-1.04-.3-1.24-1.76-1.67-3.91-2.67-3.49-1.63-3.3-2.2-5.29-2.65-2-.45-1.99.18-3.66-.33-2.47-.75-3.1-2.29-5.09-2.4-1.13-.06-2.06.38-2.61.69-1.92-.86-4.91-2.17-8.63-3.66-7.46-2.99-10.14-3.64-14.53-5.86-2.37-1.2-5.75-3.12-9.57-6.11-5.7,2.57-11.4,5.14-17.1,7.71Z"/>
    <path class="cls-23" d="M278.7,435.4c12.07,10.87,18.56,16.72,18.56,16.72,0,0,.02,0,.07-.03,1.92-.71,7.59-2.9,12.41-5.56,6.43-3.55,9.91-5.47,9.93-8.2,0-.78-.28-1.08-4.73-5.98-2.69-2.96-5.93-5.42-8.51-8.48-.42-.5-1.45-1.75-3.15-2.16-.69-.16-1.28-.14-1.63-.1.28.38.62.96.85,1.71.35,1.13.28,2.11.2,2.66,2.87,2.95,5.41,5.16,7.32,6.69,2.24,1.81,3.94,2.97,3.7,4.19-.19.95-1.42,1.3-3.99,2.46-2.5,1.13-4.49,2.23-5.85,3.03-3.04-3.33-6.08-6.66-9.12-9.99.28-2.24.38-6.04-1.88-8.11-.57-.52-1.84-1.45-2.25-1.12-.45.36.38,2.06.49,2.28.56,1.61,1.05,3.72,1.03,6.19,0,.65-.04,1.27-.11,1.85,2.89,3.26,5.79,6.51,8.68,9.77-1.72,1.77-3.19,2.13-4.13,2.17-2.46.12-2.83-1.88-9.17-7.06-2.97-2.43-4.86-3.6-5.26-5.97-.14-.81-.1-1.77-.65-2.01-.76-.33-2.28.88-2.82,2.33-.44,1.18-.15,2.27,0,2.71Z"/>
    <path class="cls-24" d="M270.05,424.24c.93-1.43,2.36-3.29,4.45-5.09,2.4-2.07,4.77-3.29,6.46-3.99.72.32,1.44.63,2.17.95-1.67.56-4.38,1.7-7.07,4.03-2.93,2.54-4.48,5.31-5.25,6.96-.25-.95-.51-1.9-.76-2.85Z"/>
    <ellipse class="cls-29" cx="280.32" cy="421.23" rx="3.44" ry="2.03" transform="translate(-173.06 196.59) rotate(-30)"/>
    <ellipse class="cls-29" cx="270.62" cy="414.81" rx="3.07" ry="1.71" transform="translate(-171.15 190.88) rotate(-30)"/>
    <path class="cls-25" d="M341.2,351.55c1.91,1.49,4.83,3.56,8.69,5.43,5.59,2.72,10,3.51,13.67,4.4,4.94,1.19,11.87,3.34,20.16,7.56-.09,1.1-.07,2.93,1.04,4.49.62.88,2.09,1.56,5,2.88,3.6,1.64,5.43,2.46,6.76,2.5,1.82.05,3.29-.46,4.18-.85-.21.92-.63,3.28.62,5.46,1.02,1.78,2.63,2.52,4.76,3.51,1.79.83,3.99,1.85,7.01,1.91,5.16.11,8.87-2.66,10.68-4,1.36-1.01,2.76-2.06,3.9-3.93.87-1.42.81-2.04,1.77-3.21,1.61-1.96,2.91-1.6,3.8-2.89,1.59-2.29.04-7.07-2.98-9.53-2.44-1.99-5.38-2.08-6.01-2.1-2.54-.08-2.93.88-6.33.88-.99,0-4.58,0-5.24-1.64-.17-.42.01-.54-.14-1.03-.39-1.21-1.88-1.53-4.1-2.36-3.6-1.36-3.46-1.94-5.48-2.23-2.03-.29-1.97.33-3.68-.04-2.52-.55-3.27-2.05-5.26-2.01-1.13.02-2.03.53-2.54.89-1.98-.71-5.06-1.79-8.88-2.99-7.66-2.42-10.39-2.85-14.94-4.73-2.45-1.02-5.97-2.68-10-5.36-5.49,3-10.97,5.99-16.46,8.99Z"/>
    <path class="cls-23" d="M410.9,383.82c12.87,9.92,19.78,15.25,19.78,15.25,0,0,.02-.01.07-.03,1.86-.86,7.34-3.47,11.95-6.5,6.14-4.03,9.46-6.21,9.28-8.93-.05-.78-.36-1.05-5.17-5.6-2.91-2.75-6.33-4.95-9.14-7.81-.46-.46-1.58-1.64-3.31-1.91-.7-.11-1.28-.04-1.64.02.3.36.69.91.98,1.64.44,1.1.44,2.08.41,2.64,3.08,2.73,5.79,4.73,7.81,6.11,2.37,1.63,4.15,2.66,4.01,3.9-.11.96-1.32,1.4-3.79,2.75-2.41,1.32-4.31,2.56-5.6,3.46-3.28-3.09-6.57-6.17-9.85-9.26.1-2.25-.08-6.05-2.49-7.94-.6-.47-1.95-1.3-2.33-.94-.42.39.54,2.03.66,2.24.68,1.56,1.33,3.63,1.5,6.09.04.65.05,1.27.03,1.85,3.13,3.03,6.27,6.05,9.4,9.08-1.58,1.89-3.02,2.37-3.95,2.48-2.44.31-2.96-1.66-9.68-6.34-3.15-2.19-5.13-3.22-5.7-5.55-.2-.8-.23-1.76-.8-1.95-.79-.27-2.21,1.05-2.64,2.54-.35,1.21.03,2.28.21,2.71Z"/>
    <path class="cls-17" d="M401.42,373.36c.82-1.49,2.1-3.46,4.05-5.42,2.24-2.25,4.51-3.64,6.14-4.47.74.26,1.49.52,2.23.78-1.63.68-4.24,2.03-6.74,4.56-2.72,2.75-4.06,5.64-4.7,7.34-.33-.93-.65-1.86-.98-2.78Z"/>
    <ellipse class="cls-1" cx="411.43" cy="369.57" rx="3.44" ry="2.03" transform="translate(-136.82 296.9) rotate(-34.38)"/>
    <ellipse class="cls-1" cx="401.27" cy="363.91" rx="3.07" ry="1.71" transform="translate(-135.4 290.17) rotate(-34.38)"/>
    <polygon class="cls-20" points="34.28 285.1 38.6 350.45 159.3 431.24 420.05 332.84 420.16 269.34 156.38 343.97 34.28 285.1"/>
    <path class="cls-18" d="M190.48,381.96l-.52-21.2c-.1-3.95,2.47-7.47,6.25-8.58l31.87-9.4c5.59-1.65,11.19,2.54,11.19,8.37v20.44c0,3.78-2.44,7.13-6.03,8.3l-31.35,10.17c-5.55,1.8-11.27-2.25-11.41-8.08Z"/>
    <polygon class="cls-31" points="43.14 281.88 155.4 333.14 407.17 264.68 272.53 239.05 43.14 281.88"/>
    <polygon class="cls-28" points="43.14 281.88 34.21 285.07 156.38 343.97 420.16 269.34 407.17 264.68 155.4 333.14 43.14 281.88"/>
    <path class="cls-18" d="M114.48,2.04c-.65-1.2-2.11-1.54-3.26-1.81-4.47-1.05-7.93,1.73-15.21,5.42-6.23,3.16-5.38,1.98-10.19,4.56-3.02,1.62-9.03,4.85-14.45,10.3-5.38,5.42-7.79,10.78-10.72,16.88-5.24,10.91-7.19,20.85-7.98,27.6l24.52,2.74c.83-4.54,2.19-10.85,4.45-18.25,2.46-8.07,3.69-12.11,5.93-15.64.95-1.51,1.86-2.68,2.79-3.69,6.05-6.58,9.42-7.97,15.23-13.51,1.6-1.52,11.09-10.58,8.9-14.6ZM75.9,42.28c-.21,1.57-1.85,3.24-3.66,2.92-1.69-.3-2.44-2.13-2.54-3.31-.03-.36-.12-1.45.63-2.28.86-.96,2.17-.86,2.49-.84.16.01,1.89.17,2.71,1.67.17.31.48,1,.37,1.84ZM81.59,29.15c-.16,1.22-1.46,2.34-2.42,2.02-.76-.25-1.16-1.36-1-2.22.22-1.19,1.54-2.19,2.48-1.83.72.27,1.04,1.27.94,2.04ZM91.51,19.2c-.29.77-1.08,1.75-1.79,1.56-.54-.15-.89-.93-.8-1.56.17-1.24,2.05-1.98,2.59-1.56.44.34.03,1.48,0,1.56Z"/>
    <path class="cls-25" d="M228.23,9.13c-2.53-2.03-6.39-.89-9.88.15-4.67,1.39-7.57,3.58-11.63,4.94-.31.1-1.34.44-2.68,1.01,0,0-1.56.67-3.12,1.52-6.83,3.74-12.98,10.78-12.98,10.78-1.98,2.27-6.55,7.8-11.25,17.33-2.99,6.07-6.67,15.05-8.91,26.67l24.52,2.74c.57-3.8,1.51-10.07,2.79-18.15,1.07-6.74,1.65-10.2,3.96-14.14,1.33-2.26,3.01-3.99,6.38-7.45,5.4-5.55,8.71-8.96,13.84-12.32,6.55-4.29,10.6-4.94,11.03-8.26.24-1.87-.78-3.79-2.06-4.82ZM188.57,49.89c-.5.79-1.53,1.32-2.51,1.07-1.57-.39-1.73-2.44-1.74-2.55-.01-.22-.1-1.55.8-2.12.57-.36,1.22-.23,1.5-.17,1.02.21,2.16,1.06,2.29,2.29.02.17.07.83-.34,1.48ZM196.33,35.31c-.49,1.63-2.33,2.89-3.24,2.43-.71-.36-.8-1.73-.55-2.65.45-1.68,2.31-3.03,3.24-2.58.73.35.86,1.8.56,2.8ZM208.55,23.99c-.8,1.42-2.91,2.03-3.59,1.37-.51-.49-.21-1.66.17-2.34.77-1.37,2.68-2.2,3.44-1.6.58.46.45,1.75-.02,2.57Z"/>
    <polygon class="cls-16" points="43.14 281.88 30.97 267.28 254.84 230.59 272.53 239.05 43.14 281.88"/>
    <polygon class="cls-20" points="17.34 49.89 3.33 55.26 15.8 269.17 34.21 285.07 43.14 281.88 30.97 267.28 17.34 49.89"/>
    <polygon class="cls-28" points="397.93 267.2 273.71 241.95 49.96 284.99 43.14 281.88 272.53 239.05 407.17 264.68 397.93 267.2"/>
    <polygon class="cls-16" points="17.88 58.52 253.91 67.02 253.87 58.98 17.34 49.89 17.88 58.52"/>
    <polygon class="cls-16" points="249.67 231.5 248.14 66.81 253.91 67.02 254.84 230.84 249.67 231.5"/>
    <polygon class="cls-31" points="21.58 58.57 34.51 266.7 249.67 231.5 248.14 66.81 21.58 58.57"/>
    <path class="cls-18" d="M360.7,334.15c.12,1.29-.68,2.61-1.82,2.97-1.16.36-2.22-.41-2.35-1.75-.13-1.33.72-2.68,1.89-3,1.14-.31,2.15.49,2.27,1.78Z"/>
    <path class="cls-18" d="M372.16,330.79c.1,1.16-.56,2.33-1.47,2.62-.93.29-1.79-.44-1.89-1.63-.1-1.2.59-2.39,1.53-2.65.92-.25,1.74.49,1.84,1.66Z"/>
    <polygon class="cls-16" points="21.58 58.57 34.51 266.7 30.97 267.28 17.88 58.52 21.58 58.57"/>
    <polygon points="261.4 233.73 259.6 59.76 253.87 58.98 254.84 230.84 261.4 233.73"/>
    <polygon points="260.92 226.45 272.53 239.05 261.4 233.73 260.92 226.45"/>
    <path class="cls-26" d="M291.34,343.08c8.77-4.11,19.1-8.3,30.89-11.92,11.1-3.41,21.4-5.68,30.52-7.2v13.23c-7.41,4.07-16.42,8.33-26.96,11.99-13.06,4.54-24.96,6.93-34.74,8.21.1-4.77.19-9.54.29-14.32Z"/>
    <path class="cls-26" d="M336.06,325.56v-3.92l1.88-1.32c.85-.6,1.35-1.58,1.34-2.62l-.03-2.6c1.19-.44,12.33-4.36,19.42,1.68.95.81,2,1.95,2.92,3.55-.65,1.73-1.59,3.8-2.97,6-1.65,2.63-3.44,4.64-4.93,6.09-.05-3.27-.1-6.54-.15-9.81l-17.49,2.96Z"/>
    <path class="cls-26" d="M284.25,338.52l-4.5.45-.51-5.09c-3.67,1.11-10.06,3.59-16.13,9.23-4.26,3.96-6.88,8.09-8.43,11.05,1.27,1.39,2.57,2.44,3.78,3.23,8.7,5.72,19.3,2.73,22.09,1.85-.27-1.82-.53-3.63-.8-5.45l5.45-1.16-.95-14.11Z"/>
    <polygon class="cls-18" points="340.97 319.79 341.71 319.01 348.18 322.03 345.97 322.16 340.97 319.79"/>
    <polygon class="cls-18" points="290.92 342.91 282.03 339.2 284 338.81 292.27 342.37 290.92 342.91"/>
    <polygon class="cls-18" points="285.12 353.7 282.74 353.7 290.17 357.12 290.59 356.17 285.12 353.7"/>
    <path class="cls-18" d="M380.94,293.39l18.89-5.3c5.56-1.56,11.08,2.62,11.08,8.4v18.33c0,3.74-2.38,7.06-5.92,8.26l-18.89,6.41c-5.66,1.92-11.53-2.29-11.53-8.26v-19.44c0-3.91,2.6-7.35,6.37-8.4Z"/>
    <path class="cls-26" d="M132.13,418.88c2.03,2.44,10.89,12.58,26,14.44,19.92,2.45,33.4-11.62,34.78-13.12.13-1.93.58-11.39-6.26-18.77-6.84-7.39-18.22-9.73-28.64-5.78-7.98-3.83-17.35-1.99-22.75,4.21-4.42,5.08-5.59,12.42-3.13,19.02Z"/>
    <path class="cls-25" d="M37.39,334.34c-.12.02-.46.11-.75.43-.31.35-.34.74-.34.85.23,2.43.44,4.53.6,6.19.67,6.78.74,7.31,1.18,8.28,2.16,4.79,7.1,6.55,7.57,6.71,1.27.43,2.57.52,3.37.57-.29-.16-2.83-2.02-3.96-3.12-1.02-.99-1.08-1.93-2.11-5.07-2.09-6.37-3.15-9.57-3.89-10.54-.22-.29-.98-1.24-1.4-2.69-.19-.66-.25-1.23-.27-1.61Z"/>
    <path class="cls-27" d="M406.03,338.02c2.47-.01,4.5-.38,5.91-.74,1.71-.44,4.06-1.06,6.47-2.87.67-.51,1.01-.76,1.37-1.18,1.56-1.83,1.05-3.57,1.45-7.68.42-4.39,1.39-6.45.17-7.55-.34-.31-1.16-.75-1.46-.54-.27.18.15.78-.14,1.65-.46,1.36-1.21,1.92-2.13,2.82-1.72,1.67-4.78,5.95-6.32,10.6-.49,1.48-.53,3.19-2.07,4-1.42.75-2.38,1.15-3.26,1.49Z"/>
    <path class="cls-20" d="M173.13,402.86c-.28,2.31-2.34,4.18-4.59,4.18s-3.84-1.87-3.56-4.18c.28-2.31,2.34-4.18,4.59-4.18s3.84,1.87,3.56,4.18Z"/>
    <path class="cls-20" d="M415.95,331.86c.08.85-.29,1.66-.82,1.8s-1.02-.44-1.1-1.29.29-1.66.82-1.8,1.02.44,1.1,1.29Z"/>
    <path class="cls-20" d="M420.15,324.26c.04.67-.3,1.28-.76,1.38s-.86-.38-.89-1.04.3-1.28.76-1.38.86.38.89,1.04Z"/>
    <path class="cls-20" d="M142.44,415.81c.3,2.31-1.27,4.18-3.52,4.18s-4.32-1.87-4.62-4.18c-.3-2.31,1.27-4.18,3.52-4.18,2.25,0,4.32,1.87,4.62,4.18Z"/>
    <path class="cls-20" d="M40.61,347.74c0,.99-.49,1.55-1.12,1.25s-1.15-1.33-1.16-2.32.49-1.55,1.12-1.25,1.15,1.33,1.16,2.32Z"/>
    <path class="cls-20" d="M186.6,417.81c-.23,1.85-1.87,3.34-3.67,3.34s-3.07-1.5-2.85-3.34,1.87-3.34,3.67-3.34,3.07,1.5,2.85,3.34Z"/>
    <polygon class="cls-22" points="21.58 58.57 34.51 266.7 249.67 231.5 248.14 66.81 21.58 58.57"/>
    <path class="cls-30" d="M119.83,316.9l167-42.37c7.79-1.98,15.96-1.95,23.74.09l30.59,8.02-185.75,50.51-35.57-16.24Z"/>
    <path d="M17.4,50.82c73.25,2.59,146.99,5.24,220.26,7.54.35.01,5.93.19,6.29.2.88-.19,1.76-.37,2.63-.56L17.88,49.89l-.48.93Z"/>
    <path class="cls-21" d="M43.14,281.88c-8.37-1.66-12.47-4.98-14.5-8.41-1.97-3.33-1.19-4.6-2.69-14.45-.71-4.67-1.76-11.06-6.01-16.69-2.31-3.05-4.89-4.99-6.65-6.13.2,3.83.29,6.95.33,9.07.17,8.4-.17,11.35.57,16.75.41,3,.75,5.47,1.6,7.8,3.15,8.63,12.51,13.14,18.42,15.25,1.05-.35,2.11-.72,3.17-1.09,1.96-.69,3.88-1.39,5.75-2.1Z"/>
    <path class="cls-20" d="M27.97,277.8c.01,1.53-.77,2.41-1.74,1.95s-1.78-2.07-1.8-3.61.77-2.41,1.74-1.95,1.78,2.07,1.8,3.61Z"/>
    <path class="cls-27" d="M2.53,88.76c2.18-.72,3.73-1.77,4.85-2.89,4.37-4.34,4.33-11.65,4.16-21.85-.11-6.78-.7-8,.46-9.83,3.07-4.81,12.44-3.91,20.06-3.81-4.12-1.51-13.93-3.82-23.53.22-2.44,1.03-5.32,2.28-7.14,5.24-2.4,3.89-1.21,7.84-.14,16.15.5,3.89,1.09,9.61,1.27,16.76Z"/>
    <path class="cls-20" d="M18.53,247.48c.01,1.27-.63,1.99-1.44,1.61s-1.47-1.71-1.48-2.98.63-1.99,1.44-1.61,1.47,1.71,1.48,2.98Z"/>
    <path class="cls-20" d="M9.21,59.39c-.4,1.52-1.41,2.38-2.26,1.93s-1.2-2.05-.8-3.57,1.41-2.38,2.26-1.93,1.2,2.05.8,3.57Z"/>
    <path class="cls-20" d="M6.79,80.54c-.3,1.11-1.04,1.75-1.65,1.42s-.88-1.51-.59-2.62,1.04-1.75,1.65-1.42.88,1.51.59,2.62Z"/>
    <path class="cls-18" d="M49.63,351.64c.02,1.02-.24,1.64-.58,1.41s-.63-1.21-.65-2.21.22-1.66.56-1.45.65,1.23.67,2.25Z"/>
    <path class="cls-18" d="M52.14,353.27c.01,1.06-.29,1.7-.66,1.44s-.68-1.29-.69-2.32.27-1.72.65-1.49.7,1.3.71,2.37Z"/>
    <path class="cls-18" d="M54.91,355.06c0,1.1-.35,1.76-.76,1.47s-.74-1.37-.74-2.45c0-1.09.33-1.78.74-1.53s.76,1.38.76,2.5Z"/>
    <path class="cls-18" d="M57.98,357.06c-.02,1.15-.42,1.82-.88,1.5s-.8-1.46-.79-2.59c.01-1.14.39-1.85.85-1.56s.84,1.48.81,2.64Z"/>
    <path class="cls-18" d="M61.41,359.28c-.05,1.2-.5,1.88-1.02,1.53s-.88-1.56-.85-2.74.47-1.91.99-1.6.92,1.59.87,2.81Z"/>
    <path class="cls-18" d="M65.26,361.78c-.07,1.26-.61,1.95-1.18,1.55s-.97-1.68-.91-2.91.57-1.99,1.15-1.63,1.02,1.71.95,2.99Z"/>
    <path class="cls-18" d="M69.61,364.6c-.11,1.32-.73,2.02-1.39,1.57s-1.08-1.82-.99-3.11.69-2.06,1.35-1.66,1.14,1.86,1.03,3.2Z"/>
    <path class="cls-18" d="M74.58,367.83c-.15,1.39-.89,2.09-1.64,1.58s-1.21-1.98-1.08-3.34c.13-1.38.84-2.14,1.59-1.68s1.28,2.02,1.12,3.44Z"/>
    <path class="cls-18" d="M80.3,371.54c-.21,1.47-1.09,2.16-1.95,1.57-.84-.58-1.37-2.17-1.19-3.6.18-1.45,1.02-2.22,1.9-1.68s1.45,2.23,1.24,3.72Z"/>
    <path class="cls-18" d="M86.96,375.86c-.29,1.55-1.34,2.22-2.34,1.53s-1.56-2.4-1.32-3.91,1.26-2.3,2.28-1.67,1.67,2.47,1.38,4.04Z"/>
    <path class="cls-18" d="M94.81,380.95c-.38,1.64-1.67,2.27-2.85,1.47s-1.8-2.68-1.47-4.27,1.57-2.37,2.77-1.63,1.94,2.77,1.55,4.44Z"/>
    <path class="cls-18" d="M104.19,387.03c-.52,1.73-2.11,2.31-3.52,1.34s-2.11-3.03-1.67-4.71c.45-1.72,1.97-2.43,3.42-1.54,1.49.91,2.3,3.14,1.77,4.91Z"/>
    <path class="cls-18" d="M115.6,394.44c-.7,1.84-2.7,2.31-4.42,1.13s-2.52-3.46-1.92-5.24,2.52-2.47,4.29-1.38c1.83,1.12,2.77,3.62,2.05,5.49Z"/>
    <path class="cls-18" d="M129.79,403.64c-.97,1.94-3.54,2.24-5.68.78-2.08-1.42-3.06-4.03-2.24-5.92s3.28-2.46,5.51-1.1c2.31,1.41,3.41,4.25,2.42,6.24Z"/>
    <path class="cls-18" d="M149.95,385.51c-.6,1.72-2.09,1.9-3.3.52s-1.68-3.64-1.22-5.32,1.88-2.24,3.17-.98c1.36,1.33,1.98,3.97,1.35,5.78Z"/>
    <path class="cls-18" d="M150.31,372.64c-.63,1.91-2.17,2.26-3.42.92-1.19-1.27-1.74-3.7-1.26-5.54s1.95-2.6,3.29-1.4c1.41,1.26,2.05,4.02,1.39,6.02Z"/>
    <path class="cls-18" d="M150.69,358.85c-.65,2.11-2.26,2.66-3.55,1.38-1.23-1.22-1.8-3.75-1.31-5.77s2.03-3.01,3.42-1.89c1.46,1.19,2.13,4.07,1.44,6.28Z"/>
    <path class="cls-18" d="M41.42,324.86c-.24,1.81-1.17,2.38-2.02,1.32s-1.28-3.15-1.07-4.83c.22-1.69,1.05-2.38,1.9-1.51.89.92,1.44,3.19,1.19,5.01Z"/>
    <path class="cls-18" d="M40.77,313.67c-.24,1.6-1.1,2.11-1.91,1.18s-1.2-2.77-.99-4.26,1-2.12,1.79-1.35,1.34,2.81,1.11,4.43Z"/>
    <path class="cls-18" d="M40.2,303.76c-.23,1.43-1.05,1.88-1.8,1.07s-1.12-2.46-.93-3.79.95-1.9,1.69-1.22,1.26,2.5,1.03,3.94Z"/>
    <line class="cls-11" x1="44.64" y1="343.04" x2="133.6" y2="397.93"/>
    <path class="cls-18" d="M248.28,371.51c.12,1.29-.68,2.61-1.82,2.97-1.16.36-2.22-.41-2.35-1.75-.13-1.33.72-2.68,1.89-3,1.14-.31,2.15.49,2.27,1.78Z"/>
    <path class="cls-18" d="M259.74,368.15c.1,1.16-.56,2.33-1.47,2.62-.93.29-1.79-.44-1.89-1.63-.1-1.2.59-2.39,1.53-2.65.92-.25,1.74.49,1.84,1.66Z"/>
    <ellipse class="cls-29" cx="207" cy="369.67" rx="9.58" ry="7.58" transform="translate(-182.02 537.49) rotate(-84.09)"/>
    <polygon class="cls-24" points="224.59 354.55 225.42 373.79 229.61 372.57 228.85 353.64 224.59 354.55"/>
    <ellipse class="cls-29" cx="400.26" cy="307.85" rx="9.58" ry="7.58" transform="translate(52.82 674.28) rotate(-84.09)"/>
    <polygon class="cls-24" points="384.45 301.53 384.16 320.78 388.41 319.81 388.75 300.87 384.45 301.53"/>
    <g>
      <path class="cls-6" d="M292.59,344.83c.01-.43.03-.86.03-1.28.38-.18.77-.36,1.16-.54"/>
      <path class="cls-9" d="M296.15,341.95c7.45-3.27,17.13-6.93,26.04-9.66,8.8-2.7,19.32-5.14,27.2-6.58"/>
      <path class="cls-6" d="M350.66,325.48c.43-.08.85-.15,1.26-.22v1.28"/>
      <path class="cls-7" d="M351.93,329.49v4.42"/>
      <path class="cls-6" d="M351.93,335.38v1.28c-.36.2-.74.4-1.13.61"/>
      <path class="cls-14" d="M348.45,338.48c-6.5,3.25-15.33,6.98-23.12,9.69-10.42,3.62-22.14,6.56-30.67,7.93"/>
      <path class="cls-6" d="M293.36,356.3c-.43.06-.86.12-1.27.18,0-.42.02-.85.03-1.28"/>
      <path class="cls-4" d="M292.21,353.12c.11-2.41.25-4.86.35-7.25"/>
    </g>
    <g>
      <polyline class="cls-6" points="281.94 341.57 281.87 340.51 280.8 340.61"/>
      <polyline class="cls-6" points="279.18 340.77 278.11 340.88 278.01 339.82"/>
      <path class="cls-6" d="M277.8,337.71l-.11-1.06c-.31.1-.65.2-1.01.32"/>
      <path class="cls-15" d="M274.54,337.76c-2.96,1.22-6.69,3.23-10.29,6.57-2.7,2.51-4.61,5.1-5.94,7.28"/>
      <path class="cls-6" d="M257.73,352.6c-.18.32-.35.64-.51.94.25.27.5.53.75.77"/>
      <path class="cls-10" d="M259.77,355.81c.2.15.41.29.6.42,5.78,3.8,12.56,2.99,16.26,2.13"/>
      <path class="cls-6" d="M277.76,358.07c.41-.11.76-.22,1.02-.3-.05-.35-.1-.71-.16-1.06"/>
      <path class="cls-6" d="M278.27,354.29c-.05-.35-.1-.71-.16-1.06l1.05-.22"/>
      <polyline class="cls-6" points="281.61 352.49 282.65 352.26 282.58 351.2"/>
      <line class="cls-2" x1="282.45" y1="349.27" x2="282" y2="342.53"/>
    </g>
    <g>
      <polyline class="cls-6" points="338.27 324.45 337.14 324.65 337.23 323.5"/>
      <polyline class="cls-6" points="337.28 322.92 337.37 321.77 338.31 321.11"/>
      <path class="cls-12" d="M339.58,320.11c.44-.52.69-1.18.68-1.88v-.38"/>
      <path class="cls-6" d="M340.25,317.05v-1.15c.15-.06.53-.2,1.08-.36"/>
      <path class="cls-8" d="M343.52,314.97c3.73-.8,9.79-1.27,14.15,2.44.45.38,1.03.84,1.61,1.4"/>
      <path class="cls-6" d="M360.05,319.65c.24.29.46.61.66.95-.13.34-.28.69-.47,1.05"/>
      <path class="cls-5" d="M359.3,323.33c-.51.85-1.09,1.74-1.67,2.65-.86,1.37-1.33,2.33-1.83,3.15"/>
      <path class="cls-6" d="M355.25,329.93c-.22.29-.47.57-.76.86,0-.38,0-.76-.01-1.15"/>
      <path class="cls-3" d="M354.49,327.35c0-1.14.02-2.3.03-3.43"/>
      <path class="cls-6" d="M354.51,322.77c0-.39,0-.77-.01-1.15l-1.13.2"/>
      <line class="cls-13" x1="351.21" y1="322.2" x2="339.35" y2="324.26"/>
    </g>
    <path class="cls-27" d="M78.73,290.58c1.54-4.84,2.76-11.45-.55-16.24-4.05-5.86-12.32-5.28-12.26-7.4.07-2.47,11.3-5.6,21.77-2.87,2.8.73,5.75,1.5,8.35,4,6.72,6.47,4.1,17.67,3.8,18.87l-21.1,3.65Z"/>
    <path class="cls-27" d="M235.51,260.9c1.31-4.1,2.34-9.72-.47-13.78-3.44-4.97-10.46-4.48-10.41-6.28.06-2.09,9.59-4.75,18.47-2.44,2.38.62,4.88,1.27,7.09,3.4,5.71,5.49,3.48,14.99,3.22,16.01l-17.91,3.09Z"/>
    <ellipse class="cls-29" cx="75.06" cy="267.19" rx="2.17" ry=".86"/>
    <ellipse class="cls-29" cx="82.89" cy="265.54" rx="2.17" ry=".86"/>
    <ellipse class="cls-29" cx="231.7" cy="240.73" rx="1.89" ry=".74"/>
    <ellipse class="cls-29" cx="238.52" cy="239.29" rx="1.89" ry=".74"/>
    <path class="cls-21" d="M237.66,58.37s2.17-.02,5.19-.2c1.93-.11,2.53-.18,4.35-.37,6.37-.65,9.61-.94,11.91,1.08.67.59,1.05,1.17,1.26,1.5,2.4,3.74-.25,8.43-.66,9.54-1.97,0,.36-2.71-.37-5.02-.24-.74.33-2.26-.04-2.87-1.31-2.13-5.25-2.66-11.91-3.21-.78-.06-2.68-.19-5.02-.29-2.71-.11-4.7-.12-4.7-.17Z"/>
    <g>
      <g>
        <g>
          <g>
            <path class="cls-25" d="M66.7,121.72c2.18-.46,4.37-.89,6.56-1.31-1.43,1.82-2.84,3.65-4.22,5.48,1.24,2.24,2.46,4.48,3.67,6.73-2.05-1.12-4.13-2.22-6.22-3.3-1.37,1.86-2.71,3.73-4.02,5.61.01-2.54.04-5.07.07-7.61-2.17-1.08-4.35-2.14-6.56-3.18,2.21-.54,4.43-1.05,6.65-1.54.05-2.55.12-5.1.2-7.66,1.31,2.25,2.61,4.51,3.88,6.78Z"/>
            <path class="cls-18" d="M107.52,115.65c2.06-.18,4.12-.35,6.18-.49-1.53,1.58-3.05,3.17-4.54,4.77.87,2.29,1.73,4.58,2.57,6.88-1.75-1.31-3.53-2.61-5.32-3.89-1.48,1.62-2.93,3.26-4.37,4.9.32-2.43.64-4.86.98-7.29-1.86-1.29-3.74-2.57-5.63-3.83,2.09-.25,4.19-.48,6.28-.68.36-2.44.72-4.88,1.11-7.31.93,2.31,1.84,4.63,2.75,6.95Z"/>
            <path class="cls-26" d="M145.87,114.35c1.93.04,3.85.1,5.78.17-1.61,1.36-3.19,2.73-4.76,4.11.54,2.29,1.07,4.58,1.58,6.87-1.47-1.44-2.97-2.87-4.48-4.29-1.56,1.4-3.1,2.82-4.62,4.24.58-2.3,1.16-4.6,1.76-6.89-1.57-1.44-3.15-2.86-4.76-4.28,1.96-.01,3.92,0,5.88.01.62-2.3,1.24-4.6,1.88-6.9.59,2.32,1.16,4.64,1.72,6.96Z"/>
            <path class="cls-21" d="M181.63,116.93c1.79.22,3.58.46,5.37.71-1.65,1.15-3.29,2.32-4.91,3.49.24,2.25.48,4.5.7,6.75-1.22-1.52-2.45-3.04-3.7-4.55-1.61,1.2-3.21,2.41-4.78,3.63.8-2.15,1.61-4.3,2.42-6.45-1.3-1.53-2.61-3.05-3.94-4.56,1.83.18,3.65.37,5.48.58.84-2.15,1.68-4.3,2.54-6.45.28,2.28.55,4.56.81,6.84Z"/>
            <path class="cls-25" d="M214.82,122.67c1.66.37,3.32.75,4.97,1.15-1.68.96-3.34,1.94-4.99,2.93-.02,2.18-.04,4.36-.07,6.54-.98-1.57-1.97-3.13-2.98-4.69-1.64,1.01-3.27,2.03-4.89,3.07.98-2,1.98-3.99,2.98-5.98-1.05-1.58-2.11-3.16-3.2-4.73,1.69.33,3.38.68,5.07,1.04,1.02-1.99,2.05-3.98,3.09-5.96.01,2.21.02,4.43.01,6.64Z"/>
          </g>
          <g>
            <path class="cls-26" d="M68.72,199.08c2.17.31,4.33.59,6.5.85-1.96,1.2-3.94,2.39-5.94,3.56.31,2.36.63,4.72.97,7.08-1.59-1.63-3.17-3.27-4.72-4.93-2.04,1.16-4.11,2.29-6.19,3.41,1.12-2.17,2.22-4.34,3.32-6.52-1.55-1.7-3.08-3.41-4.59-5.13,2.2.38,4.4.74,6.61,1.08,1.08-2.19,2.16-4.39,3.22-6.59.26,2.39.54,4.79.83,7.19Z"/>
            <path class="cls-19" d="M108.93,202.36c2.01.04,4.03.07,6.04.08-1.69,1.37-3.41,2.73-5.14,4.08.49,2.23.99,4.46,1.51,6.68-1.61-1.38-3.19-2.78-4.76-4.19-1.77,1.34-3.57,2.67-5.38,3.99.83-2.21,1.65-4.42,2.46-6.63-1.58-1.45-3.13-2.91-4.67-4.38,2.05.11,4.11.19,6.16.26.8-2.23,1.59-4.45,2.36-6.68.46,2.26.92,4.53,1.41,6.79Z"/>
            <path class="cls-25" d="M146.2,201.13c1.86-.16,3.72-.34,5.58-.54-1.44,1.49-2.9,2.98-4.38,4.45.65,2.1,1.3,4.19,1.97,6.28-1.6-1.17-3.18-2.35-4.75-3.55-1.52,1.47-3.05,2.94-4.61,4.39.58-2.21,1.14-4.42,1.69-6.64-1.58-1.23-3.14-2.47-4.68-3.72,1.9-.12,3.8-.25,5.7-.39.54-2.22,1.07-4.45,1.59-6.68.62,2.13,1.25,4.26,1.89,6.39Z"/>
            <path class="cls-26" d="M180.55,196.33c1.71-.33,3.42-.67,5.12-1.03-1.21,1.57-2.44,3.14-3.68,4.7.78,1.96,1.57,3.93,2.36,5.89-1.58-.99-3.15-1.98-4.7-2.99-1.28,1.56-2.57,3.12-3.89,4.67.34-2.19.68-4.38,1-6.57-1.57-1.04-3.12-2.09-4.65-3.15,1.75-.29,3.5-.6,5.24-.91.31-2.2.61-4.39.9-6.59.76,2,1.53,4,2.3,5.99Z"/>
            <path class="cls-21" d="M212.03,188.67c1.57-.46,3.13-.94,4.69-1.42-.99,1.62-2.01,3.24-3.04,4.85.89,1.84,1.79,3.67,2.69,5.5-1.55-.82-3.1-1.66-4.63-2.5-1.06,1.62-2.13,3.23-3.23,4.84.14-2.15.26-4.29.38-6.43-1.54-.87-3.07-1.76-4.59-2.65,1.6-.43,3.2-.87,4.8-1.33.1-2.15.2-4.3.28-6.45.88,1.87,1.76,3.74,2.65,5.6Z"/>
          </g>
        </g>
        <polygon class="cls-26" points="51.93 163.81 58.41 163.57 53.37 168.25 55.69 175.38 50.24 171.16 45.16 175.88 46.84 168.52 41.28 164.21 47.88 163.97 49.57 156.57 51.93 163.81"/>
        <polygon class="cls-21" points="225.31 157.33 229.97 157.15 226.1 161.1 227.36 167.18 223.7 163.56 219.8 167.54 221.41 161.3 217.68 157.61 222.41 157.43 224.03 151.17 225.31 157.33"/>
      </g>
      <g>
        <path class="cls-27" d="M80.47,137.49c3.94-1,7.91-1.91,11.88-2.72.35,1.56.69,3.13,1.03,4.69-2.23.46-4.46.96-6.67,1.48.24.97.49,1.95.73,2.92,1.87-.45,3.74-.87,5.62-1.27.33,1.46.65,2.93.98,4.39-1.84.4-3.67.83-5.5,1.27.61,2.46,1.22,4.92,1.83,7.38-1.54.38-3.08.79-4.62,1.2-1.75-6.45-3.51-12.9-5.29-19.34Z"/>
        <path class="cls-27" d="M99.76,138.22c-1.82.33-3.65.68-5.46,1.06-.34-1.56-.68-3.13-1.01-4.69,5.33-1.07,10.69-1.97,16.07-2.7.23,1.56.45,3.12.68,4.68-1.8.25-3.6.52-5.4.82.83,4.9,1.65,9.8,2.46,14.7-1.52.27-3.03.55-4.54.84-.92-4.9-1.85-9.81-2.78-14.71Z"/>
        <path class="cls-27" d="M124.13,153.95c-3.77.41-7.53.91-11.28,1.5-.11-.76-.21-1.52-.32-2.28,3.79-.59,7.59-1.09,11.4-1.49.07.76.13,1.51.2,2.27Z"/>
        <path class="cls-27" d="M123.39,130.36c2.18-.18,4.36-.33,6.54-.45,1.95-.11,3.55.25,4.87,1.32,1.32,1.07,2.16,2.74,2.22,4.97.06,2.22-.67,3.94-1.86,5.11-1.19,1.17-2.65,1.7-4.49,1.82-.54.04-1.08.08-1.62.12.12,2,.25,4,.37,5.99-1.47.12-2.95.25-4.42.4-.53-6.42-1.06-12.85-1.61-19.27ZM130.05,138.88c.89-.06,1.38-.25,1.78-.64.41-.4.6-1.04.57-1.79-.03-.74-.29-1.37-.74-1.72-.45-.35-.96-.48-1.87-.42-.43.03-.87.05-1.3.08.1,1.53.19,3.05.29,4.58.43-.03.85-.06,1.28-.09Z"/>
        <path class="cls-27" d="M138.67,129.56c2.21-.05,4.42-.07,6.64-.07,1.79,0,3.23.45,4.39,1.5,1.16,1.05,1.83,2.64,1.75,4.68-.09,2.4-1.15,4.21-2.82,5.19,1.23,2.53,2.43,5.07,3.58,7.61-1.58-.02-3.16-.03-4.74-.02-1.01-2.26-2.04-4.5-3.11-6.75-.34,0-.69,0-1.03.01,0,2.26,0,4.53,0,6.79-1.43.03-2.86.08-4.28.14-.12-6.36-.23-12.72-.36-19.08ZM144.77,137.84c.79,0,1.23-.14,1.6-.45.38-.31.58-.89.59-1.55.01-.66-.18-1.26-.55-1.58-.37-.32-.82-.45-1.62-.45-.49,0-.98,0-1.47,0,0,1.34,0,2.69,0,4.03.48,0,.96-.01,1.45-.01Z"/>
        <path class="cls-27" d="M153.82,129.65c1.53.05,3.06.12,4.58.2-.4,6.24-.8,12.49-1.21,18.73-1.41-.05-2.82-.08-4.23-.11.28-6.27.57-12.55.85-18.82Z"/>
        <path class="cls-27" d="M160.92,130c1.41.09,2.83.19,4.24.3,1.18,2.35,2.33,4.71,3.44,7.08.69,1.45,1.27,2.77,1.86,4.16.01,0,.03,0,.04,0,.17-1.58.34-3.16.53-4.71.24-1.98.48-3.95.72-5.93,1.42.15,2.84.31,4.26.48-.85,6.1-1.7,12.2-2.55,18.3-1.28-.13-2.56-.25-3.84-.36-1.02-2.33-2.07-4.65-3.15-6.97-.69-1.44-1.3-2.75-1.93-4.14-.01,0-.03,0-.04,0-.13,1.59-.26,3.18-.4,4.75-.18,1.97-.37,3.95-.55,5.92-1.34-.08-2.68-.15-4.01-.21.47-6.22.93-12.45,1.4-18.67Z"/>
        <path class="cls-27" d="M181.5,136.59c-1.6-.22-3.2-.43-4.8-.63.21-1.47.43-2.94.64-4.42,4.68.59,9.35,1.31,14,2.15-.3,1.44-.6,2.88-.9,4.32-1.57-.28-3.13-.54-4.7-.79-.85,4.55-1.69,9.1-2.53,13.65-1.34-.19-2.67-.37-4.01-.54.76-4.58,1.52-9.17,2.29-13.75Z"/>
        <path class="cls-27" d="M192.66,133.94c3.31.62,6.61,1.3,9.9,2.05-.36,1.41-.73,2.82-1.09,4.22-1.85-.41-3.71-.8-5.57-1.17-.21.89-.41,1.78-.62,2.67,1.57.31,3.14.63,4.7.97-.34,1.32-.67,2.64-1.01,3.97-1.54-.32-3.08-.63-4.62-.93-.52,2.24-1.04,4.49-1.55,6.73-1.31-.24-2.62-.47-3.92-.69,1.26-5.94,2.52-11.88,3.79-17.81Z"/>
      </g>
      <g>
        <path class="cls-27" d="M82.69,186.45c-5.92-.88-9.07-5.91-7.9-11.52,1.2-5.79,6-9.24,11.36-8.36,1.69.28,3.23.96,4.39,1.92-.28,1.76-.55,3.51-.82,5.27-1.12-1.06-2.64-2-4.27-2.26-2.83-.45-5.17,1.31-5.72,4.25-.53,2.82.93,5.42,4.12,5.9,1.68.25,3.49-.17,5.04-.96-.27,1.73-.53,3.46-.79,5.19-1.6.68-3.62.83-5.4.57Z"/>
        <path class="cls-27" d="M90.7,177.46c.88-5.63,5.28-9.41,10.2-8.87,4.9.53,8.13,5.09,7.64,10.67-.49,5.55-4.75,9.59-10.04,9.1-5.31-.49-8.68-5.3-7.81-10.9ZM103.84,178.9c.3-2.86-1.11-5.2-3.54-5.46-2.45-.26-4.41,1.75-4.8,4.62-.39,2.86,1.03,5.26,3.58,5.5,2.53.24,4.47-1.81,4.77-4.66Z"/>
        <path class="cls-27" d="M111.39,169.82c1.44.1,2.88.19,4.32.26,1.18,2.39,2.39,4.76,3.64,7.14,1.51-2.26,2.98-4.54,4.42-6.83,1.39.03,2.79.05,4.18.06-.21,6.28-.41,12.57-.61,18.85-1.56.01-3.11,0-4.67,0,.09-2.04.19-4.09.28-6.13.07-1.49.17-3.16.25-4.46-.01,0-.03,0-.04,0-.72,1.19-1.51,2.43-2.29,3.59-.7,1.05-1.4,2.09-2.11,3.14-.6-1.08-1.19-2.16-1.77-3.25-.67-1.23-1.3-2.5-1.88-3.73-.01,0-.03,0-.04,0-.07,1.31-.17,3-.28,4.49-.15,2.06-.29,4.11-.44,6.17-1.53-.06-3.06-.13-4.6-.21.54-6.36,1.09-12.72,1.65-19.07Z"/>
        <path class="cls-27" d="M130.36,170.46c1.96,0,3.92-.03,5.88-.07,1.75-.04,3.16.33,4.33,1.37,1.17,1.04,1.93,2.66,1.96,4.82.03,2.16-.68,3.85-1.88,4.99-1.19,1.14-2.67,1.64-4.49,1.7-.54.02-1.08.03-1.61.05-.02,1.95-.04,3.9-.06,5.84-1.53.05-3.07.09-4.6.11.15-6.27.3-12.54.46-18.81ZM135.83,179.12c.86-.03,1.33-.2,1.74-.57.41-.38.62-1,.62-1.73,0-.72-.21-1.34-.61-1.69-.4-.35-.87-.49-1.71-.47-.4.01-.81.02-1.21.03-.02,1.49-.03,2.98-.05,4.46.41-.01.82-.02,1.23-.03Z"/>
        <path class="cls-27" d="M144.09,170.09c1.4-.07,2.81-.16,4.21-.25.16,4.69.32,9.39.48,14.08,2.13-.17,4.25-.36,6.38-.58.08,1.46.16,2.93.24,4.39-3.63.38-7.27.7-10.92.94-.13-6.19-.25-12.39-.38-18.58Z"/>
        <path class="cls-27" d="M155.82,169.22c3.12-.3,6.22-.66,9.32-1.07.13,1.46.26,2.92.39,4.39-1.78.24-3.56.46-5.34.67.06.86.12,1.72.19,2.58,1.52-.18,3.05-.37,4.57-.58.12,1.37.24,2.74.36,4.11-1.54.21-3.08.41-4.63.6.07.92.13,1.84.2,2.77,1.92-.24,3.84-.49,5.75-.77.13,1.44.26,2.89.39,4.33-3.36.49-6.74.93-10.12,1.3-.36-6.12-.72-12.23-1.08-18.35Z"/>
        <path class="cls-27" d="M171.18,171.71c-1.5.24-3.01.46-4.52.67-.14-1.46-.27-2.92-.41-4.38,4.27-.58,8.52-1.27,12.76-2.05.2,1.44.39,2.87.59,4.31-1.47.28-2.94.54-4.42.8.55,4.53,1.1,9.06,1.65,13.59-1.39.25-2.78.5-4.17.73-.49-4.55-.98-9.11-1.48-13.66Z"/>
        <path class="cls-27" d="M180.19,165.73c2.93-.56,5.85-1.16,8.75-1.82.24,1.41.48,2.83.73,4.24-1.67.38-3.34.75-5.01,1.1.13.83.26,1.67.38,2.5,1.43-.3,2.86-.62,4.28-.94.22,1.33.45,2.65.67,3.98-1.44.33-2.89.66-4.34.97.14.89.27,1.79.41,2.68,1.8-.39,3.6-.8,5.39-1.22.24,1.4.48,2.8.72,4.19-3.15.76-6.31,1.46-9.48,2.11-.83-5.93-1.66-11.86-2.5-17.78Z"/>
        <path class="cls-27" d="M190.85,163.47c1.72-.4,3.43-.82,5.14-1.25,2.15-.55,4.06-.1,5.59,1.15,1.53,1.24,2.65,3.14,3.2,5.61.51,2.32.38,4.62-.52,6.56-.9,1.94-2.49,3.4-4.86,4.03-1.81.48-3.62.95-5.44,1.4-1.03-5.83-2.06-11.67-3.1-17.5ZM200.74,173.54c.47-.96.56-2.22.29-3.5-.27-1.29-.84-2.37-1.61-2.99-.78-.63-1.67-.87-2.65-.62-.46.12-.92.24-1.39.35.57,3.01,1.15,6.02,1.72,9.03.48-.12.95-.25,1.43-.37,1.01-.27,1.74-.94,2.21-1.9Z"/>
      </g>
    </g>
  </g>
</svg>