<?xml version="1.0" encoding="UTF-8"?>
<svg id="Layer_2" data-name="Layer 2" xmlns="http://www.w3.org/2000/svg" xmlns:xlink="http://www.w3.org/1999/xlink" viewBox="0 0 451.99 452.11">
  <defs>
    <style>
      .cls-1 {
        fill: #a6ddff;
      }

      .cls-2 {
        stroke-dasharray: 1.93 1.93;
      }

      .cls-2, .cls-3, .cls-4, .cls-5, .cls-6, .cls-7, .cls-8, .cls-9, .cls-10, .cls-11, .cls-12, .cls-13, .cls-14, .cls-15 {
        fill: none;
        stroke-miterlimit: 10;
      }

      .cls-2, .cls-3, .cls-4, .cls-5, .cls-6, .cls-7, .cls-8, .cls-9, .cls-10, .cls-12, .cls-13, .cls-14, .cls-15 {
        stroke: #ffa93f;
        stroke-width: .26px;
      }

      .cls-3 {
        stroke-dasharray: 2.29 2.29;
      }

      .cls-16 {
        fill: #3f1a17;
      }

      .cls-17 {
        fill: #749ab2;
      }

      .cls-18 {
        fill: #ffa93f;
      }

      .cls-19 {
        fill: #fbab48;
      }

      .cls-20 {
        fill: #fefcfd;
      }

      .cls-4 {
        stroke-dasharray: 2.07 2.07;
      }

      .cls-21 {
        fill: #fac1b0;
      }

      .cls-22 {
        fill: url(#radial-gradient);
      }

      .cls-23 {
        fill: #ffffbd;
      }

      .cls-5 {
        stroke-dasharray: 1.93 1.93;
      }

      .cls-24 {
        fill: #cc8333;
      }

      .cls-25 {
        fill: #8fbdde;
      }

      .cls-7 {
        stroke-dasharray: 2.95 2.95;
      }

      .cls-8 {
        stroke-dasharray: 2.27 2.27;
      }

      .cls-26 {
        fill: #d8e9a2;
      }

      .cls-9 {
        stroke-dasharray: 2.59 2.59;
      }

      .cls-27 {
        fill: #2d1410;
      }

      .cls-10 {
        stroke-dasharray: 2.34 2.34;
      }

      .cls-28 {
        fill: #c9c2b6;
      }

      .cls-11 {
        stroke: #f4f4f4;
        stroke-width: .51px;
      }

      .cls-29 {
        fill: #ffc280;
      }

      .cls-30 {
        fill: #e8ddc5;
      }

      .cls-12 {
        stroke-dasharray: 1.61 1.61;
      }

      .cls-13 {
        stroke-dasharray: 2.19 2.19;
      }

      .cls-14 {
        stroke-dasharray: 2.64 2.64;
      }

      .cls-15 {
        stroke-dasharray: 2.28 2.28;
      }

      .cls-31 {
        fill: #fcf1d1;
      }
    </style>
    <radialGradient id="radial-gradient" cx="135.62" cy="162.63" fx="135.62" fy="162.63" r="109.17" gradientUnits="userSpaceOnUse">
      <stop offset="0" stop-color="#fff" stop-opacity="0"/>
      <stop offset=".86" stop-color="#848484" stop-opacity=".05"/>
      <stop offset="1" stop-color="#000" stop-opacity=".1"/>
    </radialGradient>
  </defs>
  <g id="Layer_1-2" data-name="Layer 1">
    <path class="cls-18" d="M211.67,397.89c1.79,1.64,4.55,3.92,8.25,6.08,5.37,3.14,9.71,4.27,13.3,5.43,4.83,1.56,11.58,4.23,19.53,9.08-.18,1.09-.29,2.92.69,4.56.56.92,1.97,1.71,4.76,3.26,3.47,1.91,5.23,2.87,6.55,3.01,1.81.19,3.32-.21,4.23-.53-.28.9-.88,3.22.2,5.5.88,1.85,2.42,2.72,4.48,3.87,1.72.96,3.83,2.15,6.84,2.44,5.14.5,9.05-1.97,10.95-3.18,1.43-.91,2.91-1.84,4.19-3.62.97-1.35.97-1.97,2.01-3.07,1.76-1.84,3.02-1.38,4.01-2.59,1.76-2.16.58-7.05-2.24-9.73-2.28-2.17-5.2-2.48-5.83-2.55-2.52-.27-2.99.65-6.38.39-.99-.08-4.57-.35-5.1-2.03-.14-.43.05-.54-.06-1.04-.3-1.24-1.76-1.67-3.91-2.67-3.49-1.63-3.3-2.2-5.29-2.65-2-.45-1.99.18-3.66-.33-2.47-.75-3.1-2.29-5.09-2.4-1.13-.06-2.06.38-2.61.69-1.92-.86-4.91-2.17-8.63-3.66-7.46-2.99-10.14-3.64-14.53-5.86-2.37-1.2-5.75-3.12-9.57-6.11-5.7,2.57-11.4,5.14-17.1,7.71Z"/>
    <path class="cls-23" d="M278.7,435.4c12.07,10.87,18.56,16.72,18.56,16.72,0,0,.02,0,.07-.03,1.92-.71,7.59-2.9,12.41-5.56,6.43-3.55,9.91-5.47,9.93-8.2,0-.78-.28-1.08-4.73-5.98-2.69-2.96-5.93-5.42-8.51-8.48-.42-.5-1.45-1.75-3.15-2.16-.69-.16-1.28-.14-1.63-.1.28.38.62.96.85,1.71.35,1.13.28,2.11.2,2.66,2.87,2.95,5.41,5.16,7.32,6.69,2.24,1.81,3.94,2.97,3.7,4.19-.19.95-1.42,1.3-3.99,2.46-2.5,1.13-4.49,2.23-5.85,3.03-3.04-3.33-6.08-6.66-9.12-9.99.28-2.24.38-6.04-1.88-8.11-.57-.52-1.84-1.45-2.25-1.12-.45.36.38,2.06.49,2.28.56,1.61,1.05,3.72,1.03,6.19,0,.65-.04,1.27-.11,1.85,2.89,3.26,5.79,6.51,8.68,9.77-1.72,1.77-3.19,2.13-4.13,2.17-2.46.12-2.83-1.88-9.17-7.06-2.97-2.43-4.86-3.6-5.26-5.97-.14-.81-.1-1.77-.65-2.01-.76-.33-2.28.88-2.82,2.33-.44,1.18-.15,2.27,0,2.71Z"/>
    <path class="cls-24" d="M270.05,424.24c.93-1.43,2.36-3.29,4.45-5.09,2.4-2.07,4.77-3.29,6.46-3.99.72.32,1.44.63,2.17.95-1.67.56-4.38,1.7-7.07,4.03-2.93,2.54-4.48,5.31-5.25,6.96-.25-.95-.51-1.9-.76-2.85Z"/>
    <ellipse class="cls-29" cx="280.32" cy="421.23" rx="3.44" ry="2.03" transform="translate(-173.06 196.59) rotate(-30)"/>
    <ellipse class="cls-29" cx="270.62" cy="414.81" rx="3.07" ry="1.71" transform="translate(-171.15 190.88) rotate(-30)"/>
    <path class="cls-25" d="M341.2,351.55c1.91,1.49,4.83,3.56,8.69,5.43,5.59,2.72,10,3.51,13.67,4.4,4.94,1.19,11.87,3.34,20.16,7.56-.09,1.1-.07,2.93,1.04,4.49.62.88,2.09,1.56,5,2.88,3.6,1.64,5.43,2.46,6.76,2.5,1.82.05,3.29-.46,4.18-.85-.21.92-.63,3.28.62,5.46,1.02,1.78,2.63,2.52,4.76,3.51,1.79.83,3.99,1.85,7.01,1.91,5.16.11,8.87-2.66,10.68-4,1.36-1.01,2.76-2.06,3.9-3.93.87-1.42.81-2.04,1.77-3.21,1.61-1.96,2.91-1.6,3.8-2.89,1.59-2.29.04-7.07-2.98-9.53-2.44-1.99-5.38-2.08-6.01-2.1-2.54-.08-2.93.88-6.33.88-.99,0-4.58,0-5.24-1.64-.17-.42.01-.54-.14-1.03-.39-1.21-1.88-1.53-4.1-2.36-3.6-1.36-3.46-1.94-5.48-2.23-2.03-.29-1.97.33-3.68-.04-2.52-.55-3.27-2.05-5.26-2.01-1.13.02-2.03.53-2.54.89-1.98-.71-5.06-1.79-8.88-2.99-7.66-2.42-10.39-2.85-14.94-4.73-2.45-1.02-5.97-2.68-10-5.36-5.49,3-10.97,5.99-16.46,8.99Z"/>
    <path class="cls-23" d="M410.9,383.82c12.87,9.92,19.78,15.25,19.78,15.25,0,0,.02-.01.07-.03,1.86-.86,7.34-3.47,11.95-6.5,6.14-4.03,9.46-6.21,9.28-8.93-.05-.78-.36-1.05-5.17-5.6-2.91-2.75-6.33-4.95-9.14-7.81-.46-.46-1.58-1.64-3.31-1.91-.7-.11-1.28-.04-1.64.02.3.36.69.91.98,1.64.44,1.1.44,2.08.41,2.64,3.08,2.73,5.79,4.73,7.81,6.11,2.37,1.63,4.15,2.66,4.01,3.9-.11.96-1.32,1.4-3.79,2.75-2.41,1.32-4.31,2.56-5.6,3.46-3.28-3.09-6.57-6.17-9.85-9.26.1-2.25-.08-6.05-2.49-7.94-.6-.47-1.95-1.3-2.33-.94-.42.39.54,2.03.66,2.24.68,1.56,1.33,3.63,1.5,6.09.04.65.05,1.27.03,1.85,3.13,3.03,6.27,6.05,9.4,9.08-1.58,1.89-3.02,2.37-3.95,2.48-2.44.31-2.96-1.66-9.68-6.34-3.15-2.19-5.13-3.22-5.7-5.55-.2-.8-.23-1.76-.8-1.95-.79-.27-2.21,1.05-2.64,2.54-.35,1.21.03,2.28.21,2.71Z"/>
    <path class="cls-17" d="M401.42,373.36c.82-1.49,2.1-3.46,4.05-5.42,2.24-2.25,4.51-3.64,6.14-4.47.74.26,1.49.52,2.23.78-1.63.68-4.24,2.03-6.74,4.56-2.72,2.75-4.06,5.64-4.7,7.34-.33-.93-.65-1.86-.98-2.78Z"/>
    <ellipse class="cls-1" cx="411.43" cy="369.57" rx="3.44" ry="2.03" transform="translate(-136.82 296.9) rotate(-34.38)"/>
    <ellipse class="cls-1" cx="401.27" cy="363.91" rx="3.07" ry="1.71" transform="translate(-135.4 290.17) rotate(-34.38)"/>
    <polygon class="cls-20" points="34.28 285.1 38.6 350.45 159.3 431.24 420.05 332.84 420.16 269.34 156.38 343.97 34.28 285.1"/>
    <path class="cls-18" d="M190.48,381.96l-.52-21.2c-.1-3.95,2.47-7.47,6.25-8.58l31.87-9.4c5.59-1.65,11.19,2.54,11.19,8.37v20.44c0,3.78-2.44,7.13-6.03,8.3l-31.35,10.17c-5.55,1.8-11.27-2.25-11.41-8.08Z"/>
    <polygon class="cls-31" points="43.14 281.88 155.4 333.14 407.17 264.68 272.53 239.05 43.14 281.88"/>
    <polygon class="cls-28" points="43.14 281.88 34.21 285.07 156.38 343.97 420.16 269.34 407.17 264.68 155.4 333.14 43.14 281.88"/>
    <path class="cls-18" d="M114.48,2.04c-.65-1.2-2.11-1.54-3.26-1.81-4.47-1.05-7.93,1.73-15.21,5.42-6.23,3.16-5.38,1.98-10.19,4.56-3.02,1.62-9.03,4.85-14.45,10.3-5.38,5.42-7.79,10.78-10.72,16.88-5.24,10.91-7.19,20.85-7.98,27.6l24.52,2.74c.83-4.54,2.19-10.85,4.45-18.25,2.46-8.07,3.69-12.11,5.93-15.64.95-1.51,1.86-2.68,2.79-3.69,6.05-6.58,9.42-7.97,15.23-13.51,1.6-1.52,11.09-10.58,8.9-14.6ZM75.9,42.28c-.21,1.57-1.85,3.24-3.66,2.92-1.69-.3-2.44-2.13-2.54-3.31-.03-.36-.12-1.45.63-2.28.86-.96,2.17-.86,2.49-.84.16.01,1.89.17,2.71,1.67.17.31.48,1,.37,1.84ZM81.59,29.15c-.16,1.22-1.46,2.34-2.42,2.02-.76-.25-1.16-1.36-1-2.22.22-1.19,1.54-2.19,2.48-1.83.72.27,1.04,1.27.94,2.04ZM91.51,19.2c-.29.77-1.08,1.75-1.79,1.56-.54-.15-.89-.93-.8-1.56.17-1.24,2.05-1.98,2.59-1.56.44.34.03,1.48,0,1.56Z"/>
    <path class="cls-25" d="M228.23,9.13c-2.53-2.03-6.39-.89-9.88.15-4.67,1.39-7.57,3.58-11.63,4.94-.31.1-1.34.44-2.68,1.01,0,0-1.56.67-3.12,1.52-6.83,3.74-12.98,10.78-12.98,10.78-1.98,2.27-6.55,7.8-11.25,17.33-2.99,6.07-6.67,15.05-8.91,26.67l24.52,2.74c.57-3.8,1.51-10.07,2.79-18.15,1.07-6.74,1.65-10.2,3.96-14.14,1.33-2.26,3.01-3.99,6.38-7.45,5.4-5.55,8.71-8.96,13.84-12.32,6.55-4.29,10.6-4.94,11.03-8.26.24-1.87-.78-3.79-2.06-4.82ZM188.57,49.89c-.5.79-1.53,1.32-2.51,1.07-1.57-.39-1.73-2.44-1.74-2.55-.01-.22-.1-1.55.8-2.12.57-.36,1.22-.23,1.5-.17,1.02.21,2.16,1.06,2.29,2.29.02.17.07.83-.34,1.48ZM196.33,35.31c-.49,1.63-2.33,2.89-3.24,2.43-.71-.36-.8-1.73-.55-2.65.45-1.68,2.31-3.03,3.24-2.58.73.35.86,1.8.56,2.8ZM208.55,23.99c-.8,1.42-2.91,2.03-3.59,1.37-.51-.49-.21-1.66.17-2.34.77-1.37,2.68-2.2,3.44-1.6.58.46.45,1.75-.02,2.57Z"/>
    <polygon class="cls-16" points="43.14 281.88 30.97 267.28 254.84 230.59 272.53 239.05 43.14 281.88"/>
    <polygon class="cls-20" points="17.34 49.89 3.33 55.26 15.8 269.17 34.21 285.07 43.14 281.88 30.97 267.28 17.34 49.89"/>
    <polygon class="cls-28" points="397.93 267.2 273.71 241.95 49.96 284.99 43.14 281.88 272.53 239.05 407.17 264.68 397.93 267.2"/>
    <polygon class="cls-16" points="17.88 58.52 253.91 67.02 253.87 58.98 17.34 49.89 17.88 58.52"/>
    <polygon class="cls-16" points="249.67 231.5 248.14 66.81 253.91 67.02 254.84 230.84 249.67 231.5"/>
    <polygon class="cls-31" points="21.58 58.57 34.51 266.7 249.67 231.5 248.14 66.81 21.58 58.57"/>
    <path class="cls-18" d="M360.7,334.15c.12,1.29-.68,2.61-1.82,2.97-1.16.36-2.22-.41-2.35-1.75-.13-1.33.72-2.68,1.89-3,1.14-.31,2.15.49,2.27,1.78Z"/>
    <path class="cls-18" d="M372.16,330.79c.1,1.16-.56,2.33-1.47,2.62-.93.29-1.79-.44-1.89-1.63-.1-1.2.59-2.39,1.53-2.65.92-.25,1.74.49,1.84,1.66Z"/>
    <polygon class="cls-16" points="21.58 58.57 34.51 266.7 30.97 267.28 17.88 58.52 21.58 58.57"/>
    <polygon points="261.4 233.73 259.6 59.76 253.87 58.98 254.84 230.84 261.4 233.73"/>
    <polygon points="260.92 226.45 272.53 239.05 261.4 233.73 260.92 226.45"/>
    <path class="cls-26" d="M291.34,343.08c8.77-4.11,19.1-8.3,30.89-11.92,11.1-3.41,21.4-5.68,30.52-7.2v13.23c-7.41,4.07-16.42,8.33-26.96,11.99-13.06,4.54-24.96,6.93-34.74,8.21.1-4.77.19-9.54.29-14.32Z"/>
    <path class="cls-26" d="M336.06,325.56v-3.92l1.88-1.32c.85-.6,1.35-1.58,1.34-2.62l-.03-2.6c1.19-.44,12.33-4.36,19.42,1.68.95.81,2,1.95,2.92,3.55-.65,1.73-1.59,3.8-2.97,6-1.65,2.63-3.44,4.64-4.93,6.09-.05-3.27-.1-6.54-.15-9.81l-17.49,2.96Z"/>
    <path class="cls-26" d="M284.25,338.52l-4.5.45-.51-5.09c-3.67,1.11-10.06,3.59-16.13,9.23-4.26,3.96-6.88,8.09-8.43,11.05,1.27,1.39,2.57,2.44,3.78,3.23,8.7,5.72,19.3,2.73,22.09,1.85-.27-1.82-.53-3.63-.8-5.45l5.45-1.16-.95-14.11Z"/>
    <polygon class="cls-18" points="340.97 319.79 341.71 319.01 348.18 322.03 345.97 322.16 340.97 319.79"/>
    <polygon class="cls-18" points="290.92 342.91 282.03 339.2 284 338.81 292.27 342.37 290.92 342.91"/>
    <polygon class="cls-18" points="285.12 353.7 282.74 353.7 290.17 357.12 290.59 356.17 285.12 353.7"/>
    <path class="cls-18" d="M380.94,293.39l18.89-5.3c5.56-1.56,11.08,2.62,11.08,8.4v18.33c0,3.74-2.38,7.06-5.92,8.26l-18.89,6.41c-5.66,1.92-11.53-2.29-11.53-8.26v-19.44c0-3.91,2.6-7.35,6.37-8.4Z"/>
    <path class="cls-26" d="M132.13,418.88c2.03,2.44,10.89,12.58,26,14.44,19.92,2.45,33.4-11.62,34.78-13.12.13-1.93.58-11.39-6.26-18.77-6.84-7.39-18.22-9.73-28.64-5.78-7.98-3.83-17.35-1.99-22.75,4.21-4.42,5.08-5.59,12.42-3.13,19.02Z"/>
    <path class="cls-25" d="M37.39,334.34c-.12.02-.46.11-.75.43-.31.35-.34.74-.34.85.23,2.43.44,4.53.6,6.19.67,6.78.74,7.31,1.18,8.28,2.16,4.79,7.1,6.55,7.57,6.71,1.27.43,2.57.52,3.37.57-.29-.16-2.83-2.02-3.96-3.12-1.02-.99-1.08-1.93-2.11-5.07-2.09-6.37-3.15-9.57-3.89-10.54-.22-.29-.98-1.24-1.4-2.69-.19-.66-.25-1.23-.27-1.61Z"/>
    <path class="cls-27" d="M406.03,338.02c2.47-.01,4.5-.38,5.91-.74,1.71-.44,4.06-1.06,6.47-2.87.67-.51,1.01-.76,1.37-1.18,1.56-1.83,1.05-3.57,1.45-7.68.42-4.39,1.39-6.45.17-7.55-.34-.31-1.16-.75-1.46-.54-.27.18.15.78-.14,1.65-.46,1.36-1.21,1.92-2.13,2.82-1.72,1.67-4.78,5.95-6.32,10.6-.49,1.48-.53,3.19-2.07,4-1.42.75-2.38,1.15-3.26,1.49Z"/>
    <path class="cls-20" d="M173.13,402.86c-.28,2.31-2.34,4.18-4.59,4.18s-3.84-1.87-3.56-4.18c.28-2.31,2.34-4.18,4.59-4.18s3.84,1.87,3.56,4.18Z"/>
    <path class="cls-20" d="M415.95,331.86c.08.85-.29,1.66-.82,1.8s-1.02-.44-1.1-1.29.29-1.66.82-1.8,1.02.44,1.1,1.29Z"/>
    <path class="cls-20" d="M420.15,324.26c.04.67-.3,1.28-.76,1.38s-.86-.38-.89-1.04.3-1.28.76-1.38.86.38.89,1.04Z"/>
    <path class="cls-20" d="M142.44,415.81c.3,2.31-1.27,4.18-3.52,4.18s-4.32-1.87-4.62-4.18c-.3-2.31,1.27-4.18,3.52-4.18,2.25,0,4.32,1.87,4.62,4.18Z"/>
    <path class="cls-20" d="M40.61,347.74c0,.99-.49,1.55-1.12,1.25s-1.15-1.33-1.16-2.32.49-1.55,1.12-1.25,1.15,1.33,1.16,2.32Z"/>
    <path class="cls-20" d="M186.6,417.81c-.23,1.85-1.87,3.34-3.67,3.34s-3.07-1.5-2.85-3.34,1.87-3.34,3.67-3.34,3.07,1.5,2.85,3.34Z"/>
    <polygon class="cls-22" points="21.58 58.57 34.51 266.7 249.67 231.5 248.14 66.81 21.58 58.57"/>
    <path class="cls-30" d="M119.83,316.9l167-42.37c7.79-1.98,15.96-1.95,23.74.09l30.59,8.02-185.75,50.51-35.57-16.24Z"/>
    <path d="M17.4,50.82c73.25,2.59,146.99,5.24,220.26,7.54.35.01,5.93.19,6.29.2.88-.19,1.76-.37,2.63-.56L17.88,49.89l-.48.93Z"/>
    <path class="cls-21" d="M43.14,281.88c-8.37-1.66-12.47-4.98-14.5-8.41-1.97-3.33-1.19-4.6-2.69-14.45-.71-4.67-1.76-11.06-6.01-16.69-2.31-3.05-4.89-4.99-6.65-6.13.2,3.83.29,6.95.33,9.07.17,8.4-.17,11.35.57,16.75.41,3,.75,5.47,1.6,7.8,3.15,8.63,12.51,13.14,18.42,15.25,1.05-.35,2.11-.72,3.17-1.09,1.96-.69,3.88-1.39,5.75-2.1Z"/>
    <path class="cls-20" d="M27.97,277.8c.01,1.53-.77,2.41-1.74,1.95s-1.78-2.07-1.8-3.61.77-2.41,1.74-1.95,1.78,2.07,1.8,3.61Z"/>
    <path class="cls-27" d="M2.53,88.76c2.18-.72,3.73-1.77,4.85-2.89,4.37-4.34,4.33-11.65,4.16-21.85-.11-6.78-.7-8,.46-9.83,3.07-4.81,12.44-3.91,20.06-3.81-4.12-1.51-13.93-3.82-23.53.22-2.44,1.03-5.32,2.28-7.14,5.24-2.4,3.89-1.21,7.84-.14,16.15.5,3.89,1.09,9.61,1.27,16.76Z"/>
    <path class="cls-20" d="M18.53,247.48c.01,1.27-.63,1.99-1.44,1.61s-1.47-1.71-1.48-2.98.63-1.99,1.44-1.61,1.47,1.71,1.48,2.98Z"/>
    <path class="cls-20" d="M9.21,59.39c-.4,1.52-1.41,2.38-2.26,1.93s-1.2-2.05-.8-3.57,1.41-2.38,2.26-1.93,1.2,2.05.8,3.57Z"/>
    <path class="cls-20" d="M6.79,80.54c-.3,1.11-1.04,1.75-1.65,1.42s-.88-1.51-.59-2.62,1.04-1.75,1.65-1.42.88,1.51.59,2.62Z"/>
    <path class="cls-18" d="M49.63,351.64c.02,1.02-.24,1.64-.58,1.41s-.63-1.21-.65-2.21.22-1.66.56-1.45.65,1.23.67,2.25Z"/>
    <path class="cls-18" d="M52.14,353.27c.01,1.06-.29,1.7-.66,1.44s-.68-1.29-.69-2.32.27-1.72.65-1.49.7,1.3.71,2.37Z"/>
    <path class="cls-18" d="M54.91,355.06c0,1.1-.35,1.76-.76,1.47s-.74-1.37-.74-2.45c0-1.09.33-1.78.74-1.53s.76,1.38.76,2.5Z"/>
    <path class="cls-18" d="M57.98,357.06c-.02,1.15-.42,1.82-.88,1.5s-.8-1.46-.79-2.59c.01-1.14.39-1.85.85-1.56s.84,1.48.81,2.64Z"/>
    <path class="cls-18" d="M61.41,359.28c-.05,1.2-.5,1.88-1.02,1.53s-.88-1.56-.85-2.74.47-1.91.99-1.6.92,1.59.87,2.81Z"/>
    <path class="cls-18" d="M65.26,361.78c-.07,1.26-.61,1.95-1.18,1.55s-.97-1.68-.91-2.91.57-1.99,1.15-1.63,1.02,1.71.95,2.99Z"/>
    <path class="cls-18" d="M69.61,364.6c-.11,1.32-.73,2.02-1.39,1.57s-1.08-1.82-.99-3.11.69-2.06,1.35-1.66,1.14,1.86,1.03,3.2Z"/>
    <path class="cls-18" d="M74.58,367.83c-.15,1.39-.89,2.09-1.64,1.58s-1.21-1.98-1.08-3.34c.13-1.38.84-2.14,1.59-1.68s1.28,2.02,1.12,3.44Z"/>
    <path class="cls-18" d="M80.3,371.54c-.21,1.47-1.09,2.16-1.95,1.57-.84-.58-1.37-2.17-1.19-3.6.18-1.45,1.02-2.22,1.9-1.68s1.45,2.23,1.24,3.72Z"/>
    <path class="cls-18" d="M86.96,375.86c-.29,1.55-1.34,2.22-2.34,1.53s-1.56-2.4-1.32-3.91,1.26-2.3,2.28-1.67,1.67,2.47,1.38,4.04Z"/>
    <path class="cls-18" d="M94.81,380.95c-.38,1.64-1.67,2.27-2.85,1.47s-1.8-2.68-1.47-4.27,1.57-2.37,2.77-1.63,1.94,2.77,1.55,4.44Z"/>
    <path class="cls-18" d="M104.19,387.03c-.52,1.73-2.11,2.31-3.52,1.34s-2.11-3.03-1.67-4.71c.45-1.72,1.97-2.43,3.42-1.54,1.49.91,2.3,3.14,1.77,4.91Z"/>
    <path class="cls-18" d="M115.6,394.44c-.7,1.84-2.7,2.31-4.42,1.13s-2.52-3.46-1.92-5.24,2.52-2.47,4.29-1.38c1.83,1.12,2.77,3.62,2.05,5.49Z"/>
    <path class="cls-18" d="M129.79,403.64c-.97,1.94-3.54,2.24-5.68.78-2.08-1.42-3.06-4.03-2.24-5.92s3.28-2.46,5.51-1.1c2.31,1.41,3.41,4.25,2.42,6.24Z"/>
    <path class="cls-18" d="M149.95,385.51c-.6,1.72-2.09,1.9-3.3.52s-1.68-3.64-1.22-5.32,1.88-2.24,3.17-.98c1.36,1.33,1.98,3.97,1.35,5.78Z"/>
    <path class="cls-18" d="M150.31,372.64c-.63,1.91-2.17,2.26-3.42.92-1.19-1.27-1.74-3.7-1.26-5.54s1.95-2.6,3.29-1.4c1.41,1.26,2.05,4.02,1.39,6.02Z"/>
    <path class="cls-18" d="M150.69,358.85c-.65,2.11-2.26,2.66-3.55,1.38-1.23-1.22-1.8-3.75-1.31-5.77s2.03-3.01,3.42-1.89c1.46,1.19,2.13,4.07,1.44,6.28Z"/>
    <path class="cls-18" d="M41.42,324.86c-.24,1.81-1.17,2.38-2.02,1.32s-1.28-3.15-1.07-4.83c.22-1.69,1.05-2.38,1.9-1.51.89.92,1.44,3.19,1.19,5.01Z"/>
    <path class="cls-18" d="M40.77,313.67c-.24,1.6-1.1,2.11-1.91,1.18s-1.2-2.77-.99-4.26,1-2.12,1.79-1.35,1.34,2.81,1.11,4.43Z"/>
    <path class="cls-18" d="M40.2,303.76c-.23,1.43-1.05,1.88-1.8,1.07s-1.12-2.46-.93-3.79.95-1.9,1.69-1.22,1.26,2.5,1.03,3.94Z"/>
    <line class="cls-11" x1="44.64" y1="343.04" x2="133.6" y2="397.93"/>
    <path class="cls-18" d="M248.28,371.51c.12,1.29-.68,2.61-1.82,2.97-1.16.36-2.22-.41-2.35-1.75-.13-1.33.72-2.68,1.89-3,1.14-.31,2.15.49,2.27,1.78Z"/>
    <path class="cls-18" d="M259.74,368.15c.1,1.16-.56,2.33-1.47,2.62-.93.29-1.79-.44-1.89-1.63-.1-1.2.59-2.39,1.53-2.65.92-.25,1.74.49,1.84,1.66Z"/>
    <ellipse class="cls-29" cx="207" cy="369.67" rx="9.58" ry="7.58" transform="translate(-182.02 537.49) rotate(-84.09)"/>
    <polygon class="cls-24" points="224.59 354.55 225.42 373.79 229.61 372.57 228.85 353.64 224.59 354.55"/>
    <ellipse class="cls-29" cx="400.26" cy="307.85" rx="9.58" ry="7.58" transform="translate(52.82 674.28) rotate(-84.09)"/>
    <polygon class="cls-24" points="384.45 301.53 384.16 320.78 388.41 319.81 388.75 300.87 384.45 301.53"/>
    <g>
      <path class="cls-6" d="M292.59,344.83c.01-.43.03-.86.03-1.28.38-.18.77-.36,1.16-.54"/>
      <path class="cls-9" d="M296.15,341.95c7.45-3.27,17.13-6.93,26.04-9.66,8.8-2.7,19.32-5.14,27.2-6.58"/>
      <path class="cls-6" d="M350.66,325.48c.43-.08.85-.15,1.26-.22v1.28"/>
      <path class="cls-7" d="M351.93,329.49v4.42"/>
      <path class="cls-6" d="M351.93,335.38v1.28c-.36.2-.74.4-1.13.61"/>
      <path class="cls-14" d="M348.45,338.48c-6.5,3.25-15.33,6.98-23.12,9.69-10.42,3.62-22.14,6.56-30.67,7.93"/>
      <path class="cls-6" d="M293.36,356.3c-.43.06-.86.12-1.27.18,0-.42.02-.85.03-1.28"/>
      <path class="cls-4" d="M292.21,353.12c.11-2.41.25-4.86.35-7.25"/>
    </g>
    <g>
      <polyline class="cls-6" points="281.94 341.57 281.87 340.51 280.8 340.61"/>
      <polyline class="cls-6" points="279.18 340.77 278.11 340.88 278.01 339.82"/>
      <path class="cls-6" d="M277.8,337.71l-.11-1.06c-.31.1-.65.2-1.01.32"/>
      <path class="cls-15" d="M274.54,337.76c-2.96,1.22-6.69,3.23-10.29,6.57-2.7,2.51-4.61,5.1-5.94,7.28"/>
      <path class="cls-6" d="M257.73,352.6c-.18.32-.35.64-.51.94.25.27.5.53.75.77"/>
      <path class="cls-10" d="M259.77,355.81c.2.15.41.29.6.42,5.78,3.8,12.56,2.99,16.26,2.13"/>
      <path class="cls-6" d="M277.76,358.07c.41-.11.76-.22,1.02-.3-.05-.35-.1-.71-.16-1.06"/>
      <path class="cls-6" d="M278.27,354.29c-.05-.35-.1-.71-.16-1.06l1.05-.22"/>
      <polyline class="cls-6" points="281.61 352.49 282.65 352.26 282.58 351.2"/>
      <line class="cls-2" x1="282.45" y1="349.27" x2="282" y2="342.53"/>
    </g>
    <g>
      <polyline class="cls-6" points="338.27 324.45 337.14 324.65 337.23 323.5"/>
      <polyline class="cls-6" points="337.28 322.92 337.37 321.77 338.31 321.11"/>
      <path class="cls-12" d="M339.58,320.11c.44-.52.69-1.18.68-1.88v-.38"/>
      <path class="cls-6" d="M340.25,317.05v-1.15c.15-.06.53-.2,1.08-.36"/>
      <path class="cls-8" d="M343.52,314.97c3.73-.8,9.79-1.27,14.15,2.44.45.38,1.03.84,1.61,1.4"/>
      <path class="cls-6" d="M360.05,319.65c.24.29.46.61.66.95-.13.34-.28.69-.47,1.05"/>
      <path class="cls-5" d="M359.3,323.33c-.51.85-1.09,1.74-1.67,2.65-.86,1.37-1.33,2.33-1.83,3.15"/>
      <path class="cls-6" d="M355.25,329.93c-.22.29-.47.57-.76.86,0-.38,0-.76-.01-1.15"/>
      <path class="cls-3" d="M354.49,327.35c0-1.14.02-2.3.03-3.43"/>
      <path class="cls-6" d="M354.51,322.77c0-.39,0-.77-.01-1.15l-1.13.2"/>
      <line class="cls-13" x1="351.21" y1="322.2" x2="339.35" y2="324.26"/>
    </g>
    <path class="cls-27" d="M78.73,290.58c1.54-4.84,2.76-11.45-.55-16.24-4.05-5.86-12.32-5.28-12.26-7.4.07-2.47,11.3-5.6,21.77-2.87,2.8.73,5.75,1.5,8.35,4,6.72,6.47,4.1,17.67,3.8,18.87l-21.1,3.65Z"/>
    <path class="cls-27" d="M235.51,260.9c1.31-4.1,2.34-9.72-.47-13.78-3.44-4.97-10.46-4.48-10.41-6.28.06-2.09,9.59-4.75,18.47-2.44,2.38.62,4.88,1.27,7.09,3.4,5.71,5.49,3.48,14.99,3.22,16.01l-17.91,3.09Z"/>
    <ellipse class="cls-29" cx="75.06" cy="267.19" rx="2.17" ry=".86"/>
    <ellipse class="cls-29" cx="82.89" cy="265.54" rx="2.17" ry=".86"/>
    <ellipse class="cls-29" cx="231.7" cy="240.73" rx="1.89" ry=".74"/>
    <ellipse class="cls-29" cx="238.52" cy="239.29" rx="1.89" ry=".74"/>
    <path class="cls-21" d="M237.66,58.37s2.17-.02,5.19-.2c1.93-.11,2.53-.18,4.35-.37,6.37-.65,9.61-.94,11.91,1.08.67.59,1.05,1.17,1.26,1.5,2.4,3.74-.25,8.43-.66,9.54-1.97,0,.36-2.71-.37-5.02-.24-.74.33-2.26-.04-2.87-1.31-2.13-5.25-2.66-11.91-3.21-.78-.06-2.68-.19-5.02-.29-2.71-.11-4.7-.12-4.7-.17Z"/>
    <g>
      <g>
        <g>
          <g>
            <path class="cls-25" d="M66.51,119.07c2.29-.45,4.58-.87,6.87-1.27-1.5,1.85-2.97,3.71-4.42,5.58,1.31,2.32,2.59,4.64,3.86,6.97-2.16-1.17-4.34-2.33-6.54-3.46-1.44,1.92-2.86,3.84-4.25,5.78.02-2.62.05-5.25.09-7.87-2.28-1.13-4.58-2.24-6.91-3.32,2.33-.54,4.67-1.05,7.01-1.53.06-2.61.13-5.22.22-7.84,1.37,2.32,2.73,4.64,4.07,6.97Z"/>
            <path class="cls-18" d="M108.82,113.44c2.1-.15,4.21-.28,6.31-.4-1.54,1.58-3.06,3.17-4.56,4.76.93,2.35,1.84,4.7,2.74,7.05-1.82-1.37-3.66-2.72-5.53-4.05-1.5,1.64-2.98,3.29-4.43,4.95.3-2.48.6-4.95.92-7.43-1.93-1.34-3.88-2.67-5.85-3.98,2.15-.22,4.3-.42,6.45-.6.33-2.46.67-4.92,1.03-7.38.99,2.36,1.96,4.71,2.92,7.08Z"/>
            <path class="cls-26" d="M147.58,112.78c1.92.07,3.84.16,5.76.27-1.56,1.34-3.1,2.7-4.62,4.06.61,2.33,1.2,4.65,1.78,6.98-1.51-1.48-3.05-2.96-4.6-4.42-1.53,1.4-3.03,2.81-4.52,4.23.52-2.32,1.05-4.64,1.59-6.96-1.61-1.48-3.24-2.94-4.89-4.4,1.97.02,3.93.06,5.9.12.55-2.3,1.11-4.61,1.68-6.91.65,2.34,1.3,4.68,1.92,7.03Z"/>
            <path class="cls-21" d="M182.91,115.92c1.75.24,3.5.5,5.24.77-1.55,1.14-3.09,2.29-4.62,3.46.33,2.27.64,4.54.94,6.82-1.24-1.55-2.5-3.09-3.78-4.63-1.53,1.19-3.05,2.4-4.55,3.61.7-2.16,1.42-4.32,2.14-6.48-1.32-1.56-2.67-3.1-4.03-4.64,1.79.21,3.58.42,5.37.66.73-2.14,1.46-4.28,2.21-6.42.37,2.29.73,4.58,1.07,6.87Z"/>
            <path class="cls-25" d="M215.01,121.93c1.59.37,3.17.76,4.76,1.16-1.54.97-3.06,1.94-4.58,2.93.09,2.19.17,4.39.24,6.58-1-1.58-2.02-3.15-3.05-4.73-1.52,1.01-3.03,2.04-4.53,3.07.85-2,1.71-4.01,2.58-6-1.07-1.59-2.16-3.18-3.26-4.76,1.63.34,3.25.7,4.88,1.07.87-1.99,1.75-3.97,2.64-5.95.12,2.21.24,4.43.34,6.64Z"/>
          </g>
          <g>
            <path class="cls-26" d="M68.82,200.83c2.33.3,4.66.59,7,.84-2.1,1.33-4.22,2.64-6.36,3.94.35,2.57.72,5.14,1.1,7.71-1.74-1.76-3.45-3.53-5.14-5.31-2.22,1.29-4.46,2.57-6.72,3.82,1.21-2.39,2.4-4.78,3.58-7.17-1.69-1.83-3.36-3.68-5-5.53,2.39.39,4.78.76,7.17,1.1,1.16-2.39,2.3-4.78,3.44-7.17.3,2.59.61,5.18.94,7.77Z"/>
            <path class="cls-19" d="M111.63,203.79c2.11.02,4.22.02,6.33,0-1.74,1.5-3.49,2.99-5.27,4.46.58,2.39,1.17,4.78,1.78,7.17-1.73-1.46-3.44-2.94-5.13-4.43-1.84,1.48-3.7,2.95-5.59,4.41.83-2.4,1.64-4.8,2.45-7.21-1.7-1.53-3.37-3.08-5.03-4.64,2.17.08,4.33.14,6.5.19.78-2.39,1.56-4.79,2.32-7.19.53,2.42,1.08,4.83,1.65,7.24Z"/>
            <path class="cls-25" d="M150.3,201.97c1.9-.2,3.81-.41,5.7-.63-1.41,1.6-2.85,3.18-4.3,4.76.76,2.22,1.53,4.43,2.32,6.64-1.71-1.22-3.39-2.45-5.06-3.7-1.5,1.59-3.03,3.18-4.57,4.76.5-2.37.99-4.73,1.47-7.1-1.68-1.28-3.34-2.58-4.99-3.89,1.96-.15,3.91-.31,5.86-.49.46-2.35.92-4.71,1.36-7.07.72,2.24,1.46,4.48,2.21,6.72Z"/>
            <path class="cls-26" d="M185.08,196.6c1.71-.35,3.42-.72,5.12-1.1-1.13,1.64-2.28,3.28-3.45,4.91.91,2.05,1.82,4.09,2.75,6.13-1.67-1.02-3.32-2.04-4.96-3.08-1.21,1.65-2.44,3.3-3.68,4.93.22-2.3.43-4.59.64-6.89-1.65-1.07-3.28-2.16-4.9-3.25,1.76-.32,3.51-.65,5.26-.99.19-2.28.37-4.57.54-6.85.88,2.07,1.76,4.14,2.66,6.21Z"/>
            <path class="cls-21" d="M216.28,188.62c1.53-.47,3.06-.95,4.59-1.44-.88,1.65-1.78,3.3-2.7,4.95,1.02,1.88,2.05,3.76,3.1,5.63-1.62-.84-3.23-1.7-4.83-2.56-.95,1.67-1.92,3.33-2.9,4.99-.02-2.21-.04-4.42-.07-6.62-1.61-.89-3.2-1.8-4.79-2.72,1.58-.44,3.15-.9,4.72-1.36-.04-2.19-.09-4.39-.15-6.58,1,1.91,2.01,3.81,3.02,5.71Z"/>
          </g>
        </g>
        <polygon class="cls-26" points="50.84 163.01 57.78 162.76 52.38 167.74 54.87 175.37 49.01 170.85 43.51 175.94 45.36 168.03 39.38 163.42 46.5 163.16 48.33 155.31 50.84 163.01"/>
        <polygon class="cls-21" points="227.37 156.63 231.87 156.46 228.37 160.44 229.97 166.6 226.19 162.92 222.63 166.96 223.83 160.63 219.98 156.89 224.57 156.73 225.76 150.43 227.37 156.63"/>
      </g>
      <g>
        <g>
          <path class="cls-27" d="M81.81,144.63c1.88-.44,3.76-.85,5.65-1.25.6,2.53,1.21,5.05,1.8,7.58-1.04.97-2.58,1.82-4.2,2.2-4.48,1.07-8.39-1.47-9.72-6.01-1.35-4.61.94-8.9,5.54-9.92,1.69-.37,3.34-.23,4.67.22.34,1.4.68,2.79,1.01,4.19-1.42-.58-3.09-.87-4.5-.55-2.49.56-3.5,2.73-2.86,5.08.63,2.31,2.55,3.81,4.92,3.26.33-.08.7-.21.94-.35-.14-.54-.27-1.08-.41-1.62-.66.15-1.33.31-1.99.46-.28-1.09-.57-2.18-.85-3.27Z"/>
          <path class="cls-27" d="M87.73,136.05c2.96-.58,5.93-1.12,8.9-1.61.25,1.23.5,2.47.74,3.7-1.66.28-3.32.57-4.97.88.16.72.32,1.45.48,2.17,1.39-.26,2.78-.52,4.18-.76.24,1.16.47,2.33.7,3.49-1.38.24-2.75.5-4.12.76.17.78.34,1.56.51,2.34,1.68-.33,3.35-.64,5.03-.94.24,1.23.48,2.47.73,3.7-2.87.52-5.74,1.08-8.6,1.69-1.18-5.15-2.38-10.3-3.58-15.45Z"/>
          <path class="cls-27" d="M102.65,137.3c-1.41.21-2.82.43-4.22.66-.24-1.23-.49-2.47-.73-3.7,4.09-.66,8.2-1.23,12.31-1.71.19,1.23.37,2.45.56,3.68-1.39.17-2.78.35-4.16.54.65,3.88,1.29,7.77,1.92,11.65-1.2.18-2.4.36-3.59.56-.69-3.89-1.39-7.78-2.09-11.67Z"/>
          <path class="cls-27" d="M121.85,150.12c-2.99.31-5.97.67-8.95,1.08-.09-.61-.18-1.21-.27-1.82,3-.41,6-.76,9.01-1.07.07.6.14,1.2.2,1.8Z"/>
          <path class="cls-27" d="M120.73,131.49c1.15-.09,2.29-.18,3.44-.26,1.32,1.74,2.62,3.5,3.89,5.26.79,1.08,1.48,2.07,2.18,3.12.01,0,.02,0,.03,0-.12-1.29-.25-2.58-.35-3.85-.13-1.61-.27-3.23-.4-4.84,1.16-.06,2.31-.11,3.47-.15.36,5.01.71,10.03,1.05,15.04-1.07.06-2.13.12-3.2.19-1.21-1.76-2.45-3.5-3.71-5.24-.79-1.08-1.49-2.06-2.22-3.1-.01,0-.02,0-.03,0,.15,1.3.29,2.59.42,3.87.16,1.62.32,3.24.48,4.85-1.11.09-2.23.2-3.34.3-.56-5.07-1.13-10.13-1.71-15.19Z"/>
          <path class="cls-27" d="M134.97,130.7c2.71-.09,5.42-.13,8.13-.14.04,1.19.09,2.39.13,3.58-1.51.01-3.03.03-4.54.07.04.7.07,1.41.11,2.11,1.27-.03,2.55-.06,3.82-.07.04,1.13.08,2.25.12,3.38-1.26.02-2.52.05-3.77.08.04.76.08,1.52.11,2.27,1.54-.05,3.07-.08,4.61-.11.04,1.19.08,2.39.11,3.58-2.63.05-5.27.14-7.9.26-.3-5.01-.62-10.01-.94-15.02Z"/>
          <path class="cls-27" d="M148.07,137.71c-1.32-2.39-2.67-4.78-4.05-7.15,1.37,0,2.74,0,4.1.03.33.62.65,1.24.97,1.86.4.78.77,1.54,1.15,2.33.01,0,.02,0,.03,0,.34-.75.7-1.5,1.07-2.27.3-.61.6-1.22.91-1.83,1.3.04,2.6.08,3.89.13-1.31,2.31-2.58,4.63-3.83,6.96,1.37,2.57,2.71,5.14,4.01,7.73-1.29-.03-2.59-.06-3.88-.07-.38-.8-.77-1.6-1.15-2.4-.39-.8-.75-1.56-1.11-2.34-.01,0-.02,0-.03,0-.36.81-.73,1.61-1.12,2.44-.36.76-.72,1.51-1.08,2.27-1.26,0-2.52.02-3.78.04,1.27-2.59,2.57-5.17,3.91-7.74Z"/>
          <path class="cls-27" d="M160,134.5c-1.25-.06-2.5-.12-3.74-.17.01-1.18.02-2.35.03-3.53,3.63.15,7.26.37,10.88.65-.05,1.16-.11,2.32-.17,3.48-1.23-.09-2.45-.18-3.68-.25-.13,3.68-.26,7.37-.4,11.05-1.07-.05-2.13-.1-3.2-.14.1-3.7.19-7.4.28-11.1Z"/>
          <path class="cls-27" d="M174.33,149.7c-2.65-.23-5.3-.43-7.94-.58.03-.57.06-1.15.09-1.72,2.66.16,5.33.36,7.99.6-.05.57-.09,1.13-.14,1.7Z"/>
          <path class="cls-27" d="M176.61,132.36c1.08.12,2.15.25,3.23.38-.33,3.6-.66,7.2-1,10.8,1.5.17,3.01.34,4.51.53-.13,1.13-.25,2.26-.38,3.39-2.51-.31-5.02-.58-7.53-.82.4-4.76.79-9.52,1.17-14.29Z"/>
          <path class="cls-27" d="M185.6,133.5c1.05.15,2.1.31,3.15.47-.57,4.67-1.16,9.35-1.75,14.02-1-.14-2-.27-3-.4.54-4.69,1.08-9.39,1.6-14.09Z"/>
          <path class="cls-27" d="M190.48,134.24c.97.16,1.94.32,2.91.48.72,1.84,1.43,3.67,2.12,5.52.43,1.13.79,2.16,1.16,3.24,0,0,.02,0,.03,0,.17-1.18.34-2.37.53-3.53.23-1.47.46-2.95.69-4.42.97.18,1.95.37,2.92.56-.76,4.58-1.53,9.15-2.31,13.72-.91-.16-1.81-.32-2.72-.48-.64-1.82-1.3-3.64-1.98-5.46-.43-1.13-.8-2.15-1.19-3.24,0,0-.02,0-.03,0-.15,1.19-.31,2.39-.47,3.56-.21,1.48-.42,2.97-.64,4.45-.95-.15-1.9-.29-2.85-.42.62-4.66,1.23-9.32,1.83-13.98Z"/>
          <path class="cls-27" d="M202.49,136.43c2.28.46,4.56.96,6.83,1.47-.21,1.08-.43,2.17-.64,3.25-1.27-.29-2.54-.56-3.82-.83-.12.64-.24,1.28-.35,1.92,1.07.22,2.15.45,3.22.69-.2,1.02-.4,2.04-.6,3.06-1.06-.23-2.12-.45-3.18-.67-.13.69-.26,1.38-.38,2.07,1.3.26,2.6.53,3.9.81-.22,1.08-.43,2.16-.65,3.24-2.23-.47-4.46-.92-6.69-1.33.8-4.56,1.6-9.12,2.38-13.68Z"/>
        </g>
        <g>
          <path class="cls-27" d="M83.77,182.46c-6.28-.92-9.67-6.31-8.47-12.32,1.23-6.17,6.24-9.82,11.86-8.86,1.77.3,3.38,1.02,4.6,2.05-.26,1.86-.53,3.72-.79,5.58-1.18-1.13-2.8-2.13-4.5-2.4-2.98-.49-5.41,1.38-5.97,4.52-.53,3.01,1.04,5.79,4.41,6.3,1.77.27,3.67-.19,5.29-1.04-.25,1.85-.5,3.7-.75,5.55-1.68.74-3.8.91-5.69.63Z"/>
          <path class="cls-27" d="M92.06,172.83c.83-5.97,5.36-9.96,10.48-9.39,5.08.57,8.52,5.37,8.15,11.27-.37,5.88-4.71,10.2-10.26,9.71-5.59-.5-9.2-5.62-8.37-11.59ZM105.81,174.34c.25-3.03-1.26-5.5-3.79-5.77-2.55-.27-4.56,1.85-4.92,4.9-.36,3.04,1.18,5.59,3.84,5.84,2.65.25,4.62-1.94,4.87-4.97Z"/>
          <path class="cls-27" d="M113.42,164.76c1.49.11,2.97.2,4.46.29,1.27,2.51,2.58,5,3.94,7.49,1.48-2.37,2.93-4.76,4.34-7.16,1.43.04,2.86.06,4.28.08-.02,6.6-.02,13.2,0,19.8-1.61.02-3.21.03-4.82.02.03-2.16.06-4.32.09-6.48.02-1.57.08-3.32.12-4.7-.02,0-.03,0-.05,0-.7,1.26-1.48,2.56-2.25,3.79-.69,1.11-1.39,2.22-2.09,3.32-.65-1.14-1.29-2.28-1.92-3.43-.72-1.3-1.41-2.63-2.05-3.94-.02,0-.03,0-.05,0-.04,1.39-.1,3.16-.17,4.74-.1,2.18-.19,4.36-.28,6.54-1.59-.05-3.19-.12-4.79-.2.39-6.72.8-13.44,1.23-20.16Z"/>
          <path class="cls-27" d="M132.91,165.47c2,0,4-.02,6-.06,1.78-.04,3.23.35,4.46,1.43,1.23,1.08,2.06,2.76,2.18,5.02.12,2.25-.55,4.01-1.72,5.2-1.18,1.19-2.66,1.72-4.53,1.79-.55.02-1.1.04-1.65.06.05,2.05.11,4.1.16,6.15-1.58.06-3.15.11-4.73.14-.08-6.58-.13-13.16-.17-19.74ZM138.79,174.52c.88-.03,1.36-.21,1.76-.6.4-.39.59-1.05.57-1.8-.03-.76-.27-1.4-.69-1.76-.42-.37-.9-.51-1.77-.49-.41.01-.82.02-1.23.03.04,1.55.07,3.11.11,4.66.42-.01.84-.02,1.25-.04Z"/>
          <path class="cls-27" d="M146.88,165.13c1.42-.07,2.84-.15,4.26-.25.35,4.88.71,9.75,1.07,14.63,2.16-.18,4.32-.38,6.47-.61.15,1.53.3,3.05.45,4.58-3.7.41-7.4.75-11.12,1.02-.4-6.46-.77-12.91-1.14-19.37Z"/>
          <path class="cls-27" d="M158.73,164.28c3.13-.29,6.25-.64,9.37-1.04.2,1.5.4,3,.6,4.51-1.79.24-3.58.46-5.37.67.1.89.2,1.78.31,2.66,1.53-.18,3.07-.37,4.6-.58.19,1.42.38,2.83.56,4.25-1.55.22-3.11.42-4.66.61.11.96.22,1.91.34,2.87,1.93-.24,3.87-.51,5.8-.79.21,1.5.41,3,.62,4.49-3.4.52-6.81.98-10.23,1.38-.66-6.34-1.3-12.68-1.93-19.02Z"/>
          <path class="cls-27" d="M174.36,166.92c-1.51.23-3.01.46-4.52.66-.21-1.5-.41-3-.62-4.5,4.26-.57,8.51-1.23,12.73-2,.27,1.46.54,2.93.81,4.39-1.47.27-2.93.54-4.41.79.79,4.66,1.59,9.32,2.4,13.97-1.39.26-2.79.51-4.19.76-.75-4.69-1.48-9.38-2.21-14.08Z"/>
          <path class="cls-27" d="M183.13,160.88c2.9-.54,5.8-1.12,8.68-1.76.32,1.43.64,2.87.96,4.3-1.65.37-3.31.73-4.97,1.07.17.85.35,1.7.52,2.55,1.42-.3,2.84-.61,4.25-.93.3,1.35.6,2.7.9,4.06-1.43.33-2.87.65-4.31.96.19.91.38,1.83.57,2.74,1.79-.39,3.57-.8,5.35-1.22.33,1.43.65,2.86.98,4.29-3.14.77-6.28,1.48-9.45,2.14-1.18-6.07-2.35-12.13-3.5-18.2Z"/>
          <path class="cls-27" d="M193.69,158.7c1.69-.38,3.38-.78,5.07-1.2,2.12-.52,4.05-.05,5.66,1.22,1.6,1.27,2.84,3.19,3.54,5.68.66,2.34.67,4.67-.11,6.63-.78,1.96-2.28,3.43-4.62,4.07-1.79.49-3.59.95-5.39,1.41-1.4-5.93-2.78-11.87-4.14-17.8ZM204.19,168.98c.41-.97.42-2.24.08-3.54-.35-1.3-.98-2.4-1.8-3.04-.82-.64-1.72-.9-2.69-.65-.46.12-.91.23-1.37.34.75,3.06,1.51,6.11,2.27,9.17.47-.12.94-.25,1.41-.37,1-.26,1.69-.95,2.1-1.91Z"/>
        </g>
      </g>
    </g>
  </g>
</svg>