<?xml version="1.0" encoding="UTF-8"?>
<svg id="Layer_2" data-name="Layer 2" xmlns="http://www.w3.org/2000/svg" xmlns:xlink="http://www.w3.org/1999/xlink" viewBox="0 0 451.99 452.11">
  <defs>
    <style>
      .cls-1 {
        fill: #a6ddff;
      }

      .cls-2 {
        fill: #3f1a17;
      }

      .cls-3 {
        fill: #749ab2;
      }

      .cls-4 {
        stroke-dasharray: 1.61 1.61;
      }

      .cls-4, .cls-5, .cls-6, .cls-7, .cls-8, .cls-9, .cls-10, .cls-11, .cls-12, .cls-13, .cls-14, .cls-15, .cls-16, .cls-17 {
        fill: none;
        stroke-miterlimit: 10;
      }

      .cls-4, .cls-5, .cls-6, .cls-7, .cls-8, .cls-9, .cls-10, .cls-11, .cls-12, .cls-13, .cls-14, .cls-15, .cls-17 {
        stroke: #ffa93f;
        stroke-width: .26px;
      }

      .cls-18 {
        fill: #ffa93f;
      }

      .cls-19 {
        fill: #fbab48;
      }

      .cls-5 {
        stroke-dasharray: 2.59 2.59;
      }

      .cls-20 {
        fill: #fefcfd;
      }

      .cls-21 {
        fill: #fac1b0;
      }

      .cls-6 {
        stroke-dasharray: 2.95 2.95;
      }

      .cls-7 {
        stroke-dasharray: 1.93 1.93;
      }

      .cls-22 {
        fill: url(#radial-gradient);
      }

      .cls-8 {
        stroke-dasharray: 2.64 2.64;
      }

      .cls-23 {
        fill: #ffffbd;
      }

      .cls-9 {
        stroke-dasharray: 2.29 2.29;
      }

      .cls-24 {
        fill: #cc8333;
      }

      .cls-25 {
        fill: #8fbdde;
      }

      .cls-26 {
        fill: #d8e9a2;
      }

      .cls-27 {
        fill: #2d1410;
      }

      .cls-10 {
        stroke-dasharray: 2.34 2.34;
      }

      .cls-28 {
        fill: #c9c2b6;
      }

      .cls-29 {
        fill: #ffc280;
      }

      .cls-30 {
        fill: #e8ddc5;
      }

      .cls-11 {
        stroke-dasharray: 1.93 1.93;
      }

      .cls-12 {
        stroke-dasharray: 2.07 2.07;
      }

      .cls-13 {
        stroke-dasharray: 2.27 2.27;
      }

      .cls-15 {
        stroke-dasharray: 2.19 2.19;
      }

      .cls-31 {
        fill: #fcf1d1;
      }

      .cls-16 {
        stroke: #f4f4f4;
        stroke-width: .51px;
      }

      .cls-17 {
        stroke-dasharray: 2.28 2.28;
      }
    </style>
    <radialGradient id="radial-gradient" cx="135.62" cy="162.63" fx="135.62" fy="162.63" r="109.17" gradientUnits="userSpaceOnUse">
      <stop offset="0" stop-color="#fff" stop-opacity="0"/>
      <stop offset=".86" stop-color="#848484" stop-opacity=".05"/>
      <stop offset="1" stop-color="#000" stop-opacity=".1"/>
    </radialGradient>
  </defs>
  <g id="Layer_1-2" data-name="Layer 1">
    <path class="cls-18" d="M211.67,397.89c1.79,1.64,4.55,3.92,8.25,6.08,5.37,3.14,9.71,4.27,13.3,5.43,4.83,1.56,11.58,4.23,19.53,9.08-.18,1.09-.29,2.92.69,4.56.56.92,1.97,1.71,4.76,3.26,3.47,1.91,5.23,2.87,6.55,3.01,1.81.19,3.32-.21,4.23-.53-.28.9-.88,3.22.2,5.5.88,1.85,2.42,2.72,4.48,3.87,1.72.96,3.83,2.15,6.84,2.44,5.14.5,9.05-1.97,10.95-3.18,1.43-.91,2.91-1.84,4.19-3.62.97-1.35.97-1.97,2.01-3.07,1.76-1.84,3.02-1.38,4.01-2.59,1.76-2.16.58-7.05-2.24-9.73-2.28-2.17-5.2-2.48-5.83-2.55-2.52-.27-2.99.65-6.38.39-.99-.08-4.57-.35-5.1-2.03-.14-.43.05-.54-.06-1.04-.3-1.24-1.76-1.67-3.91-2.67-3.49-1.63-3.3-2.2-5.29-2.65-2-.45-1.99.18-3.66-.33-2.47-.75-3.1-2.29-5.09-2.4-1.13-.06-2.06.38-2.61.69-1.92-.86-4.91-2.17-8.63-3.66-7.46-2.99-10.14-3.64-14.53-5.86-2.37-1.2-5.75-3.12-9.57-6.11-5.7,2.57-11.4,5.14-17.1,7.71Z"/>
    <path class="cls-23" d="M278.7,435.4c12.07,10.87,18.56,16.72,18.56,16.72,0,0,.02,0,.07-.03,1.92-.71,7.59-2.9,12.41-5.56,6.43-3.55,9.91-5.47,9.93-8.2,0-.78-.28-1.08-4.73-5.98-2.69-2.96-5.93-5.42-8.51-8.48-.42-.5-1.45-1.75-3.15-2.16-.69-.16-1.28-.14-1.63-.1.28.38.62.96.85,1.71.35,1.13.28,2.11.2,2.66,2.87,2.95,5.41,5.16,7.32,6.69,2.24,1.81,3.94,2.97,3.7,4.19-.19.95-1.42,1.3-3.99,2.46-2.5,1.13-4.49,2.23-5.85,3.03-3.04-3.33-6.08-6.66-9.12-9.99.28-2.24.38-6.04-1.88-8.11-.57-.52-1.84-1.45-2.25-1.12-.45.36.38,2.06.49,2.28.56,1.61,1.05,3.72,1.03,6.19,0,.65-.04,1.27-.11,1.85,2.89,3.26,5.79,6.51,8.68,9.77-1.72,1.77-3.19,2.13-4.13,2.17-2.46.12-2.83-1.88-9.17-7.06-2.97-2.43-4.86-3.6-5.26-5.97-.14-.81-.1-1.77-.65-2.01-.76-.33-2.28.88-2.82,2.33-.44,1.18-.15,2.27,0,2.71Z"/>
    <path class="cls-24" d="M270.05,424.24c.93-1.43,2.36-3.29,4.45-5.09,2.4-2.07,4.77-3.29,6.46-3.99.72.32,1.44.63,2.17.95-1.67.56-4.38,1.7-7.07,4.03-2.93,2.54-4.48,5.31-5.25,6.96-.25-.95-.51-1.9-.76-2.85Z"/>
    <ellipse class="cls-29" cx="280.32" cy="421.23" rx="3.44" ry="2.03" transform="translate(-173.06 196.59) rotate(-30)"/>
    <ellipse class="cls-29" cx="270.62" cy="414.81" rx="3.07" ry="1.71" transform="translate(-171.15 190.88) rotate(-30)"/>
    <path class="cls-25" d="M341.2,351.55c1.91,1.49,4.83,3.56,8.69,5.43,5.59,2.72,10,3.51,13.67,4.4,4.94,1.19,11.87,3.34,20.16,7.56-.09,1.1-.07,2.93,1.04,4.49.62.88,2.09,1.56,5,2.88,3.6,1.64,5.43,2.46,6.76,2.5,1.82.05,3.29-.46,4.18-.85-.21.92-.63,3.28.62,5.46,1.02,1.78,2.63,2.52,4.76,3.51,1.79.83,3.99,1.85,7.01,1.91,5.16.11,8.87-2.66,10.68-4,1.36-1.01,2.76-2.06,3.9-3.93.87-1.42.81-2.04,1.77-3.21,1.61-1.96,2.91-1.6,3.8-2.89,1.59-2.29.04-7.07-2.98-9.53-2.44-1.99-5.38-2.08-6.01-2.1-2.54-.08-2.93.88-6.33.88-.99,0-4.58,0-5.24-1.64-.17-.42.01-.54-.14-1.03-.39-1.21-1.88-1.53-4.1-2.36-3.6-1.36-3.46-1.94-5.48-2.23-2.03-.29-1.97.33-3.68-.04-2.52-.55-3.27-2.05-5.26-2.01-1.13.02-2.03.53-2.54.89-1.98-.71-5.06-1.79-8.88-2.99-7.66-2.42-10.39-2.85-14.94-4.73-2.45-1.02-5.97-2.68-10-5.36-5.49,3-10.97,5.99-16.46,8.99Z"/>
    <path class="cls-23" d="M410.9,383.82c12.87,9.92,19.78,15.25,19.78,15.25,0,0,.02-.01.07-.03,1.86-.86,7.34-3.47,11.95-6.5,6.14-4.03,9.46-6.21,9.28-8.93-.05-.78-.36-1.05-5.17-5.6-2.91-2.75-6.33-4.95-9.14-7.81-.46-.46-1.58-1.64-3.31-1.91-.7-.11-1.28-.04-1.64.02.3.36.69.91.98,1.64.44,1.1.44,2.08.41,2.64,3.08,2.73,5.79,4.73,7.81,6.11,2.37,1.63,4.15,2.66,4.01,3.9-.11.96-1.32,1.4-3.79,2.75-2.41,1.32-4.31,2.56-5.6,3.46-3.28-3.09-6.57-6.17-9.85-9.26.1-2.25-.08-6.05-2.49-7.94-.6-.47-1.95-1.3-2.33-.94-.42.39.54,2.03.66,2.24.68,1.56,1.33,3.63,1.5,6.09.04.65.05,1.27.03,1.85,3.13,3.03,6.27,6.05,9.4,9.08-1.58,1.89-3.02,2.37-3.95,2.48-2.44.31-2.96-1.66-9.68-6.34-3.15-2.19-5.13-3.22-5.7-5.55-.2-.8-.23-1.76-.8-1.95-.79-.27-2.21,1.05-2.64,2.54-.35,1.21.03,2.28.21,2.71Z"/>
    <path class="cls-3" d="M401.42,373.36c.82-1.49,2.1-3.46,4.05-5.42,2.24-2.25,4.51-3.64,6.14-4.47.74.26,1.49.52,2.23.78-1.63.68-4.24,2.03-6.74,4.56-2.72,2.75-4.06,5.64-4.7,7.34-.33-.93-.65-1.86-.98-2.78Z"/>
    <ellipse class="cls-1" cx="411.43" cy="369.57" rx="3.44" ry="2.03" transform="translate(-136.82 296.9) rotate(-34.38)"/>
    <ellipse class="cls-1" cx="401.27" cy="363.91" rx="3.07" ry="1.71" transform="translate(-135.4 290.17) rotate(-34.38)"/>
    <polygon class="cls-20" points="34.28 285.1 38.6 350.45 159.3 431.24 420.05 332.84 420.16 269.34 156.38 343.97 34.28 285.1"/>
    <path class="cls-18" d="M190.48,381.96l-.52-21.2c-.1-3.95,2.47-7.47,6.25-8.58l31.87-9.4c5.59-1.65,11.19,2.54,11.19,8.37v20.44c0,3.78-2.44,7.13-6.03,8.3l-31.35,10.17c-5.55,1.8-11.27-2.25-11.41-8.08Z"/>
    <polygon class="cls-31" points="43.14 281.88 155.4 333.14 407.17 264.68 272.53 239.05 43.14 281.88"/>
    <polygon class="cls-28" points="43.14 281.88 34.21 285.07 156.38 343.97 420.16 269.34 407.17 264.68 155.4 333.14 43.14 281.88"/>
    <path class="cls-18" d="M114.48,2.04c-.65-1.2-2.11-1.54-3.26-1.81-4.47-1.05-7.93,1.73-15.21,5.42-6.23,3.16-5.38,1.98-10.19,4.56-3.02,1.62-9.03,4.85-14.45,10.3-5.38,5.42-7.79,10.78-10.72,16.88-5.24,10.91-7.19,20.85-7.98,27.6l24.52,2.74c.83-4.54,2.19-10.85,4.45-18.25,2.46-8.07,3.69-12.11,5.93-15.64.95-1.51,1.86-2.68,2.79-3.69,6.05-6.58,9.42-7.97,15.23-13.51,1.6-1.52,11.09-10.58,8.9-14.6ZM75.9,42.28c-.21,1.57-1.85,3.24-3.66,2.92-1.69-.3-2.44-2.13-2.54-3.31-.03-.36-.12-1.45.63-2.28.86-.96,2.17-.86,2.49-.84.16.01,1.89.17,2.71,1.67.17.31.48,1,.37,1.84ZM81.59,29.15c-.16,1.22-1.46,2.34-2.42,2.02-.76-.25-1.16-1.36-1-2.22.22-1.19,1.54-2.19,2.48-1.83.72.27,1.04,1.27.94,2.04ZM91.51,19.2c-.29.77-1.08,1.75-1.79,1.56-.54-.15-.89-.93-.8-1.56.17-1.24,2.05-1.98,2.59-1.56.44.34.03,1.48,0,1.56Z"/>
    <path class="cls-25" d="M228.23,9.13c-2.53-2.03-6.39-.89-9.88.15-4.67,1.39-7.57,3.58-11.63,4.94-.31.1-1.34.44-2.68,1.01,0,0-1.56.67-3.12,1.52-6.83,3.74-12.98,10.78-12.98,10.78-1.98,2.27-6.55,7.8-11.25,17.33-2.99,6.07-6.67,15.05-8.91,26.67l24.52,2.74c.57-3.8,1.51-10.07,2.79-18.15,1.07-6.74,1.65-10.2,3.96-14.14,1.33-2.26,3.01-3.99,6.38-7.45,5.4-5.55,8.71-8.96,13.84-12.32,6.55-4.29,10.6-4.94,11.03-8.26.24-1.87-.78-3.79-2.06-4.82ZM188.57,49.89c-.5.79-1.53,1.32-2.51,1.07-1.57-.39-1.73-2.44-1.74-2.55-.01-.22-.1-1.55.8-2.12.57-.36,1.22-.23,1.5-.17,1.02.21,2.16,1.06,2.29,2.29.02.17.07.83-.34,1.48ZM196.33,35.31c-.49,1.63-2.33,2.89-3.24,2.43-.71-.36-.8-1.73-.55-2.65.45-1.68,2.31-3.03,3.24-2.58.73.35.86,1.8.56,2.8ZM208.55,23.99c-.8,1.42-2.91,2.03-3.59,1.37-.51-.49-.21-1.66.17-2.34.77-1.37,2.68-2.2,3.44-1.6.58.46.45,1.75-.02,2.57Z"/>
    <polygon class="cls-2" points="43.14 281.88 30.97 267.28 254.84 230.59 272.53 239.05 43.14 281.88"/>
    <polygon class="cls-20" points="17.34 49.89 3.33 55.26 15.8 269.17 34.21 285.07 43.14 281.88 30.97 267.28 17.34 49.89"/>
    <polygon class="cls-28" points="397.93 267.2 273.71 241.95 49.96 284.99 43.14 281.88 272.53 239.05 407.17 264.68 397.93 267.2"/>
    <polygon class="cls-2" points="17.88 58.52 253.91 67.02 253.87 58.98 17.34 49.89 17.88 58.52"/>
    <polygon class="cls-2" points="249.67 231.5 248.14 66.81 253.91 67.02 254.84 230.84 249.67 231.5"/>
    <polygon class="cls-31" points="21.58 58.57 34.51 266.7 249.67 231.5 248.14 66.81 21.58 58.57"/>
    <path class="cls-18" d="M360.7,334.15c.12,1.29-.68,2.61-1.82,2.97-1.16.36-2.22-.41-2.35-1.75-.13-1.33.72-2.68,1.89-3,1.14-.31,2.15.49,2.27,1.78Z"/>
    <path class="cls-18" d="M372.16,330.79c.1,1.16-.56,2.33-1.47,2.62-.93.29-1.79-.44-1.89-1.63-.1-1.2.59-2.39,1.53-2.65.92-.25,1.74.49,1.84,1.66Z"/>
    <polygon class="cls-2" points="21.58 58.57 34.51 266.7 30.97 267.28 17.88 58.52 21.58 58.57"/>
    <polygon points="261.4 233.73 259.6 59.76 253.87 58.98 254.84 230.84 261.4 233.73"/>
    <polygon points="260.92 226.45 272.53 239.05 261.4 233.73 260.92 226.45"/>
    <path class="cls-26" d="M291.34,343.08c8.77-4.11,19.1-8.3,30.89-11.92,11.1-3.41,21.4-5.68,30.52-7.2v13.23c-7.41,4.07-16.42,8.33-26.96,11.99-13.06,4.54-24.96,6.93-34.74,8.21.1-4.77.19-9.54.29-14.32Z"/>
    <path class="cls-26" d="M336.06,325.56v-3.92l1.88-1.32c.85-.6,1.35-1.58,1.34-2.62l-.03-2.6c1.19-.44,12.33-4.36,19.42,1.68.95.81,2,1.95,2.92,3.55-.65,1.73-1.59,3.8-2.97,6-1.65,2.63-3.44,4.64-4.93,6.09-.05-3.27-.1-6.54-.15-9.81l-17.49,2.96Z"/>
    <path class="cls-26" d="M284.25,338.52l-4.5.45-.51-5.09c-3.67,1.11-10.06,3.59-16.13,9.23-4.26,3.96-6.88,8.09-8.43,11.05,1.27,1.39,2.57,2.44,3.78,3.23,8.7,5.72,19.3,2.73,22.09,1.85-.27-1.82-.53-3.63-.8-5.45l5.45-1.16-.95-14.11Z"/>
    <polygon class="cls-18" points="340.97 319.79 341.71 319.01 348.18 322.03 345.97 322.16 340.97 319.79"/>
    <polygon class="cls-18" points="290.92 342.91 282.03 339.2 284 338.81 292.27 342.37 290.92 342.91"/>
    <polygon class="cls-18" points="285.12 353.7 282.74 353.7 290.17 357.12 290.59 356.17 285.12 353.7"/>
    <path class="cls-18" d="M380.94,293.39l18.89-5.3c5.56-1.56,11.08,2.62,11.08,8.4v18.33c0,3.74-2.38,7.06-5.92,8.26l-18.89,6.41c-5.66,1.92-11.53-2.29-11.53-8.26v-19.44c0-3.91,2.6-7.35,6.37-8.4Z"/>
    <path class="cls-26" d="M132.13,418.88c2.03,2.44,10.89,12.58,26,14.44,19.92,2.45,33.4-11.62,34.78-13.12.13-1.93.58-11.39-6.26-18.77-6.84-7.39-18.22-9.73-28.64-5.78-7.98-3.83-17.35-1.99-22.75,4.21-4.42,5.08-5.59,12.42-3.13,19.02Z"/>
    <path class="cls-25" d="M37.39,334.34c-.12.02-.46.11-.75.43-.31.35-.34.74-.34.85.23,2.43.44,4.53.6,6.19.67,6.78.74,7.31,1.18,8.28,2.16,4.79,7.1,6.55,7.57,6.71,1.27.43,2.57.52,3.37.57-.29-.16-2.83-2.02-3.96-3.12-1.02-.99-1.08-1.93-2.11-5.07-2.09-6.37-3.15-9.57-3.89-10.54-.22-.29-.98-1.24-1.4-2.69-.19-.66-.25-1.23-.27-1.61Z"/>
    <path class="cls-27" d="M406.03,338.02c2.47-.01,4.5-.38,5.91-.74,1.71-.44,4.06-1.06,6.47-2.87.67-.51,1.01-.76,1.37-1.18,1.56-1.83,1.05-3.57,1.45-7.68.42-4.39,1.39-6.45.17-7.55-.34-.31-1.16-.75-1.46-.54-.27.18.15.78-.14,1.65-.46,1.36-1.21,1.92-2.13,2.82-1.72,1.67-4.78,5.95-6.32,10.6-.49,1.48-.53,3.19-2.07,4-1.42.75-2.38,1.15-3.26,1.49Z"/>
    <path class="cls-20" d="M173.13,402.86c-.28,2.31-2.34,4.18-4.59,4.18s-3.84-1.87-3.56-4.18c.28-2.31,2.34-4.18,4.59-4.18s3.84,1.87,3.56,4.18Z"/>
    <path class="cls-20" d="M415.95,331.86c.08.85-.29,1.66-.82,1.8s-1.02-.44-1.1-1.29.29-1.66.82-1.8,1.02.44,1.1,1.29Z"/>
    <path class="cls-20" d="M420.15,324.26c.04.67-.3,1.28-.76,1.38s-.86-.38-.89-1.04.3-1.28.76-1.38.86.38.89,1.04Z"/>
    <path class="cls-20" d="M142.44,415.81c.3,2.31-1.27,4.18-3.52,4.18s-4.32-1.87-4.62-4.18c-.3-2.31,1.27-4.18,3.52-4.18,2.25,0,4.32,1.87,4.62,4.18Z"/>
    <path class="cls-20" d="M40.61,347.74c0,.99-.49,1.55-1.12,1.25s-1.15-1.33-1.16-2.32.49-1.55,1.12-1.25,1.15,1.33,1.16,2.32Z"/>
    <path class="cls-20" d="M186.6,417.81c-.23,1.85-1.87,3.34-3.67,3.34s-3.07-1.5-2.85-3.34c.23-1.85,1.87-3.34,3.67-3.34s3.07,1.5,2.85,3.34Z"/>
    <polygon class="cls-22" points="21.58 58.57 34.51 266.7 249.67 231.5 248.14 66.81 21.58 58.57"/>
    <path class="cls-30" d="M119.83,316.9l167-42.37c7.79-1.98,15.96-1.95,23.74.09l30.59,8.02-185.75,50.51-35.57-16.24Z"/>
    <path d="M17.4,50.82c73.25,2.59,146.99,5.24,220.26,7.54.35.01,5.93.19,6.29.2.88-.19,1.76-.37,2.63-.56L17.88,49.89l-.48.93Z"/>
    <path class="cls-21" d="M43.14,281.88c-8.37-1.66-12.47-4.98-14.5-8.41-1.97-3.33-1.19-4.6-2.69-14.45-.71-4.67-1.76-11.06-6.01-16.69-2.31-3.05-4.89-4.99-6.65-6.13.2,3.83.29,6.95.33,9.07.17,8.4-.17,11.35.57,16.75.41,3,.75,5.47,1.6,7.8,3.15,8.63,12.51,13.14,18.42,15.25,1.05-.35,2.11-.72,3.17-1.09,1.96-.69,3.88-1.39,5.75-2.1Z"/>
    <path class="cls-20" d="M27.97,277.8c.01,1.53-.77,2.41-1.74,1.95s-1.78-2.07-1.8-3.61c-.01-1.53.77-2.41,1.74-1.95.98.46,1.78,2.07,1.8,3.61Z"/>
    <path class="cls-27" d="M2.53,88.76c2.18-.72,3.73-1.77,4.85-2.89,4.37-4.34,4.33-11.65,4.16-21.85-.11-6.78-.7-8,.46-9.83,3.07-4.81,12.44-3.91,20.06-3.81-4.12-1.51-13.93-3.82-23.53.22-2.44,1.03-5.32,2.28-7.14,5.24-2.4,3.89-1.21,7.84-.14,16.15.5,3.89,1.09,9.61,1.27,16.76Z"/>
    <path class="cls-20" d="M18.53,247.48c.01,1.27-.63,1.99-1.44,1.61s-1.47-1.71-1.48-2.98.63-1.99,1.44-1.61,1.47,1.71,1.48,2.98Z"/>
    <path class="cls-20" d="M9.21,59.39c-.4,1.52-1.41,2.38-2.26,1.93s-1.2-2.05-.8-3.57,1.41-2.38,2.26-1.93,1.2,2.05.8,3.57Z"/>
    <path class="cls-20" d="M6.79,80.54c-.3,1.11-1.04,1.75-1.65,1.42s-.88-1.51-.59-2.62c.3-1.11,1.04-1.75,1.65-1.42s.88,1.51.59,2.62Z"/>
    <path class="cls-18" d="M49.63,351.64c.02,1.02-.24,1.64-.58,1.41s-.63-1.21-.65-2.21.22-1.66.56-1.45.65,1.23.67,2.25Z"/>
    <path class="cls-18" d="M52.14,353.27c.01,1.06-.29,1.7-.66,1.44s-.68-1.29-.69-2.32.27-1.72.65-1.49.7,1.3.71,2.37Z"/>
    <path class="cls-18" d="M54.91,355.06c0,1.1-.35,1.76-.76,1.47s-.74-1.37-.74-2.45.33-1.78.74-1.53.76,1.38.76,2.5Z"/>
    <path class="cls-18" d="M57.98,357.06c-.02,1.15-.42,1.82-.88,1.5s-.8-1.46-.79-2.59c.01-1.14.39-1.85.85-1.56s.84,1.48.81,2.64Z"/>
    <path class="cls-18" d="M61.41,359.28c-.05,1.2-.5,1.88-1.02,1.53s-.88-1.56-.85-2.74.47-1.91.99-1.6.92,1.59.87,2.81Z"/>
    <path class="cls-18" d="M65.26,361.78c-.07,1.26-.61,1.95-1.18,1.55s-.97-1.68-.91-2.91.57-1.99,1.15-1.63,1.02,1.71.95,2.99Z"/>
    <path class="cls-18" d="M69.61,364.6c-.11,1.32-.73,2.02-1.39,1.57s-1.08-1.82-.99-3.11.69-2.06,1.35-1.66,1.14,1.86,1.03,3.2Z"/>
    <path class="cls-18" d="M74.58,367.83c-.15,1.39-.89,2.09-1.64,1.58s-1.21-1.98-1.08-3.34.84-2.14,1.59-1.68,1.28,2.02,1.12,3.44Z"/>
    <path class="cls-18" d="M80.3,371.54c-.21,1.47-1.09,2.16-1.95,1.57-.84-.58-1.37-2.17-1.19-3.6s1.02-2.22,1.9-1.68,1.45,2.23,1.24,3.72Z"/>
    <path class="cls-18" d="M86.96,375.86c-.29,1.55-1.34,2.22-2.34,1.53s-1.56-2.4-1.32-3.91,1.26-2.3,2.28-1.67,1.67,2.47,1.38,4.04Z"/>
    <path class="cls-18" d="M94.81,380.95c-.38,1.64-1.67,2.27-2.85,1.47s-1.8-2.68-1.47-4.27,1.57-2.37,2.77-1.63,1.94,2.77,1.55,4.44Z"/>
    <path class="cls-18" d="M104.19,387.03c-.52,1.73-2.11,2.31-3.52,1.34s-2.11-3.03-1.67-4.71c.45-1.72,1.97-2.43,3.42-1.54,1.49.91,2.3,3.14,1.77,4.91Z"/>
    <path class="cls-18" d="M115.6,394.44c-.7,1.84-2.7,2.31-4.42,1.13-1.67-1.14-2.52-3.46-1.92-5.24s2.52-2.47,4.29-1.38c1.83,1.12,2.77,3.62,2.05,5.49Z"/>
    <path class="cls-18" d="M129.79,403.64c-.97,1.94-3.54,2.24-5.68.78-2.08-1.42-3.06-4.03-2.24-5.92.84-1.93,3.28-2.46,5.51-1.1s3.41,4.25,2.42,6.24Z"/>
    <path class="cls-18" d="M149.95,385.51c-.6,1.72-2.09,1.9-3.3.52s-1.68-3.64-1.22-5.32,1.88-2.24,3.17-.98c1.36,1.33,1.98,3.97,1.35,5.78Z"/>
    <path class="cls-18" d="M150.31,372.64c-.63,1.91-2.17,2.26-3.42.92s-1.74-3.7-1.26-5.54c.5-1.92,1.95-2.6,3.29-1.4,1.41,1.26,2.05,4.02,1.39,6.02Z"/>
    <path class="cls-18" d="M150.69,358.85c-.65,2.11-2.26,2.66-3.55,1.38-1.23-1.22-1.8-3.75-1.31-5.77.52-2.11,2.03-3.01,3.42-1.89,1.46,1.19,2.13,4.07,1.44,6.28Z"/>
    <path class="cls-18" d="M41.42,324.86c-.24,1.81-1.17,2.38-2.02,1.32s-1.28-3.15-1.07-4.83c.22-1.69,1.05-2.38,1.9-1.51.89.92,1.44,3.19,1.19,5.01Z"/>
    <path class="cls-18" d="M40.77,313.67c-.24,1.6-1.1,2.11-1.91,1.18-.77-.89-1.2-2.77-.99-4.26.21-1.5,1-2.12,1.79-1.35s1.34,2.81,1.11,4.43Z"/>
    <path class="cls-18" d="M40.2,303.76c-.23,1.43-1.05,1.88-1.8,1.07s-1.12-2.46-.93-3.79.95-1.9,1.69-1.22c.78.72,1.26,2.5,1.03,3.94Z"/>
    <line class="cls-16" x1="44.64" y1="343.04" x2="133.6" y2="397.93"/>
    <path class="cls-18" d="M248.28,371.51c.12,1.29-.68,2.61-1.82,2.97-1.16.36-2.22-.41-2.35-1.75-.13-1.33.72-2.68,1.89-3,1.14-.31,2.15.49,2.27,1.78Z"/>
    <path class="cls-18" d="M259.74,368.15c.1,1.16-.56,2.33-1.47,2.62-.93.29-1.79-.44-1.89-1.63-.1-1.2.59-2.39,1.53-2.65.92-.25,1.74.49,1.84,1.66Z"/>
    <ellipse class="cls-29" cx="207" cy="369.67" rx="9.58" ry="7.58" transform="translate(-182.02 537.49) rotate(-84.09)"/>
    <polygon class="cls-24" points="224.59 354.55 225.42 373.79 229.61 372.57 228.85 353.64 224.59 354.55"/>
    <ellipse class="cls-29" cx="400.26" cy="307.85" rx="9.58" ry="7.58" transform="translate(52.82 674.28) rotate(-84.09)"/>
    <polygon class="cls-24" points="384.45 301.53 384.16 320.78 388.41 319.81 388.75 300.87 384.45 301.53"/>
    <g>
      <path class="cls-14" d="M292.59,344.83c.01-.43.03-.86.03-1.28.38-.18.77-.36,1.16-.54"/>
      <path class="cls-5" d="M296.15,341.95c7.45-3.27,17.13-6.93,26.04-9.66,8.8-2.7,19.32-5.14,27.2-6.58"/>
      <path class="cls-14" d="M350.66,325.48c.43-.08.85-.15,1.26-.22v1.28"/>
      <path class="cls-6" d="M351.93,329.49v4.42"/>
      <path class="cls-14" d="M351.93,335.38v1.28c-.36.2-.74.4-1.13.61"/>
      <path class="cls-8" d="M348.45,338.48c-6.5,3.25-15.33,6.98-23.12,9.69-10.42,3.62-22.14,6.56-30.67,7.93"/>
      <path class="cls-14" d="M293.36,356.3c-.43.06-.86.12-1.27.18,0-.42.02-.85.03-1.28"/>
      <path class="cls-12" d="M292.21,353.12c.11-2.41.25-4.86.35-7.25"/>
    </g>
    <g>
      <polyline class="cls-14" points="281.94 341.57 281.87 340.51 280.8 340.61"/>
      <polyline class="cls-14" points="279.18 340.77 278.11 340.88 278.01 339.82"/>
      <path class="cls-14" d="M277.8,337.71l-.11-1.06c-.31.1-.65.2-1.01.32"/>
      <path class="cls-17" d="M274.54,337.76c-2.96,1.22-6.69,3.23-10.29,6.57-2.7,2.51-4.61,5.1-5.94,7.28"/>
      <path class="cls-14" d="M257.73,352.6c-.18.32-.35.64-.51.94.25.27.5.53.75.77"/>
      <path class="cls-10" d="M259.77,355.81c.2.15.41.29.6.42,5.78,3.8,12.56,2.99,16.26,2.13"/>
      <path class="cls-14" d="M277.76,358.07c.41-.11.76-.22,1.02-.3-.05-.35-.1-.71-.16-1.06"/>
      <path class="cls-14" d="M278.27,354.29c-.05-.35-.1-.71-.16-1.06l1.05-.22"/>
      <polyline class="cls-14" points="281.61 352.49 282.65 352.26 282.58 351.2"/>
      <line class="cls-7" x1="282.45" y1="349.27" x2="282" y2="342.53"/>
    </g>
    <g>
      <polyline class="cls-14" points="338.27 324.45 337.14 324.65 337.23 323.5"/>
      <polyline class="cls-14" points="337.28 322.92 337.37 321.77 338.31 321.11"/>
      <path class="cls-4" d="M339.58,320.11c.44-.52.69-1.18.68-1.88v-.38"/>
      <path class="cls-14" d="M340.25,317.05v-1.15c.15-.06.53-.2,1.08-.36"/>
      <path class="cls-13" d="M343.52,314.97c3.73-.8,9.79-1.27,14.15,2.44.45.38,1.03.84,1.61,1.4"/>
      <path class="cls-14" d="M360.05,319.65c.24.29.46.61.66.95-.13.34-.28.69-.47,1.05"/>
      <path class="cls-11" d="M359.3,323.33c-.51.85-1.09,1.74-1.67,2.65-.86,1.37-1.33,2.33-1.83,3.15"/>
      <path class="cls-14" d="M355.25,329.93c-.22.29-.47.57-.76.86,0-.38,0-.76-.01-1.15"/>
      <path class="cls-9" d="M354.49,327.35c0-1.14.02-2.3.03-3.43"/>
      <path class="cls-14" d="M354.51,322.77c0-.39,0-.77-.01-1.15l-1.13.2"/>
      <line class="cls-15" x1="351.21" y1="322.2" x2="339.35" y2="324.26"/>
    </g>
    <path class="cls-27" d="M78.73,290.58c1.54-4.84,2.76-11.45-.55-16.24-4.05-5.86-12.32-5.28-12.26-7.4.07-2.47,11.3-5.6,21.77-2.87,2.8.73,5.75,1.5,8.35,4,6.72,6.47,4.1,17.67,3.8,18.87l-21.1,3.65Z"/>
    <path class="cls-27" d="M235.51,260.9c1.31-4.1,2.34-9.72-.47-13.78-3.44-4.97-10.46-4.48-10.41-6.28.06-2.09,9.59-4.75,18.47-2.44,2.38.62,4.88,1.27,7.09,3.4,5.71,5.49,3.48,14.99,3.22,16.01l-17.91,3.09Z"/>
    <ellipse class="cls-29" cx="75.06" cy="267.19" rx="2.17" ry=".86"/>
    <ellipse class="cls-29" cx="82.89" cy="265.54" rx="2.17" ry=".86"/>
    <ellipse class="cls-29" cx="231.7" cy="240.73" rx="1.89" ry=".74"/>
    <ellipse class="cls-29" cx="238.52" cy="239.29" rx="1.89" ry=".74"/>
    <path class="cls-21" d="M237.66,58.37s2.17-.02,5.19-.2c1.93-.11,2.53-.18,4.35-.37,6.37-.65,9.61-.94,11.91,1.08.67.59,1.05,1.17,1.26,1.5,2.4,3.74-.25,8.43-.66,9.54-1.97,0,.36-2.71-.37-5.02-.24-.74.33-2.26-.04-2.87-1.31-2.13-5.25-2.66-11.91-3.21-.78-.06-2.68-.19-5.02-.29-2.71-.11-4.7-.12-4.7-.17Z"/>
    <g>
      <g>
        <g>
          <path class="cls-25" d="M63.35,115.55c1.97-.46,3.95-.91,5.93-1.33-1.34,1.73-2.67,3.47-3.97,5.23,1.05,2.1,2.08,4.21,3.11,6.32-1.82-1.03-3.66-2.04-5.51-3.04-1.28,1.78-2.55,3.57-3.79,5.37.11-2.4.22-4.81.35-7.21-1.87-.98-3.75-1.95-5.65-2.91,1.96-.54,3.92-1.05,5.89-1.55.14-2.4.29-4.8.44-7.21,1.08,2.1,2.15,4.21,3.21,6.32Z"/>
          <path class="cls-18" d="M101.47,109.39c2.01-.18,4.02-.34,6.03-.48-1.5,1.49-2.98,2.99-4.45,4.5.85,2.17,1.69,4.33,2.52,6.5-1.72-1.23-3.46-2.46-5.21-3.67-1.44,1.54-2.87,3.1-4.27,4.66.33-2.3.66-4.6,1.01-6.9-1.77-1.2-3.56-2.39-5.36-3.56,2-.25,4.01-.48,6.01-.69.36-2.29.73-4.58,1.11-6.87.88,2.17,1.75,4.34,2.62,6.51Z"/>
          <path class="cls-26" d="M140.07,108.42c2.02.08,4.05.18,6.07.29-1.64,1.24-3.26,2.5-4.87,3.78.64,2.19,1.27,4.39,1.89,6.58-1.6-1.41-3.22-2.8-4.85-4.19-1.59,1.3-3.16,2.62-4.71,3.95.54-2.18,1.1-4.35,1.66-6.52-1.65-1.38-3.32-2.75-5.01-4.11,2.02.01,4.04.05,6.07.1.58-2.16,1.16-4.32,1.76-6.47.67,2.2,1.34,4.39,1.99,6.59Z"/>
          <path class="cls-21" d="M178.74,112.25c2.02.32,4.03.65,6.04,1.01-1.76,1-3.51,2.02-5.24,3.05.42,2.19.84,4.38,1.24,6.56-1.46-1.55-2.94-3.09-4.44-4.62-1.71,1.06-3.41,2.14-5.09,3.24.75-2.03,1.52-4.06,2.29-6.08-1.52-1.53-3.05-3.05-4.61-4.57,2.02.26,4.04.54,6.06.83.79-2.01,1.59-4.01,2.4-6.01.46,2.19.91,4.39,1.34,6.58Z"/>
          <path class="cls-25" d="M217.05,120.48c1.99.54,3.97,1.09,5.95,1.66-1.87.76-3.72,1.54-5.55,2.34.21,2.16.4,4.32.59,6.47-1.31-1.66-2.63-3.32-3.98-4.97-1.82.83-3.62,1.67-5.41,2.53.96-1.87,1.92-3.73,2.9-5.59-1.37-1.65-2.75-3.29-4.15-4.93,1.99.48,3.99.98,5.98,1.5.99-1.84,1.99-3.68,3-5.51.24,2.16.47,4.33.68,6.49Z"/>
        </g>
        <g>
          <path class="cls-26" d="M66.25,190.58c1.96.46,3.92.91,5.88,1.33-1.76,1.05-3.54,2.08-5.33,3.11.3,2.39.61,4.78.93,7.17-1.44-1.75-2.86-3.51-4.27-5.29-1.81,1.01-3.62,2-5.46,2.97.96-2.09,1.92-4.19,2.87-6.29-1.39-1.8-2.76-3.61-4.12-5.43,1.95.54,3.91,1.05,5.86,1.55.94-2.09,1.87-4.19,2.79-6.29.27,2.39.55,4.78.84,7.18Z"/>
          <path class="cls-19" d="M103.86,196.78c1.97.19,3.94.35,5.92.5-1.66,1.26-3.34,2.5-5.02,3.73.49,2.28.98,4.55,1.49,6.82-1.56-1.5-3.1-3.02-4.63-4.55-1.71,1.22-3.42,2.43-5.16,3.63.79-2.16,1.57-4.33,2.34-6.49-1.51-1.56-3.01-3.13-4.49-4.71,1.97.25,3.94.49,5.91.7.76-2.16,1.51-4.32,2.26-6.48.46,2.29.92,4.57,1.4,6.85Z"/>
          <path class="cls-25" d="M141.6,197.84c1.97-.07,3.94-.16,5.92-.28-1.55,1.43-3.11,2.84-4.69,4.25.67,2.14,1.34,4.28,2.03,6.41-1.67-1.25-3.33-2.52-4.97-3.81-1.59,1.4-3.2,2.8-4.83,4.18.61-2.2,1.21-4.39,1.8-6.59-1.63-1.31-3.24-2.64-4.83-3.98,1.97,0,3.95-.04,5.92-.09.58-2.19,1.15-4.38,1.71-6.57.64,2.16,1.29,4.31,1.94,6.46Z"/>
          <path class="cls-26" d="M179.24,194.14c1.96-.31,3.92-.64,5.88-.98-1.43,1.57-2.87,3.13-4.33,4.68.84,1.99,1.7,3.97,2.56,5.95-1.77-1.01-3.53-2.03-5.28-3.07-1.48,1.55-2.97,3.09-4.47,4.63.43-2.2.84-4.39,1.25-6.59-1.73-1.07-3.45-2.15-5.15-3.26,1.97-.25,3.93-.52,5.89-.81.4-2.19.78-4.38,1.16-6.57.82,2.01,1.64,4.02,2.48,6.02Z"/>
          <path class="cls-21" d="M216.57,186.09c1.94-.53,3.87-1.07,5.81-1.63-1.3,1.68-2.61,3.35-3.93,5.02,1.02,1.82,2.04,3.64,3.07,5.44-1.86-.76-3.71-1.55-5.55-2.35-1.35,1.67-2.71,3.33-4.09,4.99.24-2.17.47-4.34.69-6.51-1.82-.83-3.63-1.68-5.43-2.54,1.95-.47,3.89-.97,5.83-1.47.21-2.16.41-4.33.6-6.49.99,1.85,1.99,3.69,2.99,5.53Z"/>
        </g>
      </g>
      <polygon class="cls-26" points="49.4 155.01 55.23 155.01 50.65 159.29 52.67 166.21 47.82 161.96 43.25 166.28 44.82 159.31 39.97 155.01 45.8 155.01 47.38 148.06 49.4 155.01"/>
      <polygon class="cls-21" points="232.37 155.01 238.2 155.01 233.48 158.78 235.29 164.85 230.57 161.11 225.87 164.92 227.66 158.79 222.93 155.01 228.76 155.01 230.56 148.91 232.37 155.01"/>
      <g>
        <path class="cls-27" d="M81.49,136.3c1.67-.47,3.33-.92,5.01-1.34,1.5-.38,2.79-.35,3.96.28,1.17.62,2.03,1.79,2.35,3.5.32,1.71-.06,3.15-.87,4.24-.81,1.09-1.92,1.72-3.37,2.1-.43.11-.85.22-1.28.34.32,1.54.64,3.08.97,4.61-1.16.32-2.33.64-3.49.98-1.09-4.9-2.18-9.8-3.28-14.71ZM87.6,141.88c.7-.18,1.06-.4,1.34-.77.28-.37.35-.9.24-1.47-.11-.57-.39-1.02-.78-1.22-.39-.2-.81-.23-1.52-.04-.34.09-.67.17-1.01.26.24,1.17.49,2.33.73,3.5.33-.09.66-.18,1-.26Z"/>
        <path class="cls-27" d="M96.92,132.62c.45,2.67.89,5.35,1.34,8.02.18,1.06.5,1.79.99,2.24.48.43,1.11.64,1.86.5.75-.14,1.27-.57,1.6-1.15.32-.58.4-1.39.24-2.47-.4-2.67-.8-5.34-1.2-8.01,1.2-.2,2.4-.39,3.6-.57.38,2.79.77,5.59,1.15,8.38.24,1.75.06,3.48-.75,4.87-.82,1.39-2.3,2.4-4.1,2.74-1.8.35-3.51-.05-4.71-1.06-1.19-1.01-1.91-2.63-2.21-4.34-.5-2.79-1.01-5.59-1.51-8.38,1.24-.27,2.48-.52,3.72-.76Z"/>
        <path class="cls-27" d="M112.96,141.82c.81-.1,1.26-.48,1.18-1.19-.06-.55-.41-.78-1.2-.97-.79-.19-2.44-.35-3.53-.97-1.09-.62-1.74-1.6-1.95-3.15-.4-3.01,1.31-5.09,4.31-5.44,1.35-.16,3.11.05,4.42.63.13,1.26.25,2.52.37,3.78-1.66-.83-3.39-1.05-4.27-.94-.79.09-1.21.48-1.13,1.11.07.55.44.77,1.22.95.78.17,2.44.38,3.53,1.01,1.09.63,1.72,1.76,1.86,3.26.29,3.09-1.48,5.04-4.39,5.4-1.33.17-3.08.04-4.46-.52-.17-1.32-.35-2.65-.52-3.97,1.77.92,3.67,1.13,4.54,1.02Z"/>
        <path class="cls-27" d="M118.27,129.68c1.26-.1,2.51-.2,3.77-.28.14,1.76.28,3.53.41,5.29,1.55-.1,3.09-.19,4.64-.26-.11-1.76-.22-3.52-.32-5.28,1.26-.05,2.52-.09,3.78-.12.23,4.87.47,9.74.7,14.61-1.2.04-2.39.09-3.58.15-.12-1.95-.24-3.9-.36-5.84-1.53.07-3.06.16-4.58.27.15,1.95.3,3.91.46,5.86-1.19.09-2.38.19-3.57.3-.45-4.9-.9-9.8-1.34-14.7Z"/>
        <path class="cls-27" d="M141.51,146.78c-3.04-.05-6.08-.03-9.12.06-.03-.58-.05-1.16-.08-1.73,3.06-.09,6.12-.1,9.18-.04,0,.57.01,1.15.02,1.72Z"/>
        <path class="cls-27" d="M146.66,140.56c.81.04,1.31-.25,1.32-.95,0-.54-.31-.82-1.07-1.13-.76-.32-2.38-.75-3.38-1.52-1-.77-1.53-1.83-1.54-3.35-.03-2.96,1.93-4.67,4.96-4.51,1.36.07,3.09.57,4.31,1.34-.03,1.23-.07,2.46-.1,3.69-1.55-1.07-3.24-1.57-4.13-1.62-.8-.04-1.26.26-1.26.87,0,.54.34.81,1.09,1.11.76.3,2.37.77,3.38,1.56,1.01.78,1.49,1.98,1.44,3.45-.1,3.02-2.1,4.6-5.03,4.47-1.34-.06-3.06-.48-4.36-1.25,0-1.3-.02-2.6-.02-3.91,1.64,1.18,3.5,1.7,4.38,1.74Z"/>
        <path class="cls-27" d="M152.32,129.69c1.32.11,2.65.23,3.97.36.35,1.73.69,3.47,1.03,5.2.24,1.25.48,2.57.68,3.78.01,0,.02,0,.04,0,.35-1.15.76-2.44,1.16-3.61.55-1.63,1.1-3.26,1.67-4.88.92.11,1.85.23,2.77.35.32,1.72.64,3.45.95,5.17.23,1.28.45,2.57.63,3.83.01,0,.02,0,.04,0,.41-1.21.83-2.44,1.26-3.62.57-1.58,1.15-3.15,1.74-4.72,1.27.19,2.54.4,3.81.62-1.84,4.46-3.62,8.95-5.32,13.48-1.26-.18-2.52-.35-3.79-.51-.2-1.18-.41-2.36-.62-3.54-.23-1.3-.45-2.53-.65-3.8-.01,0-.02,0-.04,0-.39,1.22-.79,2.46-1.19,3.65-.37,1.1-.73,2.19-1.09,3.29-1.23-.13-2.47-.25-3.71-.36-1.05-4.89-2.16-9.78-3.35-14.67Z"/>
        <path class="cls-27" d="M176.08,132.89c1.3.24,2.59.5,3.88.77,1.11,4.99,2.13,9.97,3.06,14.95-1.29-.28-2.57-.56-3.86-.82-.16-1.01-.32-2.01-.49-3.02-1.44-.29-2.89-.56-4.33-.82-.42.9-.84,1.8-1.26,2.7-1.23-.21-2.46-.41-3.69-.61,2.14-4.43,4.37-8.82,6.69-13.15ZM178.14,141.66c-.08-.47-.17-.94-.25-1.41-.14-.84-.32-1.86-.45-2.75-.01,0-.02,0-.04,0-.36.82-.79,1.72-1.16,2.48-.2.4-.39.81-.59,1.21.83.15,1.65.31,2.48.47Z"/>
        <path class="cls-27" d="M186.28,135.05c1.69.4,3.39.81,5.07,1.25,1.52.39,2.69,1.02,3.54,2.09.85,1.06,1.23,2.43.9,4.01-.32,1.57-1.19,2.6-2.32,3.12-1.14.53-2.38.53-3.84.17-.43-.11-.86-.22-1.29-.32-.25,1.43-.51,2.87-.76,4.3-1.18-.29-2.36-.56-3.54-.83.74-4.6,1.49-9.19,2.23-13.78ZM189.89,142.56c.71.18,1.12.17,1.5-.01.39-.18.65-.58.75-1.11.1-.53,0-1.03-.28-1.38-.29-.35-.66-.57-1.38-.75-.34-.09-.68-.17-1.02-.26-.19,1.08-.39,2.17-.58,3.25.34.08.67.17,1.01.25Z"/>
      </g>
      <g>
        <path class="cls-27" d="M74.26,157.24c1.34.39,2.69.77,4.03,1.14-.88,5.69-1.77,11.39-2.65,17.09-1.41-.37-2.82-.75-4.23-1.15.94-5.7,1.89-11.39,2.84-17.08Z"/>
        <path class="cls-27" d="M80.52,158.96c1.26.33,2.52.65,3.79.95.97,2.36,1.97,4.71,2.98,7.06.64,1.45,1.2,2.76,1.78,4.14.01,0,.03,0,.04,0,.16-1.47.31-2.94.49-4.38.22-1.83.44-3.65.67-5.47,1.3.28,2.6.54,3.9.79-.63,5.69-1.26,11.39-1.88,17.09-1.33-.24-2.65-.5-3.98-.77-1.07-2.33-2.12-4.68-3.14-7.03-.64-1.46-1.19-2.78-1.74-4.18-.01,0-.03,0-.04,0-.18,1.47-.36,2.94-.56,4.38-.25,1.83-.5,3.66-.75,5.49-1.36-.31-2.72-.64-4.07-.98.84-5.71,1.69-11.4,2.54-17.1Z"/>
        <path class="cls-27" d="M101.06,163.29c1.84.3,3.68.57,5.53.83,1.66.23,2.97.77,4.02,1.89,1.05,1.12,1.66,2.69,1.54,4.67-.11,1.97-.91,3.41-2.11,4.27-1.2.86-2.62,1.1-4.33.88-.5-.07-1.01-.13-1.51-.2-.14,1.78-.28,3.57-.42,5.35-1.42-.19-2.84-.39-4.26-.6.52-5.7,1.03-11.39,1.55-17.07ZM105.64,171.98c.81.11,1.26.02,1.67-.26.41-.28.65-.82.69-1.48.05-.66-.11-1.25-.47-1.63-.36-.38-.78-.58-1.58-.68-.38-.05-.76-.1-1.14-.16-.11,1.35-.22,2.7-.32,4.05.38.05.77.11,1.15.16Z"/>
        <path class="cls-27" d="M114.07,165.02c1.92.2,3.83.37,5.75.52,1.56.12,2.81.58,3.84,1.55,1.03.97,1.65,2.41,1.61,4.23-.05,2.15-1.01,3.74-2.61,4.54,1.17,2.34,2.36,4.68,3.57,7-1.58-.06-3.16-.13-4.75-.22-.98-2.09-1.94-4.19-2.88-6.29-.33-.02-.65-.05-.98-.07-.09,2.03-.18,4.06-.26,6.1-1.41-.1-2.82-.22-4.23-.35.31-5.67.62-11.34.93-17ZM119.11,172.93c.73.05,1.14-.04,1.49-.29.35-.26.55-.76.57-1.35.02-.59-.14-1.13-.47-1.44-.33-.31-.73-.45-1.44-.51-.44-.03-.88-.07-1.32-.11-.05,1.2-.1,2.39-.16,3.59.44.04.89.07,1.33.1Z"/>
        <path class="cls-27" d="M126.54,174.41c.12-4.93,3.47-8.53,7.82-8.46,4.37.06,7.72,3.72,7.86,8.6.14,4.87-3.19,8.73-7.82,8.72-4.61-.01-7.98-3.94-7.86-8.86ZM138.05,174.61c-.04-2.5-1.52-4.41-3.68-4.44-2.16-.03-3.63,1.86-3.66,4.38-.02,2.51,1.46,4.48,3.68,4.49,2.22.01,3.69-1.93,3.65-4.43Z"/>
        <path class="cls-27" d="M150.7,173.34c2.04-.12,4.08-.26,6.11-.43.18,2.7.36,5.39.53,8.09-1.33.88-3.21,1.54-5.07,1.66-5.16.36-8.64-3.18-8.75-8.06-.12-4.99,3.14-8.75,7.79-9.02,1.74-.1,3.34.3,4.6.93.1,1.49.19,2.98.29,4.47-1.36-.79-3-1.34-4.49-1.25-2.61.16-4.11,2.15-4.02,4.68.09,2.48,1.75,4.41,4.4,4.24.37-.02.8-.1,1.08-.21-.03-.58-.06-1.16-.1-1.74-.73.05-1.47.1-2.2.14-.06-1.17-.11-2.34-.17-3.51Z"/>
        <path class="cls-27" d="M158.33,165.34c1.91-.16,3.83-.35,5.74-.56,1.56-.17,2.85.04,3.98.79,1.13.75,1.93,2.01,2.12,3.76.22,2.07-.54,3.77-2.01,4.83,1.44,2.03,2.91,4.05,4.4,6.05-1.57.23-3.15.45-4.72.66-1.23-1.82-2.44-3.65-3.63-5.49-.32.04-.65.07-.97.11.17,1.96.33,3.92.49,5.89-1.4.16-2.81.31-4.21.45-.4-5.49-.79-10.98-1.19-16.47ZM164.29,172c.72-.08,1.12-.24,1.43-.55.32-.31.45-.83.4-1.39-.05-.56-.28-1.06-.65-1.29-.36-.23-.77-.3-1.49-.22-.44.05-.88.1-1.31.14.1,1.16.19,2.31.29,3.47.44-.05.89-.1,1.33-.15Z"/>
        <path class="cls-27" d="M171.51,163.86c3.09-.43,6.18-.92,9.26-1.46.18,1.29.36,2.57.54,3.86-1.77.32-3.54.62-5.32.9.09.76.19,1.52.28,2.28,1.51-.24,3.02-.5,4.53-.77.17,1.21.34,2.43.5,3.64-1.53.28-3.05.54-4.58.79.1.82.2,1.64.31,2.45,1.9-.31,3.8-.65,5.69-1,.18,1.28.36,2.57.55,3.85-3.31.63-6.63,1.19-9.95,1.7-.61-5.41-1.21-10.82-1.82-16.23Z"/>
        <path class="cls-27" d="M189.47,173.51c.93-.2,1.44-.67,1.31-1.44-.1-.59-.51-.8-1.43-.92-.92-.12-2.81-.14-4.06-.74-1.25-.6-1.99-1.64-2.24-3.32-.47-3.28,1.34-5.6,4.53-6.25,1.44-.29,3.35-.27,4.81.18.24,1.35.48,2.71.72,4.06-1.91-.66-3.81-.71-4.78-.51-.87.18-1.31.63-1.2,1.31.1.59.52.8,1.4.92.88.11,2.74.15,4.01.68,1.27.53,2.08,1.66,2.37,3.27.61,3.3-1.34,5.75-4.81,6.5-1.58.34-3.67.36-5.3-.16-.21-1.44-.42-2.87-.63-4.31,2.04.9,4.27.94,5.29.72Z"/>
        <path class="cls-27" d="M201.62,170.65c.93-.24,1.42-.73,1.26-1.49-.12-.58-.54-.76-1.46-.84-.92-.08-2.82,0-4.09-.54-1.27-.53-2.05-1.53-2.36-3.18-.59-3.23,1.14-5.61,4.32-6.4,1.44-.36,3.34-.42,4.82-.05.29,1.33.58,2.66.87,3.99-1.94-.56-3.84-.52-4.81-.28-.86.22-1.29.69-1.15,1.36.12.58.55.77,1.43.84.89.07,2.75.02,4.04.48,1.29.47,2.14,1.55,2.49,3.13.72,3.24-1.14,5.76-4.59,6.66-1.57.41-3.67.53-5.32.09-.26-1.41-.52-2.82-.78-4.23,2.08.8,4.31.73,5.32.47Z"/>
      </g>
    </g>
  </g>
</svg>