<?xml version="1.0" encoding="UTF-8"?>
<svg id="Layer_2" data-name="Layer 2" xmlns="http://www.w3.org/2000/svg" xmlns:xlink="http://www.w3.org/1999/xlink" viewBox="0 0 880.72 880.96">
  <defs>
    <style>
      .cls-1 {
        fill: #a6ddff;
      }

      .cls-2 {
        fill: #3f1a17;
      }

      .cls-3 {
        fill: #749ab2;
      }

      .cls-4 {
        fill: #ffa93f;
      }

      .cls-5 {
        fill: #fbab48;
      }

      .cls-6, .cls-7, .cls-8, .cls-9, .cls-10, .cls-11, .cls-12, .cls-13, .cls-14, .cls-15, .cls-16, .cls-17, .cls-18, .cls-19 {
        fill: none;
        stroke-miterlimit: 10;
      }

      .cls-6, .cls-7, .cls-8, .cls-9, .cls-11, .cls-12, .cls-13, .cls-14, .cls-15, .cls-16, .cls-17, .cls-18, .cls-19 {
        stroke: #ffa93f;
        stroke-width: .5px;
      }

      .cls-20 {
        fill: #fefcfd;
      }

      .cls-21 {
        fill: #fac1b0;
      }

      .cls-7 {
        stroke-dasharray: 4.45 4.45;
      }

      .cls-8 {
        stroke-dasharray: 4.42 4.42;
      }

      .cls-9 {
        stroke-dasharray: 4.26 4.26;
      }

      .cls-22 {
        fill: url(#radial-gradient);
      }

      .cls-23 {
        fill: #ffffbd;
      }

      .cls-24 {
        fill: #cc8333;
      }

      .cls-10 {
        stroke: #f4f4f4;
      }

      .cls-25 {
        fill: #8fbdde;
      }

      .cls-11 {
        stroke-dasharray: 5.15 5.15;
      }

      .cls-26 {
        fill: #d8e9a2;
      }

      .cls-12 {
        stroke-dasharray: 4.57 4.57;
      }

      .cls-13 {
        stroke-dasharray: 5.74 5.74;
      }

      .cls-27 {
        fill: #2d1410;
      }

      .cls-28 {
        fill: #c9c2b6;
      }

      .cls-14 {
        stroke-dasharray: 5.05 5.05;
      }

      .cls-15 {
        stroke-dasharray: 3.77 3.77;
      }

      .cls-29 {
        fill: #ffc280;
      }

      .cls-30 {
        fill: #e8ddc5;
      }

      .cls-16 {
        stroke-dasharray: 3.76 3.76;
      }

      .cls-31 {
        fill: #fcf1d1;
      }

      .cls-17 {
        stroke-dasharray: 4.46 4.46;
      }

      .cls-18 {
        stroke-dasharray: 3.15 3.15;
      }

      .cls-19 {
        stroke-dasharray: 4.04 4.04;
      }
    </style>
    <radialGradient id="radial-gradient" cx="264.26" cy="316.89" fx="264.26" fy="316.89" r="212.72" gradientUnits="userSpaceOnUse">
      <stop offset="0" stop-color="#fff" stop-opacity="0"/>
      <stop offset=".86" stop-color="#848484" stop-opacity=".05"/>
      <stop offset="1" stop-color="#000" stop-opacity=".1"/>
    </radialGradient>
  </defs>
  <g id="Layer_2-2" data-name="Layer 2">
    <g>
      <path class="cls-4" d="M412.45,775.31c3.49,3.19,8.86,7.63,16.08,11.84,10.46,6.11,18.91,8.31,25.91,10.58,9.42,3.04,22.56,8.25,38.05,17.69-.35,2.13-.57,5.69,1.35,8.88,1.08,1.8,3.83,3.34,9.28,6.35,6.76,3.73,10.19,5.6,12.77,5.87,3.53.37,6.47-.4,8.25-1.03-.55,1.75-1.71,6.28.4,10.71,1.72,3.61,4.73,5.29,8.72,7.54,3.35,1.88,7.47,4.19,13.33,4.76,10.02.98,17.63-3.84,21.34-6.19,2.79-1.77,5.66-3.58,8.17-7.06,1.9-2.63,1.88-3.85,3.93-5.98,3.42-3.58,5.88-2.68,7.81-5.05,3.43-4.21,1.12-13.74-4.36-18.96-4.44-4.23-10.14-4.84-11.36-4.97-4.92-.53-5.83,1.27-12.44.77-1.92-.15-8.9-.69-9.94-3.96-.27-.84.11-1.05-.12-2.02-.58-2.41-3.43-3.25-7.62-5.2-6.8-3.17-6.43-4.29-10.31-5.16-3.91-.87-3.87.35-7.14-.63-4.82-1.45-6.05-4.47-9.91-4.68-2.2-.12-4.02.73-5.08,1.35-3.74-1.68-9.57-4.23-16.82-7.14-14.53-5.83-19.77-7.09-28.32-11.42-4.62-2.34-11.2-6.09-18.64-11.9-11.1,5.01-22.21,10.01-33.31,15.02Z"/>
      <path class="cls-23" d="M543.06,848.38c23.53,21.19,36.17,32.57,36.17,32.57,0,0,.05-.02.14-.05,3.74-1.39,14.78-5.65,24.19-10.84,12.53-6.92,19.31-10.66,19.35-15.97.01-1.52-.54-2.1-9.21-11.65-5.25-5.78-11.55-10.56-16.59-16.53-.82-.97-2.83-3.42-6.15-4.2-1.34-.32-2.49-.27-3.18-.2.54.75,1.21,1.86,1.66,3.33.68,2.2.55,4.1.39,5.18,5.58,5.76,10.55,10.05,14.26,13.04,4.37,3.52,7.67,5.79,7.21,8.17-.36,1.85-2.77,2.53-7.77,4.79-4.88,2.2-8.75,4.34-11.4,5.9-5.92-6.49-11.84-12.97-17.77-19.46.54-4.37.74-11.76-3.66-15.8-1.1-1.01-3.59-2.82-4.38-2.18-.87.7.74,4.02.95,4.44,1.08,3.14,2.04,7.25,2.01,12.06,0,1.27-.09,2.47-.21,3.6,5.64,6.35,11.28,12.69,16.92,19.04-3.35,3.45-6.22,4.15-8.04,4.24-4.8.23-5.51-3.66-17.87-13.76-5.79-4.73-9.48-7.01-10.26-11.63-.26-1.58-.2-3.45-1.27-3.91-1.49-.64-4.44,1.71-5.5,4.55-.86,2.3-.29,4.43,0,5.29Z"/>
      <path class="cls-24" d="M526.2,826.64c1.81-2.78,4.59-6.41,8.67-9.93,4.68-4.04,9.29-6.4,12.59-7.78,1.41.62,2.81,1.23,4.22,1.85-3.26,1.09-8.54,3.31-13.78,7.85-5.7,4.94-8.73,10.35-10.22,13.56-.49-1.85-.99-3.7-1.48-5.56Z"/>
      <ellipse class="cls-29" cx="546.21" cy="820.77" rx="6.71" ry="3.96" transform="translate(-337.21 383.07) rotate(-30)"/>
      <ellipse class="cls-29" cx="527.31" cy="808.27" rx="5.99" ry="3.34" transform="translate(-333.49 371.94) rotate(-30)"/>
      <path class="cls-25" d="M664.85,685c3.72,2.91,9.42,6.93,16.93,10.58,10.9,5.3,19.49,6.85,26.64,8.57,9.62,2.31,23.13,6.5,39.29,14.73-.19,2.15-.14,5.72,2.02,8.75,1.22,1.71,4.07,3.04,9.74,5.62,7.02,3.2,10.59,4.8,13.18,4.88,3.54.1,6.42-.9,8.15-1.66-.42,1.79-1.23,6.39,1.21,10.65,1.99,3.47,5.12,4.92,9.28,6.85,3.48,1.62,7.77,3.6,13.65,3.73,10.06.21,17.29-5.18,20.8-7.8,2.64-1.97,5.37-4.01,7.61-7.66,1.69-2.76,1.58-3.98,3.46-6.26,3.14-3.83,5.66-3.12,7.41-5.63,3.1-4.46.07-13.78-5.8-18.57-4.75-3.87-10.48-4.05-11.71-4.09-4.94-.15-5.72,1.72-12.34,1.71-1.93,0-8.93,0-10.22-3.19-.33-.81.03-1.06-.28-2-.76-2.36-3.66-2.97-8-4.6-7.02-2.64-6.74-3.78-10.67-4.35-3.96-.57-3.84.64-7.17-.09-4.92-1.08-6.37-3.99-10.24-3.91-2.21.05-3.95,1.04-4.96,1.73-3.85-1.38-9.86-3.49-17.31-5.83-14.93-4.71-20.25-5.56-29.11-9.23-4.78-1.98-11.63-5.21-19.49-10.44-10.69,5.84-21.38,11.68-32.07,17.52Z"/>
      <path class="cls-23" d="M800.66,747.89c25.08,19.33,38.55,29.71,38.55,29.72,0,0,.04-.02.13-.06,3.62-1.67,14.31-6.76,23.29-12.66,11.96-7.85,18.44-12.11,18.08-17.4-.1-1.51-.7-2.05-10.08-10.91-5.68-5.36-12.32-9.65-17.81-15.21-.89-.9-3.09-3.19-6.45-3.72-1.36-.21-2.5-.08-3.19.05.59.7,1.34,1.77,1.91,3.19.85,2.14.87,4.05.79,5.14,6.01,5.31,11.29,9.21,15.21,11.91,4.62,3.18,8.09,5.19,7.81,7.59-.22,1.87-2.57,2.73-7.38,5.37-4.69,2.57-8.39,4.99-10.91,6.75-6.4-6.02-12.8-12.03-19.2-18.05.2-4.39-.16-11.79-4.85-15.47-1.18-.93-3.79-2.53-4.53-1.84-.82.77,1.05,3.95,1.29,4.36,1.32,3.05,2.59,7.07,2.92,11.87.09,1.26.1,2.47.06,3.6,6.11,5.9,12.22,11.79,18.33,17.69-3.07,3.69-5.88,4.61-7.69,4.84-4.76.6-5.77-3.23-18.87-12.35-6.14-4.27-9.99-6.27-11.11-10.82-.38-1.55-.46-3.42-1.57-3.8-1.53-.53-4.3,2.05-5.14,4.95-.68,2.36.05,4.43.4,5.27Z"/>
      <path class="cls-3" d="M782.19,727.5c1.59-2.91,4.09-6.74,7.88-10.56,4.36-4.38,8.78-7.09,11.96-8.72,1.45.51,2.9,1.02,4.35,1.52-3.17,1.33-8.26,3.95-13.14,8.88-5.31,5.36-7.91,10.99-9.16,14.3-.63-1.81-1.27-3.62-1.9-5.43Z"/>
      <ellipse class="cls-1" cx="801.69" cy="720.12" rx="6.71" ry="3.96" transform="translate(-266.59 578.51) rotate(-34.38)"/>
      <ellipse class="cls-1" cx="781.89" cy="709.09" rx="5.99" ry="3.34" transform="translate(-263.83 565.4) rotate(-34.38)"/>
      <polygon class="cls-20" points="66.79 555.52 75.22 682.87 310.4 840.29 818.7 648.73 818.7 524.82 304.71 670.23 66.79 555.52"/>
      <path class="cls-4" d="M371.15,744.26l-1.02-41.31c-.19-7.69,4.81-14.55,12.18-16.72l62.1-18.32c10.89-3.21,21.81,4.95,21.81,16.3v39.82c0,7.37-4.75,13.9-11.75,16.17l-61.08,19.82c-10.82,3.51-21.96-4.38-22.24-15.75Z"/>
      <polygon class="cls-31" points="84.05 549.25 302.8 649.14 793.39 515.74 531.02 465.8 84.05 549.25"/>
      <polygon class="cls-28" points="84.05 549.25 66.67 555.46 304.71 670.23 818.7 524.82 793.39 515.74 302.8 649.14 84.05 549.25"/>
      <path class="cls-4" d="M223.07,3.97c-1.27-2.33-4.12-3-6.36-3.53-8.71-2.05-15.45,3.36-29.64,10.57-12.14,6.17-10.48,3.85-19.85,8.89-5.89,3.16-17.6,9.45-28.15,20.07-10.49,10.56-15.19,21.01-20.89,32.89-10.2,21.25-14,40.63-15.56,53.78l47.78,5.33c1.62-8.84,4.27-21.15,8.67-35.56,4.8-15.73,7.2-23.59,11.56-30.48,1.86-2.94,3.63-5.23,5.43-7.19,11.79-12.83,18.36-15.53,29.68-26.33,3.11-2.97,21.6-20.61,17.33-28.44ZM147.89,82.39c-.42,3.05-3.61,6.31-7.13,5.69-3.29-.58-4.75-4.16-4.94-6.44-.06-.71-.24-2.82,1.22-4.44,1.68-1.87,4.23-1.68,4.85-1.63.31.02,3.68.33,5.29,3.25.34.61.94,1.95.71,3.58ZM158.98,56.81c-.31,2.39-2.84,4.56-4.72,3.94-1.49-.49-2.26-2.64-1.95-4.33.43-2.31,3.01-4.27,4.83-3.58,1.4.53,2.02,2.48,1.83,3.97ZM178.31,37.41c-.56,1.51-2.11,3.41-3.49,3.04-1.05-.29-1.73-1.81-1.56-3.04.33-2.42,3.99-3.86,5.06-3.04.86.67.06,2.88,0,3.04Z"/>
      <path class="cls-25" d="M444.7,17.78c-4.93-3.96-12.45-1.73-19.26.3-9.1,2.71-14.75,6.98-22.66,9.63-.61.2-2.61.86-5.23,1.97,0,0-3.05,1.3-6.07,2.95-13.31,7.29-25.3,21-25.3,21-3.86,4.42-12.77,15.2-21.93,33.78-5.83,11.84-13,29.33-17.37,51.96l47.78,5.33c1.1-7.4,2.95-19.63,5.44-35.37,2.08-13.14,3.22-19.87,7.73-27.56,2.58-4.41,5.86-7.78,12.42-14.52,10.53-10.82,16.98-17.45,26.96-24,12.76-8.37,20.66-9.63,21.49-16.09.47-3.65-1.51-7.38-4.01-9.39ZM367.43,97.22c-.97,1.53-2.97,2.56-4.89,2.09-3.06-.76-3.37-4.75-3.39-4.98-.03-.42-.2-3.02,1.56-4.14,1.11-.71,2.37-.45,2.91-.33,1.99.41,4.2,2.07,4.47,4.47.04.32.14,1.62-.66,2.89ZM382.56,68.81c-.95,3.17-4.54,5.63-6.32,4.74-1.39-.7-1.56-3.37-1.08-5.17.87-3.27,4.5-5.9,6.31-5.03,1.43.68,1.67,3.5,1.08,5.46ZM406.37,46.75c-1.57,2.76-5.66,3.95-7,2.67-1-.96-.41-3.24.33-4.56,1.5-2.68,5.23-4.29,6.71-3.11,1.14.9.87,3.4-.04,5Z"/>
      <polygon class="cls-2" points="84.05 549.25 60.34 520.8 496.57 449.31 531.02 465.8 84.05 549.25"/>
      <polygon class="cls-20" points="33.79 97.22 6.48 107.67 30.78 524.49 66.67 555.46 84.05 549.25 60.34 520.8 33.79 97.22"/>
      <polygon class="cls-28" points="775.38 520.64 533.33 471.45 97.35 555.32 84.05 549.25 531.02 465.8 793.39 515.74 775.38 520.64"/>
      <polygon class="cls-2" points="34.84 114.04 494.76 130.59 494.67 114.92 33.79 97.22 34.84 114.04"/>
      <polygon class="cls-2" points="486.48 451.09 483.51 130.18 494.76 130.59 496.57 449.81 486.48 451.09"/>
      <polygon class="cls-31" points="42.05 114.12 67.25 519.67 486.48 451.09 483.51 130.18 42.05 114.12"/>
      <path class="cls-4" d="M702.83,651.1c.24,2.51-1.33,5.09-3.54,5.78-2.25.71-4.32-.81-4.57-3.4-.26-2.6,1.41-5.22,3.68-5.84,2.23-.61,4.19.95,4.43,3.46Z"/>
      <path class="cls-4" d="M725.17,644.55c.19,2.27-1.08,4.55-2.87,5.11-1.82.57-3.48-.85-3.69-3.19-.2-2.34,1.14-4.66,2.97-5.15,1.8-.49,3.39.96,3.59,3.23Z"/>
      <polygon class="cls-2" points="42.05 114.12 67.25 519.67 60.34 520.8 34.84 114.04 42.05 114.12"/>
      <polygon points="509.35 455.42 505.84 116.44 494.67 114.92 496.57 449.81 509.35 455.42"/>
      <polygon points="508.41 441.25 531.02 465.8 509.35 455.42 508.41 441.25"/>
      <path class="cls-27" d="M567.69,668.49c17.09-8.02,37.22-16.17,60.19-23.22,21.64-6.65,41.71-11.06,59.48-14.02v25.77c-14.43,7.94-31.99,16.23-52.54,23.37-25.46,8.84-48.63,13.5-67.69,16,.19-9.3.38-18.6.57-27.9Z"/>
      <path class="cls-27" d="M654.83,634.36v-7.65l3.67-2.58c1.66-1.17,2.64-3.07,2.62-5.1l-.06-5.07c2.32-.85,24.03-8.49,37.83,3.28,1.86,1.58,3.9,3.8,5.69,6.92-1.26,3.37-3.09,7.4-5.78,11.68-3.22,5.13-6.7,9.04-9.61,11.87-.09-6.37-.19-12.75-.28-19.12l-34.08,5.76Z"/>
      <path class="cls-27" d="M553.88,659.61l-8.78.88-.99-9.91c-7.15,2.17-19.6,7-31.44,17.98-8.31,7.71-13.4,15.76-16.43,21.53,2.48,2.71,5.01,4.75,7.36,6.3,16.94,11.14,37.61,5.33,43.05,3.61-.52-3.54-1.04-7.08-1.56-10.62l10.62-2.27-1.84-27.5Z"/>
      <polygon class="cls-4" points="664.39 623.12 665.84 621.59 678.45 627.48 674.14 627.74 664.39 623.12"/>
      <polygon class="cls-4" points="566.87 668.17 549.54 660.94 553.37 660.18 569.49 667.12 566.87 668.17"/>
      <polygon class="cls-4" points="555.56 689.19 550.93 689.19 565.4 695.86 566.23 694.01 555.56 689.19"/>
      <path class="cls-4" d="M742.27,571.69l36.81-10.32c10.84-3.04,21.59,5.11,21.59,16.37v35.72c0,7.28-4.64,13.76-11.54,16.1l-36.81,12.48c-11.02,3.74-22.46-4.46-22.46-16.1v-37.88c0-7.62,5.07-14.31,12.41-16.37Z"/>
      <path class="cls-26" d="M257.47,816.19c3.95,4.76,21.23,24.52,50.65,28.14,38.82,4.78,65.08-22.65,67.77-25.56.26-3.75,1.13-22.19-12.19-36.58-13.33-14.4-35.5-18.95-55.81-11.26-15.55-7.47-33.81-3.88-44.32,8.21-8.61,9.9-10.89,24.2-6.1,37.05Z"/>
      <path class="cls-25" d="M72.86,651.47c-.22.05-.9.21-1.46.84-.6.67-.66,1.43-.67,1.65.46,4.73.85,8.82,1.17,12.07,1.3,13.2,1.44,14.25,2.29,16.13,4.22,9.33,13.83,12.76,14.75,13.08,2.48.84,5,1,6.56,1.11-.57-.31-5.51-3.94-7.72-6.07-1.99-1.93-2.1-3.76-4.11-9.88-4.07-12.41-6.13-18.65-7.57-20.54-.43-.56-1.91-2.41-2.72-5.24-.37-1.29-.49-2.4-.53-3.14Z"/>
      <path class="cls-27" d="M791.16,658.65c4.81-.03,8.77-.75,11.52-1.45,3.33-.85,7.91-2.06,12.61-5.58,1.31-.99,1.97-1.48,2.67-2.29,3.05-3.56,2.05-6.96,2.82-14.96.82-8.55,2.72-12.56.33-14.71-.66-.59-2.26-1.46-2.84-1.06-.52.36.3,1.52-.27,3.21-.9,2.65-2.36,3.74-4.16,5.49-3.34,3.25-9.31,11.58-12.31,20.66-.96,2.89-1.03,6.21-4.03,7.79-2.78,1.46-4.64,2.23-6.35,2.91Z"/>
      <path class="cls-20" d="M337.35,784.99c-.55,4.5-4.55,8.14-8.94,8.14s-7.49-3.65-6.94-8.15,4.55-8.14,8.94-8.14,7.49,3.65,6.94,8.15Z"/>
      <path class="cls-20" d="M810.48,646.64c.15,1.66-.56,3.23-1.6,3.51s-2-.85-2.15-2.51.56-3.23,1.6-3.51,2,.85,2.15,2.51Z"/>
      <path class="cls-20" d="M818.68,631.82c.07,1.3-.59,2.5-1.48,2.68s-1.67-.73-1.74-2.03.59-2.5,1.48-2.68,1.67.73,1.74,2.03Z"/>
      <path class="cls-20" d="M277.55,810.22c.59,4.5-2.48,8.14-6.87,8.14s-8.42-3.65-9.01-8.15c-.59-4.5,2.48-8.14,6.87-8.14s8.42,3.65,9.01,8.15Z"/>
      <path class="cls-20" d="M79.13,677.58c.02,1.92-.96,3.02-2.19,2.44s-2.23-2.6-2.25-4.52.96-3.02,2.19-2.44,2.23,2.6,2.25,4.52Z"/>
      <path class="cls-20" d="M363.6,814.11c-.44,3.6-3.64,6.51-7.15,6.51s-5.99-2.92-5.55-6.52,3.64-6.51,7.15-6.51,5.99,2.92,5.55,6.52Z"/>
      <polygon class="cls-22" points="42.05 114.12 67.25 519.67 486.48 451.09 483.51 130.18 42.05 114.12"/>
      <path class="cls-30" d="M233.48,617.49l325.4-82.57c15.19-3.85,31.1-3.79,46.26.18l59.6,15.62-361.95,98.42-69.31-31.65Z"/>
      <path class="cls-25" d="M140.84,216.31c4.49-.78,8.97-1.5,13.41-2.19-3.11,3.35-6.19,6.74-9.25,10.17,2.22,4.29,4.42,8.57,6.59,12.85-4.03-2.16-8.11-4.31-12.25-6.43-3.05,3.5-6.07,7.03-9.07,10.6.41-4.85.84-9.69,1.3-14.53-4.25-2.12-8.56-4.22-12.92-6.29,4.62-.94,9.22-1.83,13.79-2.68.48-4.83.98-9.66,1.51-14.48,2.33,4.33,4.63,8.66,6.9,12.98Z"/>
      <path class="cls-4" d="M222.54,207.13c4.03-.2,8.03-.36,12.01-.47-3.03,2.76-6.04,5.55-9.03,8.38,1.59,4.25,3.16,8.5,4.71,12.74-3.37-2.49-6.79-4.97-10.26-7.43-2.99,2.9-5.96,5.83-8.91,8.8.78-4.47,1.58-8.92,2.4-13.37-3.56-2.47-7.16-4.92-10.82-7.35,4.14-.34,8.26-.63,12.36-.88.84-4.43,1.7-8.85,2.57-13.27,1.68,4.29,3.33,8.57,4.96,12.85Z"/>
      <path class="cls-26" d="M295.63,208.07c3.6.28,7.18.6,10.73.95-2.92,2.22-5.83,4.48-8.72,6.77,1.07,4.16,2.13,8.31,3.16,12.45-2.8-2.72-5.64-5.44-8.53-8.14-2.9,2.36-5.78,4.75-8.65,7.18,1.06-4.08,2.14-8.15,3.23-12.2-2.96-2.71-5.96-5.42-9-8.11,3.7.17,7.39.37,11.05.61,1.11-4.03,2.23-8.05,3.37-12.05,1.14,4.19,2.26,8.36,3.36,12.54Z"/>
      <path class="cls-21" d="M360.87,217.46c3.21.69,6.4,1.4,9.57,2.15-2.8,1.73-5.58,3.51-8.36,5.32.64,4.02,1.27,8.04,1.88,12.05-2.31-2.89-4.65-5.77-7.03-8.64-2.79,1.87-5.56,3.77-8.33,5.71,1.27-3.7,2.56-7.38,3.86-11.05-2.44-2.89-4.92-5.77-7.43-8.64,3.3.59,6.59,1.21,9.85,1.87,1.31-3.64,2.63-7.26,3.96-10.87.7,4.04,1.37,8.08,2.04,12.12Z"/>
      <path class="cls-25" d="M418.98,234c2.86,1.03,5.69,2.09,8.51,3.17-2.66,1.3-5.32,2.63-7.97,4,.28,3.86.55,7.72.81,11.58-1.88-3-3.79-5.99-5.73-8.99-2.66,1.42-5.32,2.88-7.96,4.38,1.43-3.33,2.87-6.64,4.32-9.94-1.99-3.01-4.02-6.01-6.08-9.01,2.94.95,5.86,1.92,8.77,2.93,1.45-3.26,2.92-6.51,4.39-9.74.33,3.88.65,7.75.95,11.62Z"/>
      <path class="cls-26" d="M142.45,367.13c4.44.79,8.86,1.54,13.26,2.25-4.04,2.23-8.14,4.44-12.29,6.63.53,4.78,1.08,9.56,1.66,14.33-3.18-3.39-6.33-6.81-9.46-10.27-4.27,2.19-8.59,4.35-12.97,6.5,2.42-4.33,4.81-8.66,7.17-12.98-3.12-3.53-6.22-7.1-9.29-10.71,4.56.96,9.1,1.87,13.62,2.73,2.31-4.29,4.6-8.57,6.85-12.85.46,4.8.95,9.59,1.45,14.38Z"/>
      <path class="cls-5" d="M223.24,376.71c3.98.22,7.95.4,11.89.54-3.38,2.55-6.8,5.08-10.28,7.6.88,4.38,1.78,8.75,2.69,13.11-3.09-2.77-6.16-5.59-9.21-8.44-3.56,2.52-7.18,5.03-10.84,7.53,1.75-4.3,3.48-8.59,5.18-12.88-3.05-2.92-6.09-5.88-9.1-8.87,4.1.36,8.17.67,12.22.95,1.67-4.26,3.31-8.52,4.93-12.77.82,4.42,1.66,8.82,2.52,13.22Z"/>
      <path class="cls-25" d="M295.6,376.23c3.56-.26,7.11-.55,10.63-.88-2.8,2.77-5.65,5.53-8.53,8.28,1.14,3.98,2.29,7.95,3.46,11.9-2.97-2.23-5.93-4.49-8.88-6.79-2.96,2.76-5.96,5.52-9.01,8.26,1.2-4.2,2.38-8.4,3.54-12.59-2.95-2.37-5.89-4.77-8.81-7.21,3.67-.14,7.31-.32,10.94-.54,1.13-4.17,2.25-8.34,3.34-12.5,1.09,4.03,2.2,8.05,3.32,12.06Z"/>
      <path class="cls-26" d="M360.26,367.31c3.18-.66,6.34-1.35,9.49-2.07-2.31,2.93-4.65,5.85-7.03,8.76,1.33,3.59,2.67,7.17,4.03,10.73-2.84-1.73-5.67-3.5-8.49-5.31-2.44,2.93-4.92,5.85-7.43,8.77.75-4.06,1.48-8.12,2.19-12.17-2.83-1.87-5.65-3.77-8.46-5.71,3.28-.56,6.53-1.16,9.77-1.79.69-4.04,1.37-8.08,2.03-12.11,1.3,3.65,2.6,7.29,3.92,10.91Z"/>
      <path class="cls-21" d="M417.9,351.27c2.83-1,5.65-2.04,8.45-3.09-1.88,3.03-3.79,6.06-5.73,9.09,1.47,3.22,2.95,6.42,4.43,9.6-2.7-1.29-5.39-2.61-8.08-3.97-1.99,3.04-4.01,6.08-6.07,9.11.37-3.9.73-7.8,1.08-11.69-2.7-1.42-5.39-2.87-8.08-4.36,2.92-.92,5.82-1.87,8.7-2.85.33-3.88.64-7.76.93-11.64,1.44,3.28,2.9,6.55,4.36,9.8Z"/>
      <polygon class="cls-26" points="105.44 295.66 119.32 295.66 108.11 304.39 112.41 318.46 101.1 309.86 89.6 318.83 94.01 304.48 82.4 295.65 96.73 295.65 101.1 281.45 105.44 295.66"/>
      <polygon class="cls-21" points="440.6 295.71 448.68 295.71 442.15 302.37 444.66 313.11 438.08 306.53 431.43 313.33 433.98 302.42 427.27 295.71 435.55 295.71 438.08 284.89 440.6 295.71"/>
      <path class="cls-27" d="M230.88,250.27c3.25-.79,6.49-1.52,9.72-2.16,1.53,8.95,3.06,17.88,4.59,26.78,4.29-.96,8.56-1.77,12.82-2.45.35,2.81.7,5.62,1.05,8.42-6.96,1.15-13.96,2.69-20.99,4.61-2.39-11.69-4.79-23.43-7.19-35.21Z"/>
      <path class="cls-27" d="M257.96,245.3c3.16-.39,6.3-.7,9.43-.95.98,11.68,1.95,23.34,2.92,34.98-2.78.3-5.56.66-8.35,1.08-1.33-11.68-2.67-23.38-4.01-35.11Z"/>
      <path class="cls-27" d="M272.56,244c4.19-.23,8.36-.35,12.5-.34,3.36,0,6.2.67,8.42,2.37,2.22,1.7,3.47,4.25,3.43,7.37-.04,2.94-1.37,5.61-4.01,6.72v.1c3.41,1.33,4.95,4.5,4.89,8.05-.05,3.26-1.28,5.81-3.28,7.47-2.01,1.67-4.74,2.46-7.92,2.53-3.87.09-7.77.3-11.69.62-.78-11.62-1.56-23.25-2.34-34.89ZM285.14,257.53c2.12-.02,3.28-1.1,3.25-3.11-.02-1-.37-1.77-.98-2.25-.61-.48-1.57-.77-2.96-.76-.81,0-1.62.02-2.43.03.08,2.05.15,4.09.23,6.14.96-.02,1.93-.04,2.89-.05ZM288.68,269.69c.64-.57.91-1.43.9-2.38-.03-2.1-1.28-3.3-3.48-3.28-1.2.01-2.41.04-3.62.08.08,2.17.16,4.34.25,6.51.98-.03,1.95-.06,2.93-.08,1.5-.03,2.38-.27,3.02-.85Z"/>
      <path class="cls-27" d="M301.36,244.33c6.95.56,13.81,1.47,20.57,2.72-.24,2.66-.49,5.33-.73,7.99-3.78-.67-7.59-1.24-11.44-1.69-.09,1.7-.18,3.39-.27,5.09,3.22.37,6.43.81,9.61,1.34-.22,2.52-.43,5.04-.65,7.56-3.1-.49-6.23-.91-9.37-1.24-.23,4.31-.46,8.63-.69,12.95-2.61-.25-5.24-.45-7.88-.59.29-11.38.57-22.76.86-34.13Z"/>
      <path class="cls-27" d="M331.93,257.28c-3.04-.72-6.11-1.37-9.2-1.95.26-2.66.52-5.32.77-7.98,9.13,1.77,18.07,4.16,26.79,7.16-.48,2.54-.95,5.08-1.43,7.62-2.92-.99-5.87-1.9-8.85-2.75-1.28,8.18-2.56,16.38-3.85,24.6-2.46-.65-4.94-1.24-7.44-1.78,1.07-8.33,2.13-16.64,3.2-24.93Z"/>
      <path class="cls-27" d="M171.7,342.68c-11.92-2.35-18.2-12.6-15.79-23.48,2.47-11.12,12.17-17.13,22.99-14.68,3.39.77,6.48,2.28,8.79,4.28-.56,3.33-1.13,6.67-1.7,10.01-2.22-2.18-5.28-4.19-8.54-4.9-5.7-1.25-10.42,1.86-11.56,7.51-1.1,5.44,1.81,10.69,8.22,11.99,3.37.68,7,.06,10.12-1.31-.56,3.34-1.13,6.68-1.69,10.02-3.23,1.16-7.28,1.26-10.85.56Z"/>
      <path class="cls-27" d="M187.91,326.06c1.81-10.73,10.62-17.39,20.42-15.75,9.7,1.62,16,10.6,14.91,21.15-1.09,10.55-9.6,17.93-20.01,16.5-10.54-1.46-17.13-11.16-15.31-21.9ZM214,330.29c.65-5.43-2.09-10.05-6.91-10.82-4.86-.78-8.79,2.82-9.61,8.29-.83,5.47,1.96,10.25,7,10.99,5,.73,8.87-3.03,9.52-8.46Z"/>
      <path class="cls-27" d="M229.02,313.89c2.83.35,5.66.68,8.47.98,2.26,4.63,4.57,9.22,6.93,13.78,2.98-4.12,5.9-8.24,8.75-12.38,2.71.2,5.41.37,8.1.51-.58,11.76-1.17,23.53-1.76,35.31-2.99-.08-5.99-.19-9.01-.32.25-3.87.49-7.73.73-11.59.18-2.8.42-5.94.62-8.39h-.09c-1.42,2.18-3,4.45-4.54,6.57-1.38,1.93-2.78,3.85-4.2,5.77-1.13-2.1-2.24-4.2-3.35-6.31-1.26-2.39-2.47-4.85-3.57-7.25h-.09c-.18,2.47-.41,5.65-.66,8.48-.34,3.91-.69,7.81-1.03,11.72-2.98-.23-5.97-.49-8.98-.78,1.23-12.06,2.45-24.09,3.67-36.1Z"/>
      <path class="cls-27" d="M265.93,317.01c3.79.17,7.56.28,11.31.35,3.35.06,6.04.84,8.24,2.84,2.2,2,3.57,5.02,3.55,9.03-.02,4-1.45,7.09-3.76,9.14-2.31,2.05-5.14,2.91-8.62,2.91-1.03,0-2.06,0-3.09,0-.11,3.65-.21,7.31-.32,10.96-2.93,0-5.87,0-8.82-.06.5-11.74.99-23.46,1.49-35.18ZM276.15,333.54c1.64.01,2.55-.28,3.34-.95.79-.67,1.22-1.82,1.24-3.17.02-1.34-.36-2.5-1.11-3.17-.76-.68-1.64-.97-3.26-.99-.77-.01-1.54-.02-2.32-.04-.08,2.77-.16,5.53-.24,8.3.78,0,1.57.02,2.35.02Z"/>
      <path class="cls-27" d="M292.24,317.38c2.68-.05,5.35-.12,8-.21.11,8.65.21,17.31.32,25.96,4.03-.23,8.03-.52,12.01-.87.08,2.71.17,5.41.25,8.12-6.78.63-13.65,1.11-20.59,1.42,0-11.47,0-22.95.01-34.42Z"/>
      <path class="cls-27" d="M314.46,316.39c5.9-.42,11.73-.97,17.5-1.65.17,2.66.34,5.31.5,7.97-3.31.41-6.64.78-9.99,1.11.07,1.57.15,3.14.22,4.71,2.86-.29,5.71-.61,8.54-.96.15,2.5.3,5.01.46,7.51-2.86.37-5.74.72-8.64,1.03.08,1.69.16,3.39.24,5.08,3.59-.41,7.17-.86,10.71-1.35.17,2.65.34,5.29.51,7.94-6.22.91-12.51,1.69-18.87,2.32-.39-11.23-.79-22.46-1.18-33.71Z"/>
      <path class="cls-27" d="M342.98,321.26c-2.79.42-5.59.82-8.4,1.18-.18-2.65-.35-5.3-.53-7.95,8.02-.98,15.92-2.21,23.69-3.68.27,2.58.54,5.16.81,7.74-2.7.53-5.42,1.03-8.16,1.5.76,8.22,1.51,16.43,2.26,24.63-2.55.49-5.12.97-7.69,1.41-.66-8.27-1.32-16.55-1.99-24.85Z"/>
      <path class="cls-27" d="M359.92,310.39c5.42-1.06,10.79-2.24,16.08-3.53.34,2.52.68,5.05,1.02,7.57-3.04.76-6.09,1.48-9.17,2.17.18,1.49.36,2.99.54,4.48,2.63-.6,5.24-1.22,7.83-1.87.32,2.38.63,4.75.95,7.13-2.62.67-5.26,1.32-7.91,1.94.19,1.61.39,3.21.58,4.82,3.29-.78,6.56-1.61,9.81-2.47.34,2.51.68,5.02,1.02,7.52-5.69,1.56-11.44,2.99-17.27,4.29-1.16-10.66-2.32-21.35-3.48-32.05Z"/>
      <path class="cls-27" d="M379.48,306c3.14-.8,6.26-1.64,9.36-2.52,3.9-1.11,7.29-.46,9.93,1.64,2.63,2.09,4.49,5.38,5.27,9.74.73,4.1.33,8.24-1.41,11.8-1.74,3.57-4.66,6.33-8.92,7.67-3.25,1.02-6.53,2-9.83,2.93-1.47-10.39-2.94-20.81-4.42-31.26ZM396.53,323.38c.9-1.76,1.15-4.02.77-6.3-.38-2.28-1.32-4.17-2.66-5.23-1.35-1.06-2.92-1.43-4.7-.91-.84.24-1.67.48-2.51.72.82,5.37,1.64,10.73,2.46,16.08.86-.26,1.72-.51,2.57-.78,1.82-.56,3.17-1.83,4.08-3.59Z"/>
      <path d="M33.9,99.02c142.73,5.05,286.42,10.21,429.18,14.68.69.02,11.55.36,12.25.38,1.71-.36,3.42-.73,5.13-1.09l-445.62-15.78-.94,1.81Z"/>
      <path class="cls-21" d="M84.05,549.25c-16.32-3.23-24.29-9.7-28.25-16.39-3.84-6.48-2.31-8.96-5.25-28.16-1.39-9.09-3.42-21.55-11.71-32.51-4.5-5.95-9.53-9.73-12.95-11.94.4,7.46.57,13.55.65,17.67.32,16.37-.33,22.11,1.12,32.64.81,5.85,1.47,10.66,3.12,15.19,6.13,16.81,24.38,25.6,35.89,29.72,2.05-.69,4.11-1.39,6.19-2.12,3.82-1.34,7.55-2.71,11.2-4.09Z"/>
      <path class="cls-20" d="M54.49,541.31c.03,2.99-1.49,4.69-3.4,3.79s-3.47-4.04-3.5-7.03c-.03-2.99,1.49-4.69,3.4-3.79s3.47,4.04,3.5,7.03Z"/>
      <path class="cls-27" d="M4.94,172.96c4.25-1.4,7.27-3.45,9.46-5.63,8.51-8.46,8.44-22.7,8.11-42.57-.22-13.21-1.36-15.6.9-19.14,5.98-9.37,24.24-7.63,39.09-7.42-8.03-2.94-27.14-7.44-45.85.44-4.76,2-10.36,4.45-13.92,10.21-4.68,7.58-2.37,15.28-.27,31.46.98,7.57,2.13,18.73,2.48,32.66Z"/>
      <path class="cls-20" d="M36.11,482.23c.02,2.47-1.23,3.87-2.81,3.13s-2.87-3.34-2.89-5.81,1.23-3.87,2.81-3.13,2.87,3.34,2.89,5.81Z"/>
      <path class="cls-20" d="M17.94,115.73c-.78,2.96-2.75,4.65-4.4,3.76-1.64-.88-2.34-4-1.56-6.96s2.75-4.65,4.4-3.76,2.34,4,1.56,6.96Z"/>
      <path class="cls-20" d="M13.23,156.93c-.58,2.17-2.02,3.41-3.22,2.76s-1.72-2.94-1.14-5.11,2.02-3.41,3.22-2.76,1.72,2.94,1.14,5.11Z"/>
      <path class="cls-4" d="M96.71,685.19c.04,1.98-.47,3.2-1.13,2.75s-1.22-2.37-1.28-4.31.43-3.24,1.1-2.83,1.26,2.39,1.31,4.39Z"/>
      <path class="cls-4" d="M101.59,688.35c.02,2.06-.56,3.31-1.29,2.81s-1.32-2.51-1.35-4.53c-.03-2.04.53-3.35,1.26-2.9.74.45,1.37,2.53,1.39,4.62Z"/>
      <path class="cls-4" d="M106.98,691.85c0,2.15-.68,3.42-1.48,2.87-.79-.54-1.43-2.67-1.44-4.77,0-2.13.64-3.47,1.44-2.97.82.5,1.49,2.7,1.48,4.87Z"/>
      <path class="cls-4" d="M112.97,695.73c-.04,2.24-.82,3.54-1.71,2.93s-1.57-2.84-1.54-5.04c.03-2.22.77-3.6,1.67-3.04.91.56,1.63,2.88,1.59,5.15Z"/>
      <path class="cls-4" d="M119.65,700.07c-.09,2.35-.98,3.67-1.98,2.98s-1.72-3.05-1.65-5.34.92-3.73,1.93-3.11,1.79,3.09,1.7,5.47Z"/>
      <path class="cls-4" d="M127.15,704.94c-.14,2.46-1.18,3.8-2.31,3.03s-1.89-3.28-1.78-5.68c.11-2.43,1.11-3.87,2.25-3.17,1.15.71,1.99,3.33,1.84,5.83Z"/>
      <path class="cls-4" d="M135.64,710.44c-.21,2.58-1.43,3.93-2.7,3.06-1.25-.85-2.11-3.55-1.93-6.06.18-2.55,1.34-4.01,2.63-3.23,1.31.8,2.22,3.61,2,6.23Z"/>
      <path class="cls-4" d="M145.33,716.72c-.3,2.71-1.74,4.07-3.19,3.07-1.42-.97-2.36-3.86-2.11-6.51.25-2.68,1.63-4.17,3.1-3.27,1.5.92,2.49,3.94,2.19,6.7Z"/>
      <path class="cls-4" d="M156.48,723.96c-.41,2.86-2.12,4.2-3.79,3.05-1.64-1.12-2.66-4.24-2.32-7.02.35-2.83,1.99-4.32,3.69-3.28,1.74,1.06,2.83,4.34,2.42,7.24Z"/>
      <path class="cls-4" d="M169.45,732.37c-.56,3.02-2.61,4.32-4.56,2.99s-3.04-4.68-2.57-7.61c.48-2.98,2.45-4.47,4.44-3.26,2.03,1.25,3.25,4.81,2.69,7.88Z"/>
      <path class="cls-4" d="M184.73,742.29c-.75,3.19-3.25,4.43-5.55,2.86-2.24-1.53-3.51-5.22-2.87-8.32s3.05-4.62,5.4-3.18c2.41,1.48,3.79,5.39,3.02,8.64Z"/>
      <path class="cls-4" d="M203.01,754.14c-1.01,3.38-4.1,4.5-6.86,2.62-2.68-1.83-4.11-5.9-3.25-9.17.88-3.34,3.84-4.74,6.66-3.01,2.91,1.78,4.48,6.11,3.44,9.56Z"/>
      <path class="cls-4" d="M225.25,768.57c-1.37,3.58-5.26,4.5-8.62,2.2-3.26-2.23-4.9-6.75-3.74-10.22,1.19-3.55,4.9-4.81,8.37-2.69,3.57,2.19,5.39,7.04,3.99,10.7Z"/>
      <path class="cls-4" d="M252.9,786.51c-1.89,3.78-6.89,4.37-11.07,1.51-4.04-2.77-5.96-7.86-4.37-11.53s6.39-4.79,10.73-2.13c4.5,2.75,6.65,8.28,4.71,12.15Z"/>
      <path class="cls-4" d="M292.18,751.17c-1.17,3.36-4.08,3.7-6.43,1.02-2.24-2.56-3.28-7.1-2.38-10.36.94-3.4,3.67-4.37,6.19-1.91,2.64,2.58,3.85,7.74,2.63,11.26Z"/>
      <path class="cls-4" d="M292.88,726.1c-1.22,3.71-4.23,4.4-6.67,1.8-2.32-2.48-3.39-7.2-2.46-10.79s3.81-5.07,6.41-2.74c2.74,2.46,3.99,7.84,2.72,11.72Z"/>
      <path class="cls-4" d="M293.63,699.22c-1.27,4.11-4.4,5.19-6.92,2.69-2.4-2.38-3.51-7.31-2.55-11.25s3.95-5.87,6.66-3.68c2.85,2.31,4.14,7.93,2.81,12.23Z"/>
      <path class="cls-4" d="M80.7,632.99c-.48,3.53-2.27,4.63-3.94,2.57s-2.5-6.14-2.08-9.41c.42-3.29,2.05-4.64,3.7-2.93,1.73,1.79,2.8,6.21,2.32,9.77Z"/>
      <path class="cls-4" d="M79.44,611.2c-.46,3.12-2.15,4.11-3.71,2.3-1.49-1.73-2.34-5.41-1.93-8.31.4-2.92,1.94-4.13,3.49-2.63,1.62,1.58,2.62,5.48,2.16,8.63Z"/>
      <path class="cls-4" d="M78.33,591.88c-.44,2.78-2.04,3.67-3.51,2.08-1.41-1.53-2.19-4.8-1.81-7.39s1.84-3.7,3.3-2.37c1.53,1.4,2.45,4.87,2.01,7.68Z"/>
      <line class="cls-10" x1="86.98" y1="668.42" x2="260.31" y2="775.38"/>
      <path class="cls-4" d="M483.78,723.9c.24,2.51-1.33,5.09-3.54,5.78-2.25.71-4.32-.81-4.57-3.4-.26-2.6,1.41-5.22,3.68-5.84,2.23-.61,4.19.95,4.43,3.46Z"/>
      <path class="cls-4" d="M506.12,717.35c.19,2.27-1.08,4.55-2.87,5.11-1.82.57-3.48-.85-3.69-3.19-.2-2.34,1.14-4.66,2.97-5.15,1.8-.49,3.39.96,3.59,3.23Z"/>
      <ellipse class="cls-29" cx="403.35" cy="720.3" rx="18.67" ry="14.78" transform="translate(-354.6686 1047.3193) rotate(-84.0884)"/>
      <polygon class="cls-24" points="437.62 690.86 439.25 728.34 447.39 725.97 445.91 689.08 437.62 690.86"/>
      <ellipse class="cls-29" cx="779.92" cy="599.86" rx="18.67" ry="14.78" transform="translate(102.9174 1313.8524) rotate(-84.0884)"/>
      <polygon class="cls-24" points="749.1 587.54 748.55 625.05 756.82 623.16 757.49 586.25 749.1 587.54"/>
      <g>
        <path class="cls-6" d="M570.12,671.91c.03-.84.05-1.67.07-2.5.74-.35,1.49-.7,2.27-1.05"/>
        <path class="cls-14" d="M577.06,666.3c14.52-6.38,33.39-13.5,50.73-18.83,17.15-5.27,37.64-10.02,52.99-12.82"/>
        <path class="cls-6" d="M683.28,634.2c.84-.15,1.66-.29,2.46-.42v2.5"/>
        <path class="cls-13" d="M685.74,642.03v8.61"/>
        <path class="cls-6" d="M685.74,653.51v2.5c-.71.39-1.44.78-2.2,1.19"/>
        <path class="cls-11" d="M678.97,659.55c-12.66,6.33-29.87,13.61-45.06,18.88-20.3,7.05-43.14,12.78-59.74,15.44"/>
        <path class="cls-6" d="M571.62,694.26c-.84.12-1.67.24-2.48.34.02-.83.04-1.66.07-2.5"/>
        <path class="cls-19" d="M569.37,688.06c.21-4.69.5-9.47.68-14.13"/>
      </g>
      <g>
        <polyline class="cls-6" points="549.36 665.56 549.22 663.48 547.15 663.69"/>
        <polyline class="cls-6" points="543.98 664.01 541.91 664.22 541.7 662.14"/>
        <path class="cls-6" d="M541.29,658.03l-.21-2.07c-.61.19-1.28.4-1.98.63"/>
        <path class="cls-7" d="M534.94,658.15c-5.76,2.37-13.03,6.29-20.05,12.79-5.26,4.89-8.98,9.93-11.57,14.18"/>
        <path class="cls-6" d="M502.2,687.05c-.36.63-.69,1.25-.99,1.83.48.53.97,1.03,1.45,1.49"/>
        <path class="cls-12" d="M506.16,693.3c.4.29.8.56,1.19.82,11.25,7.4,24.46,5.82,31.66,4.16"/>
        <path class="cls-6" d="M541.21,697.72c.81-.22,1.48-.43,1.99-.59-.1-.69-.2-1.37-.3-2.06"/>
        <path class="cls-6" d="M542.21,690.34c-.1-.69-.2-1.37-.3-2.06l2.04-.43"/>
        <polyline class="cls-6" points="548.72 686.83 550.76 686.4 550.62 684.32"/>
        <line class="cls-16" x1="550.37" y1="680.57" x2="549.49" y2="667.44"/>
      </g>
      <g>
        <polyline class="cls-6" points="659.14 632.2 656.93 632.58 657.1 630.34"/>
        <polyline class="cls-6" points="657.19 629.21 657.37 626.97 659.21 625.69"/>
        <path class="cls-18" d="M661.68,623.75c.87-1.01,1.35-2.31,1.34-3.67v-.73"/>
        <path class="cls-6" d="M662.99,617.78l-.03-2.24c.32-.12,1.06-.38,2.13-.71"/>
        <path class="cls-8" d="M669.37,613.73c7.27-1.55,19.08-2.48,27.56,4.75.87.74,2.02,1.64,3.14,2.74"/>
        <path class="cls-6" d="M701.58,622.84c.47.57.9,1.19,1.28,1.84-.25.66-.55,1.34-.91,2.05"/>
        <path class="cls-15" d="M700.09,630.02c-1,1.65-2.13,3.38-3.25,5.16-1.68,2.67-2.59,4.54-3.57,6.14"/>
        <path class="cls-6" d="M692.22,642.87c-.43.56-.91,1.11-1.49,1.68-.01-.74-.02-1.49-.02-2.24"/>
        <path class="cls-17" d="M690.73,637.85c.02-2.23.04-4.48.05-6.69"/>
        <path class="cls-6" d="M690.78,628.94c0-.76,0-1.51-.02-2.24l-2.21.39"/>
        <line class="cls-9" x1="684.35" y1="627.81" x2="661.24" y2="631.83"/>
      </g>
      <path class="cls-27" d="M153.41,566.2c3.01-9.42,5.38-22.32-1.08-31.65-7.9-11.41-24.01-10.29-23.9-14.42.14-4.8,22.03-10.91,42.41-5.6,5.46,1.42,11.2,2.92,16.28,7.8,13.1,12.6,7.98,34.43,7.4,36.76l-41.12,7.1Z"/>
      <path class="cls-27" d="M458.9,508.38c2.55-8,4.57-18.94-.91-26.85-6.7-9.68-20.38-8.73-20.28-12.24.12-4.08,18.69-9.26,35.99-4.75,4.64,1.21,9.5,2.48,13.81,6.62,11.12,10.69,6.78,29.22,6.28,31.19l-34.89,6.03Z"/>
      <ellipse class="cls-29" cx="146.26" cy="520.64" rx="4.22" ry="1.67"/>
      <ellipse class="cls-29" cx="161.51" cy="517.41" rx="4.22" ry="1.67"/>
      <ellipse class="cls-29" cx="451.48" cy="469.08" rx="3.68" ry="1.45"/>
      <ellipse class="cls-29" cx="464.76" cy="466.26" rx="3.68" ry="1.45"/>
      <path class="cls-21" d="M463.09,113.74c0-.09,4.24-.04,10.11-.39,3.76-.22,4.93-.35,8.48-.72,12.42-1.28,18.72-1.83,23.21,2.1,1.3,1.14,2.05,2.28,2.46,2.92,4.67,7.29-.49,16.43-1.29,18.58-3.84,0,.7-5.29-.73-9.78-.46-1.45.65-4.39-.08-5.59-2.55-4.15-10.23-5.19-23.21-6.25-1.52-.13-5.21-.37-9.79-.56-5.29-.22-9.15-.24-9.15-.33Z"/>
    </g>
  </g>
</svg>