<?xml version="1.0" encoding="UTF-8"?>
<svg id="Layer_2" data-name="Layer 2" xmlns="http://www.w3.org/2000/svg" viewBox="0 0 703.96 374.16">
  <defs>
    <style>
      .cls-1 {
        fill: #8fbdde;
      }
    </style>
  </defs>
  <g id="Layer_2-2" data-name="Layer 2">
    <g>
      <g>
        <g>
          <g>
            <path class="cls-1" d="M62.39,129.14c6.72-2.99,13.48-5.93,20.27-8.81-3.79,6.13-7.52,12.28-11.19,18.45,4.86,5.22,9.68,10.46,14.44,15.72-7.02-1.49-14.08-2.91-21.17-4.28-3.59,6.18-7.11,12.38-10.58,18.59-.88-7.02-1.75-14.03-2.61-21.05-7.13-1.29-14.3-2.52-21.51-3.68,6.61-3.17,13.25-6.28,19.93-9.34-.85-7.02-1.68-14.05-2.5-21.07,5.02,5.13,10,10.28,14.92,15.46Z"/>
            <path class="cls-1" d="M195.01,78.73c7.14-2.27,14.3-4.48,21.5-6.64-4.52,5.7-8.98,11.43-13.37,17.17,4.35,5.7,8.65,11.42,12.89,17.16-6.95-2.22-13.94-4.37-20.97-6.47-4.32,5.77-8.58,11.57-12.77,17.39-.12-7.07-.22-14.14-.31-21.22-7.08-2.03-14.2-4-21.36-5.91,7.04-2.46,14.1-4.86,21.2-7.2-.08-7.07-.14-14.15-.2-21.22,4.52,5.63,8.98,11.27,13.39,16.94Z"/>
            <path class="cls-1" d="M335,42.6c7.49-1.5,15.01-2.93,22.55-4.3-5.21,5.19-10.35,10.4-15.44,15.65,3.8,6.13,7.55,12.27,11.24,18.43-6.82-2.94-13.69-5.84-20.6-8.68-5.01,5.28-9.97,10.59-14.86,15.93.65-7.04,1.32-14.09,1.99-21.13-6.97-2.77-13.98-5.49-21.03-8.15,7.41-1.7,14.84-3.34,22.3-4.91.69-7.04,1.39-14.08,2.1-21.12,3.97,6.07,7.89,12.17,11.75,18.27Z"/>
            <path class="cls-1" d="M481.19,21.77c7.78-.67,15.58-1.28,23.41-1.81-5.85,4.59-11.64,9.21-17.38,13.87,3.22,6.51,6.38,13.03,9.49,19.56-6.64-3.68-13.32-7.3-20.06-10.88-5.67,4.7-11.27,9.44-16.82,14.22,1.42-6.93,2.84-13.86,4.28-20.79-6.79-3.51-13.64-6.97-20.53-10.38,7.71-.89,15.45-1.71,23.21-2.46,1.45-6.93,2.92-13.85,4.39-20.77,3.39,6.47,6.73,12.96,10.01,19.45Z"/>
            <path class="cls-1" d="M632.29,17.22c8,.21,16.02.48,24.05.83-6.44,3.9-12.83,7.85-19.16,11.84,2.6,6.84,5.15,13.68,7.65,20.53-6.39-4.41-12.83-8.77-19.33-13.08-6.27,4.04-12.48,8.13-18.64,12.26,2.17-6.74,4.34-13.47,6.53-20.2-6.56-4.26-13.17-8.46-19.84-12.62,7.95-.02,15.92.03,23.91.14,2.2-6.73,4.42-13.45,6.64-20.17,2.78,6.82,5.51,13.64,8.18,20.47Z"/>
          </g>
          <g>
            <path class="cls-1" d="M86.77,341.69c7.9.1,15.78.13,23.65.09-6.15,4.21-12.35,8.37-18.6,12.49,2.76,6.78,5.57,13.56,8.43,20.33-6.75-4.2-13.45-8.44-20.09-12.73-6.32,4.07-12.7,8.1-19.13,12.08,2.3-6.69,4.59-13.39,6.87-20.1-6.58-4.35-13.11-8.75-19.58-13.2,7.94.33,15.88.58,23.79.77,2.27-6.71,4.52-13.42,6.76-20.13,2.58,6.8,5.21,13.6,7.9,20.39Z"/>
            <path class="cls-1" d="M235.78,335.26c7.67-.76,15.32-1.59,22.94-2.49-5.53,4.85-11.12,9.66-16.77,14.44,3.36,6.44,6.78,12.87,10.25,19.28-6.98-3.44-13.91-6.92-20.79-10.46-5.72,4.74-11.5,9.44-17.33,14.1,1.55-6.91,3.1-13.81,4.63-20.72-6.82-3.6-13.59-7.26-20.32-10.97,7.73-.55,15.45-1.17,23.14-1.85,1.52-6.91,3.02-13.83,4.52-20.74,3.19,6.48,6.43,12.95,9.72,19.4Z"/>
            <path class="cls-1" d="M379.73,312.82c7.37-1.57,14.72-3.21,22.03-4.91-4.87,5.41-9.8,10.79-14.79,16.14,3.94,6.05,7.93,12.08,11.98,18.09-7.14-2.68-14.24-5.41-21.3-8.2-5.06,5.32-10.19,10.6-15.38,15.86.79-7.03,1.57-14.06,2.34-21.1-7-2.86-13.96-5.77-20.87-8.73,7.45-1.37,14.88-2.81,22.28-4.31.76-7.03,1.5-14.07,2.23-21.1,3.77,6.1,7.59,12.19,11.46,18.26Z"/>
            <path class="cls-1" d="M517.36,275.36c7.01-2.33,13.99-4.72,20.94-7.17-4.17,5.88-8.39,11.74-12.68,17.58,4.48,5.6,9.02,11.18,13.6,16.74-7.25-1.92-14.46-3.9-21.63-5.93-4.37,5.81-8.8,11.61-13.29,17.38.02-7.07.04-14.15.04-21.22-7.12-2.11-14.2-4.28-21.24-6.5,7.11-2.15,14.18-4.35,21.23-6.61-.01-7.07-.04-14.14-.07-21.22,4.32,5.68,8.68,11.33,13.1,16.96Z"/>
            <path class="cls-1" d="M647.53,223.9c6.59-3.04,13.15-6.13,19.67-9.28-3.43,6.27-6.92,12.53-10.47,18.78,4.99,5.11,10.03,10.19,15.11,15.24-7.29-1.16-14.55-2.39-21.78-3.67-3.63,6.23-7.33,12.44-11.09,18.64-.74-7.03-1.5-14.07-2.26-21.1-7.18-1.36-14.33-2.79-21.44-4.28,6.7-2.87,13.37-5.78,20-8.76-.78-7.03-1.57-14.06-2.37-21.08,4.83,5.2,9.71,10.37,14.63,15.51Z"/>
          </g>
        </g>
        <polygon class="cls-1" points="33.5 255.67 54.2 251.06 40.16 266.96 50.94 285.22 31.48 276.78 17.44 292.68 19.46 271.57 0 263.13 20.7 258.52 22.72 237.4 33.5 255.67"/>
        <polygon class="cls-1" points="683.26 111.03 703.96 106.42 689.92 122.32 700.7 140.58 681.25 132.14 667.21 148.04 669.22 126.92 649.76 118.48 670.47 113.88 672.48 92.76 683.26 111.03"/>
      </g>
      <g>
        <g>
          <path class="cls-1" d="M221.19,138.23c5.51-2.52,11.09-4.95,16.71-7.28,6.26,12.98,12.25,26.05,17.95,39.21,7.61-3.12,15.33-6.05,23.15-8.78,1.6,4.25,3.17,8.5,4.71,12.77-12.81,4.46-25.33,9.47-37.52,14.97-7.85-17.13-16.19-34.1-25.01-50.9Z"/>
          <path class="cls-1" d="M269,119.23c5.82-1.98,11.69-3.86,17.61-5.64,6.6,17.8,12.71,35.73,18.32,53.74-5.32,1.57-10.6,3.23-15.83,4.97-6.21-17.81-12.91-35.51-20.1-53.08Z"/>
          <path class="cls-1" d="M296.49,110.73c8.09-2.26,16.27-4.32,24.53-6.19,6.75-1.53,12.76-1.79,18-.07,5.24,1.72,8.89,5.24,10.08,10.29,1.12,4.75-.58,9.64-5.59,12.59.01.05.02.1.04.15,7.52.65,11.95,5.12,13.14,10.87,1.1,5.3-.57,9.93-4.15,13.44-3.6,3.52-8.96,5.89-15.44,7.3-7.84,1.71-15.6,3.61-23.27,5.7-5.28-18.12-11.05-36.15-17.33-54.08ZM326.74,126.59c4.26-.96,6.2-3.19,5.35-6.39-.43-1.59-1.45-2.66-2.88-3.16-1.43-.5-3.47-.53-6.25.1-1.62.37-3.23.75-4.84,1.13.96,3.21,1.91,6.43,2.85,9.65,1.92-.46,3.85-.9,5.78-1.34ZM338.42,144.5c1.1-1.19,1.35-2.68.98-4.2-.81-3.35-3.82-4.75-8.26-3.77-2.43.53-4.84,1.09-7.26,1.66.96,3.42,1.89,6.85,2.81,10.28,1.96-.46,3.92-.91,5.88-1.34,3.03-.67,4.75-1.43,5.85-2.62Z"/>
          <path class="cls-1" d="M354.45,98.09c14.7-2.34,29.62-4.08,44.71-5.18.7,4.52,1.37,9.04,2.01,13.57-8.48.6-16.9,1.41-25.26,2.41.53,2.81,1.04,5.62,1.55,8.43,7.02-.84,14.09-1.53,21.2-2.08.6,4.26,1.17,8.52,1.71,12.78-6.95.52-13.85,1.19-20.71,1.99,1.19,7.15,2.32,14.31,3.36,21.46-5.7.66-11.37,1.42-17,2.28-3.35-18.6-7.21-37.16-11.57-55.67Z"/>
          <path class="cls-1" d="M425.74,105.33c-7.07.17-14.11.47-21.11.92-.61-4.53-1.25-9.05-1.93-13.58,20.76-1.38,41.84-1.55,63.13-.45.19,4.58.34,9.16.47,13.73-7.19-.39-14.35-.63-21.48-.72.93,14.43,1.58,28.84,1.93,43.22-5.91-.11-11.8-.12-17.66-.01-.83-14.35-1.94-28.73-3.35-43.11Z"/>
        </g>
        <g>
          <path class="cls-1" d="M141.44,234.84c6.11.16,12.21.27,18.3.31,8.88,18.98,18.42,37.86,28.62,56.59-6.7.14-13.42.22-20.15.24-1.79-3.87-3.55-7.75-5.29-11.62-7.38-.03-14.79-.14-22.21-.33-1.44,3.84-2.9,7.67-4.35,11.51-6.44-.19-12.9-.44-19.37-.76,8.36-18.58,16.51-37.22,24.45-55.94ZM157.59,268.39c-.79-1.81-1.58-3.62-2.36-5.44-1.37-3.24-3.01-7.18-4.26-10.65-.06,0-.12,0-.17,0-1.1,3.51-2.46,7.41-3.67,10.68-.65,1.74-1.29,3.48-1.94,5.22,4.14.09,8.27.15,12.4.19Z"/>
          <path class="cls-1" d="M189.37,234.92c7.94-.19,15.86-.47,23.75-.85,7.1-.34,12.94.55,18.01,3.51,5.07,2.96,8.6,7.71,9.37,14.25.78,6.54-1.61,11.77-6.09,15.38-4.48,3.61-10.28,5.32-17.64,5.69-2.16.11-4.33.21-6.49.31.57,5.92,1.17,11.83,1.8,17.75-6.13.28-12.27.5-18.43.66-1.68-18.91-3.1-37.81-4.27-56.7ZM214.04,260.39c3.47-.17,5.33-.74,6.86-1.93,1.53-1.19,2.2-3.1,1.98-5.29-.22-2.19-1.27-4.01-3-5.01-1.73-1.01-3.65-1.37-7.08-1.21-1.63.08-3.25.15-4.88.22.38,4.48.77,8.96,1.18,13.45,1.65-.07,3.3-.15,4.94-.23Z"/>
          <path class="cls-1" d="M245.02,231.98c7.82-.64,15.6-1.38,23.36-2.22,6.98-.75,12.78-.19,17.94,2.48,5.15,2.66,8.89,7.21,10.01,13.7,1.12,6.49-.95,11.84-5.17,15.7-4.22,3.85-9.85,5.89-17.09,6.68-2.13.23-4.25.46-6.38.68.89,5.87,1.8,11.75,2.73,17.62-6.03.63-12.07,1.2-18.13,1.72-2.67-18.78-5.09-37.57-7.26-56.35ZM270.7,255.99c3.41-.36,5.21-1.04,6.66-2.31,1.44-1.27,2-3.23,1.66-5.4-.34-2.17-1.46-3.93-3.22-4.83-1.76-.9-3.68-1.16-7.04-.8-1.6.17-3.2.34-4.8.5.62,4.45,1.25,8.9,1.89,13.35,1.62-.17,3.24-.34,4.86-.51Z"/>
          <path class="cls-1" d="M299.7,225.87c7.97-1.13,15.91-2.36,23.81-3.68,6.43-1.08,11.86-.79,16.8,1.4,4.94,2.19,8.64,6.25,9.99,12.2,1.6,7.03-.95,13.12-6.75,17.22,6.74,6.51,13.62,12.96,20.62,19.33-6.48,1.31-12.99,2.55-19.52,3.73-5.84-5.85-11.57-11.75-17.21-17.7-1.35.22-2.7.45-4.05.66,1.36,6.66,2.75,13.32,4.18,19.97-5.86.95-11.73,1.86-17.62,2.71-3.66-18.6-7.07-37.22-10.23-55.85ZM326.62,246.83c3-.5,4.59-1.17,5.81-2.34,1.22-1.16,1.61-2.98,1.21-4.9-.4-1.92-1.51-3.55-3.1-4.23-1.59-.68-3.31-.78-6.28-.28-1.81.3-3.63.6-5.45.89.76,3.92,1.52,7.85,2.3,11.77,1.84-.3,3.68-.6,5.51-.9Z"/>
          <path class="cls-1" d="M358.03,244.64c-3.73-16.12,6.93-31.08,24.36-35.19,17.52-4.12,33.85,4.46,38.76,20.26,4.89,15.77-4.8,31.7-23.51,36.16-18.61,4.44-35.89-5.13-39.61-21.23ZM404.52,234.08c-2.35-8.13-9.9-12.89-18.56-10.85-8.66,2.04-13.03,9.62-10.96,17.83,2.07,8.2,9.81,13.18,18.77,11.06,8.96-2.13,13.1-9.92,10.75-18.04Z"/>
          <path class="cls-1" d="M411.51,202.97c5.76-1.56,11.5-3.17,17.21-4.83,4.75,6.3,9.59,12.56,14.52,18.78,3.12,3.96,6.15,7.79,9.13,11.62.05-.02.11-.03.16-.05.1-4.87.28-10,.5-14.74.34-7.79.65-15.57.94-23.36,5.4-1.74,10.78-3.53,16.13-5.37-.66,20.17-1.52,40.34-2.57,60.52-5.59,1.78-11.2,3.51-16.84,5.2-13.67-15.65-26.73-31.59-39.17-47.77Z"/>
          <path class="cls-1" d="M473.88,183.72c11.89-4.14,23.64-8.52,35.26-13.12,1.7,4.2,3.42,8.4,5.14,12.59-6.69,2.65-13.42,5.23-20.2,7.73.96,2.48,1.92,4.96,2.89,7.43,5.79-2.14,11.54-4.33,17.26-6.57,1.63,3.95,3.28,7.9,4.93,11.84-5.8,2.28-11.62,4.5-17.48,6.66,1.06,2.67,2.13,5.33,3.2,8,7.29-2.7,14.53-5.48,21.72-8.35,1.79,4.17,3.6,8.34,5.42,12.5-12.6,5.02-25.34,9.8-38.22,14.32-6.89-17.62-13.54-35.3-19.94-53.04Z"/>
          <path class="cls-1" d="M516.8,167.53c6.96-2.83,13.86-5.74,20.72-8.73,8.69-3.79,16.85-4.27,23.89-1.86,7.03,2.41,12.73,7.29,16.36,14.57,3.42,6.85,4.18,14.31,1.51,21.35-2.67,7.03-8.49,13.18-18.07,17.38-7.28,3.19-14.61,6.29-21.99,9.31-7.71-17.26-15.18-34.6-22.41-52.02ZM563.36,189.93c1.43-3.48,1.1-7.54-.72-11.35-1.82-3.81-4.78-6.67-8.36-7.89-3.58-1.22-7.41-1.14-11.37.59-1.86.81-3.73,1.62-5.59,2.42,3.96,8.96,7.99,17.89,12.09,26.81,1.92-.83,3.84-1.66,5.76-2.49,4.08-1.78,6.76-4.61,8.19-8.09Z"/>
        </g>
      </g>
    </g>
  </g>
</svg>