<?xml version="1.0" encoding="UTF-8"?>
<svg id="Layer_2" data-name="Layer 2" xmlns="http://www.w3.org/2000/svg" viewBox="0 0 586.72 448.49">
  <defs>
    <style>
      .cls-1, .cls-2, .cls-3, .cls-4, .cls-5, .cls-6 {
        fill: none;
        stroke-miterlimit: 10;
        stroke-width: .26px;
      }

      .cls-1, .cls-2, .cls-5 {
        stroke: #2d1410;
      }

      .cls-7 {
        fill: #ffb666;
      }

      .cls-8 {
        fill: #ffa93f;
      }

      .cls-9 {
        fill: #fbab48;
      }

      .cls-10 {
        fill: #fefcfd;
      }

      .cls-2, .cls-4 {
        stroke-dasharray: 4.97 4.97;
      }

      .cls-11 {
        fill: #fac1b0;
      }

      .cls-12 {
        fill: #f9f9f9;
      }

      .cls-13 {
        fill: #8fbdde;
      }

      .cls-3, .cls-4, .cls-6 {
        stroke: #ffa93f;
      }

      .cls-3, .cls-5 {
        stroke-dasharray: 4.74 4.74;
      }

      .cls-14 {
        fill: #d8e9a2;
      }

      .cls-15 {
        fill: #b5e533;
      }

      .cls-16 {
        fill: #2d1410;
      }

      .cls-17 {
        fill: #b1cddd;
      }
    </style>
  </defs>
  <g id="Layer_2-2" data-name="Layer 2">
    <g>
      <rect class="cls-10" x="3.89" y="43.72" width="578.93" height="400.88" rx="20" ry="20"/>
      <path class="cls-8" d="M582.71,378.49h4.01v47.5c0,12.42-10.08,22.5-22.5,22.5h-47.5v-4.01c0-36.42,29.57-65.99,65.99-65.99Z"/>
      <path class="cls-12" d="M225.19,357.15l-90.61-29.44v-95.27l-56,77.08L3.89,285.25v16.74l40.08,55.17L3.89,412.32v12.28c0,1.48.17,2.92.48,4.3l74.21-24.11,28.92,39.81h27.08v-58l90.61-29.44Z"/>
      <path class="cls-13" d="M0,378.49h4.01c36.42,0,65.99,29.57,65.99,65.99v4.01H22.5c-12.42,0-22.5-10.08-22.5-22.5v-47.5h0Z"/>
      <path class="cls-15" d="M22.5,39.82h47.5v4.01c0,36.42-29.57,65.99-65.99,65.99H0v-47.5c0-12.42,10.08-22.5,22.5-22.5Z"/>
      <g>
        <g>
          <g>
            <g>
              <path class="cls-13" d="M173.74,200.13c3.17-.67,6.34-1.31,9.51-1.93-2.22,2.3-4.41,4.61-6.58,6.93,1.57,2.7,3.13,5.41,4.68,8.12-2.86-1.29-5.75-2.56-8.66-3.8-2.13,2.34-4.24,4.69-6.31,7.05.28-3.11.58-6.22.9-9.33-2.93-1.22-5.89-2.41-8.87-3.58,3.15-.76,6.31-1.49,9.47-2.19.33-3.11.68-6.22,1.05-9.33,1.62,2.68,3.23,5.37,4.82,8.06Z"/>
              <path class="cls-8" d="M234.74,190.6c3.21-.33,6.41-.63,9.62-.9-2.44,2.05-4.86,4.11-7.25,6.18,1.27,2.85,2.53,5.71,3.77,8.57-2.7-1.59-5.43-3.16-8.17-4.7-2.36,2.1-4.69,4.2-7,6.33.61-3.06,1.23-6.12,1.87-9.18-2.78-1.52-5.58-3.03-8.4-4.51,3.2-.41,6.4-.8,9.6-1.16.66-3.06,1.33-6.11,2.02-9.17,1.32,2.84,2.63,5.68,3.92,8.53Z"/>
              <path class="cls-14" d="M296.24,187.63c3.22.02,6.44.06,9.66.13-2.64,1.77-5.26,3.57-7.86,5.38.96,2.97,1.91,5.95,2.84,8.92-2.51-1.87-5.05-3.72-7.62-5.55-2.56,1.83-5.1,3.68-7.62,5.55.93-2.98,1.87-5.95,2.84-8.92-2.59-1.81-5.21-3.6-7.86-5.38,3.22-.07,6.44-.11,9.66-.13.98-2.97,1.97-5.94,2.98-8.9,1.01,2.96,2,5.93,2.98,8.9Z"/>
              <path class="cls-11" d="M357.71,191.23c3.2.36,6.4.75,9.6,1.16-2.82,1.48-5.62,2.99-8.4,4.51.64,3.06,1.26,6.12,1.87,9.18-2.31-2.12-4.64-4.23-7-6.33-2.75,1.55-5.47,3.12-8.17,4.7,1.24-2.86,2.5-5.72,3.77-8.57-2.39-2.08-4.81-4.14-7.25-6.18,3.21.27,6.42.57,9.62.9,1.29-2.85,2.6-5.69,3.92-8.53.69,3.06,1.36,6.11,2.02,9.17Z"/>
              <path class="cls-13" d="M418.63,201.4c3.16.7,6.32,1.43,9.47,2.19-2.98,1.17-5.93,2.36-8.87,3.58.31,3.11.61,6.22.9,9.33-2.08-2.36-4.18-4.71-6.31-7.05-2.91,1.24-5.8,2.51-8.66,3.8,1.54-2.71,3.1-5.42,4.68-8.12-2.17-2.32-4.36-4.63-6.58-6.93,3.17.62,6.34,1.26,9.51,1.93,1.59-2.69,3.2-5.38,4.82-8.06.36,3.11.71,6.22,1.05,9.33Z"/>
            </g>
            <g>
              <path class="cls-14" d="M174.88,297.31c3.14.66,6.28,1.3,9.42,1.91-2.89,1.31-5.81,2.59-8.74,3.85.38,3.11.77,6.21,1.17,9.32-2.24-2.32-4.45-4.66-6.64-7.01-2.96,1.23-5.95,2.44-8.95,3.63,1.66-2.66,3.3-5.32,4.93-8-2.15-2.36-4.28-4.74-6.38-7.13,3.12.75,6.25,1.47,9.38,2.17,1.61-2.68,3.21-5.36,4.79-8.05.33,3.1.67,6.21,1.02,9.31Z"/>
              <path class="cls-9" d="M235.3,306.74c3.18.32,6.35.62,9.53.89-2.73,1.61-5.48,3.19-8.25,4.76.7,3.05,1.42,6.09,2.15,9.14-2.47-2.07-4.9-4.16-7.32-6.26-2.8,1.54-5.63,3.06-8.48,4.57,1.36-2.82,2.7-5.65,4.03-8.48-2.38-2.12-4.74-4.25-7.06-6.4,3.17.41,6.34.79,9.51,1.15,1.31-2.84,2.61-5.68,3.89-8.52.65,3.05,1.32,6.1,2,9.15Z"/>
              <path class="cls-13" d="M296.21,309.68c3.19-.02,6.38-.06,9.56-.13-2.54,1.89-5.1,3.76-7.69,5.61,1.02,2.96,2.05,5.91,3.1,8.86-2.67-1.8-5.31-3.61-7.93-5.44-2.62,1.83-5.26,3.65-7.93,5.44,1.05-2.95,2.08-5.9,3.1-8.86-2.59-1.85-5.15-3.72-7.69-5.61,3.19.07,6.38.11,9.56.13,1-2.96,1.99-5.92,2.96-8.89.97,2.96,1.96,5.93,2.96,8.89Z"/>
              <path class="cls-14" d="M357.1,306.11c3.17-.36,6.34-.74,9.51-1.15-2.33,2.15-4.68,4.28-7.06,6.4,1.33,2.83,2.67,5.66,4.03,8.48-2.85-1.5-5.68-3.02-8.48-4.57-2.41,2.1-4.85,4.19-7.32,6.26.73-3.05,1.45-6.09,2.15-9.14-2.77-1.57-5.53-3.15-8.25-4.76,3.18-.27,6.36-.57,9.53-.89.68-3.05,1.35-6.1,2-9.15,1.28,2.84,2.58,5.68,3.89,8.52Z"/>
              <path class="cls-11" d="M417.44,296.05c3.13-.7,6.26-1.42,9.38-2.17-2.1,2.39-4.22,4.76-6.38,7.13,1.63,2.67,3.27,5.34,4.93,8-3.01-1.19-5.99-2.39-8.95-3.63-2.19,2.35-4.4,4.69-6.64,7.01.41-3.11.8-6.21,1.17-9.32-2.94-1.26-5.85-2.54-8.74-3.85,3.14-.61,6.28-1.25,9.42-1.91.36-3.11.7-6.21,1.02-9.31,1.58,2.69,3.18,5.37,4.79,8.05Z"/>
            </g>
          </g>
          <polygon class="cls-14" points="149.52 251.23 158.87 251.23 151.3 256.72 154.19 265.62 146.63 260.12 139.06 265.62 141.95 256.72 134.39 251.23 143.74 251.23 146.63 242.34 149.52 251.23"/>
          <polygon class="cls-11" points="442.98 251.23 452.33 251.23 444.77 256.72 447.66 265.62 440.09 260.12 432.53 265.62 435.42 256.72 427.85 251.23 437.2 251.23 440.09 242.34 442.98 251.23"/>
        </g>
        <g>
          <g>
            <path class="cls-16" d="M241.41,219.94c2.62-.63,5.24-1.21,7.88-1.74,1.25,6.18,2.51,12.36,3.76,18.55,3.54-.72,7.09-1.34,10.65-1.87.29,1.97.59,3.95.88,5.92-5.82.87-11.61,1.99-17.35,3.37-1.94-8.07-3.88-16.15-5.82-24.22Z"/>
            <path class="cls-16" d="M263.65,215.76c2.65-.36,5.31-.68,7.98-.95.83,8.26,1.66,16.52,2.5,24.79-2.37.24-4.74.52-7.1.84-1.12-8.23-2.25-16.45-3.37-24.68Z"/>
            <path class="cls-16" d="M276.05,214.41c3.61-.29,7.23-.5,10.85-.62,2.96-.1,5.46.29,7.43,1.46,1.97,1.17,3.09,2.98,3.06,5.25-.03,2.13-1.22,4.1-3.57,4.97,0,.02,0,.05,0,.07,3.03.89,4.41,3.17,4.36,5.75-.05,2.37-1.15,4.24-2.93,5.47-1.79,1.23-4.2,1.83-7.01,1.91-3.39.1-6.79.29-10.17.57-.67-8.28-1.34-16.55-2.01-24.83ZM286.96,223.78c1.86-.06,2.88-.87,2.86-2.32-.01-.72-.33-1.27-.87-1.6-.54-.33-1.38-.52-2.59-.47-.71.03-1.42.05-2.13.09.07,1.47.13,2.93.2,4.4.84-.04,1.69-.07,2.53-.1ZM290.08,232.47c.56-.42.8-1.05.79-1.74-.02-1.51-1.13-2.36-3.06-2.3-1.06.03-2.11.07-3.17.12.07,1.56.14,3.12.21,4.67.85-.04,1.71-.07,2.56-.1,1.32-.04,2.1-.23,2.66-.66Z"/>
            <path class="cls-16" d="M301.37,213.78c6.29.2,12.58.65,18.84,1.37-.23,1.98-.46,3.97-.68,5.95-3.51-.4-7.02-.72-10.54-.95-.08,1.25-.17,2.5-.25,3.74,2.95.2,5.9.45,8.84.77-.2,1.87-.4,3.74-.6,5.61-2.87-.31-5.74-.56-8.61-.75-.21,3.17-.42,6.34-.63,9.51-2.38-.16-4.75-.27-7.13-.35.26-8.3.51-16.6.77-24.9Z"/>
            <path class="cls-16" d="M329.61,222.49c-2.88-.47-5.76-.87-8.65-1.22.24-1.98.48-3.96.72-5.94,8.59,1.04,17.14,2.58,25.6,4.61-.47,1.94-.93,3.88-1.4,5.82-2.84-.68-5.7-1.31-8.56-1.88-1.23,6.19-2.46,12.38-3.68,18.56-2.34-.47-4.7-.89-7.05-1.27,1.01-6.23,2.02-12.45,3.02-18.68Z"/>
          </g>
          <g>
            <path class="cls-16" d="M195.91,282.2c-8.68-1.81-13.2-8.61-11.47-15.65,1.77-7.23,8.81-11.12,16.79-9.46,2.52.52,4.84,1.54,6.57,2.89-.42,2.22-.85,4.44-1.27,6.66-1.67-1.47-3.95-2.84-6.37-3.34-4.21-.87-7.66,1.13-8.5,4.82-.8,3.55,1.32,7.04,6.03,8.02,2.49.51,5.19.17,7.52-.68-.42,2.21-.84,4.42-1.26,6.62-2.41.7-5.41.67-8.04.12Z"/>
            <path class="cls-16" d="M207.97,271.5c1.37-7.14,8.06-11.52,15.61-10.35,7.59,1.18,12.58,7.39,11.71,14.61-.87,7.2-7.57,12.02-15.66,10.76-8.06-1.26-13.03-7.89-11.66-15.01ZM228.01,274.78c.51-3.68-1.63-6.86-5.38-7.44-3.75-.59-6.77,1.79-7.4,5.45-.63,3.66,1.5,6.93,5.37,7.53,3.88.6,6.89-1.86,7.41-5.54Z"/>
            <path class="cls-16" d="M239.92,263.77c2.28.27,4.56.52,6.83.76,1.84,3.23,3.73,6.46,5.66,9.67,2.45-2.82,4.87-5.66,7.24-8.52,2.26.17,4.52.32,6.79.45-.49,8.29-.99,16.58-1.48,24.87-2.51-.15-5.02-.32-7.52-.51.2-2.7.41-5.4.61-8.1.15-1.96.35-4.15.51-5.86-.02,0-.05,0-.07,0-1.18,1.5-2.49,3.05-3.76,4.5-1.14,1.31-2.29,2.62-3.45,3.92-.92-1.49-1.84-2.98-2.74-4.47-1.03-1.69-2.01-3.41-2.9-5.1-.02,0-.05,0-.07,0-.14,1.71-.33,3.91-.53,5.86-.28,2.69-.56,5.38-.83,8.08-2.4-.25-4.81-.51-7.21-.8.98-8.25,1.96-16.49,2.93-24.74Z"/>
            <path class="cls-16" d="M270.38,266.34c3.23.16,6.47.29,9.7.39,2.91.09,5.25.68,7.18,2.15,1.93,1.47,3.14,3.68,3.13,6.57-.02,2.89-1.28,5.09-3.3,6.51-2.02,1.42-4.49,1.96-7.51,1.87-.89-.03-1.77-.05-2.66-.09-.09,2.6-.18,5.2-.27,7.81-2.51-.09-5.02-.2-7.53-.32.42-8.29.84-16.59,1.26-24.88ZM279.14,278.27c1.42.04,2.21-.14,2.9-.61.69-.47,1.06-1.28,1.08-2.25.02-.96-.31-1.8-.97-2.29-.66-.5-1.42-.72-2.83-.77-.67-.02-1.33-.04-2-.07-.07,1.97-.14,3.94-.21,5.91.68.02,1.35.05,2.03.07Z"/>
            <path class="cls-16" d="M293.22,266.93c2.38,0,4.76-.02,7.14-.05.1,6.31.19,12.61.29,18.92,3.64-.06,7.27-.15,10.91-.29.08,1.99.15,3.99.23,5.98-6.19.24-12.39.36-18.58.35,0-8.3,0-16.61.01-24.91Z"/>
            <path class="cls-16" d="M313.3,266.49c5.45-.24,10.9-.58,16.34-1.01.16,1.99.32,3.98.48,5.97-3.13.25-6.26.47-9.4.66.07,1.17.14,2.34.21,3.5,2.68-.16,5.35-.34,8.02-.55.14,1.88.29,3.75.43,5.63-2.71.21-5.41.39-8.12.55.07,1.26.15,2.52.22,3.78,3.37-.2,6.73-.44,10.1-.71.16,1.99.32,3.98.48,5.97-5.89.48-11.78.84-17.68,1.1-.36-8.3-.73-16.59-1.09-24.89Z"/>
            <path class="cls-16" d="M340.17,270.53c-2.68.27-5.37.52-8.05.75-.17-1.99-.34-3.98-.5-5.97,7.68-.65,15.34-1.49,22.99-2.53.27,1.98.54,3.96.81,5.93-2.68.36-5.35.7-8.03,1.02.74,6.26,1.48,12.53,2.22,18.79-2.5.29-5,.57-7.5.83-.64-6.28-1.28-12.55-1.92-18.83Z"/>
            <path class="cls-16" d="M356.77,262.49c5.42-.76,10.82-1.62,16.21-2.58.35,1.97.7,3.93,1.05,5.89-3.1.55-6.21,1.07-9.32,1.56.18,1.16.36,2.31.54,3.47,2.65-.42,5.31-.86,7.96-1.32.32,1.85.65,3.71.97,5.56-2.68.47-5.36.91-8.05,1.33.2,1.25.39,2.49.59,3.74,3.34-.52,6.68-1.08,10.01-1.68.35,1.96.7,3.93,1.05,5.89-5.83,1.04-11.68,1.98-17.54,2.8-1.16-8.22-2.32-16.45-3.47-24.67Z"/>
            <path class="cls-16" d="M376.54,259.26c3.24-.6,6.48-1.24,9.71-1.92,4.09-.85,7.67-.32,10.48,1.36,2.81,1.68,4.8,4.31,5.63,7.79.79,3.28.36,6.57-1.51,9.37-1.86,2.8-4.98,4.92-9.48,5.86-3.42.71-6.85,1.39-10.28,2.03-1.52-8.16-3.04-16.33-4.56-24.49ZM394.35,273.13c.96-1.37,1.22-3.16.82-4.97-.41-1.81-1.4-3.32-2.82-4.17-1.42-.85-3.08-1.16-4.94-.77-.88.18-1.75.36-2.63.54.86,4.23,1.71,8.45,2.57,12.68.9-.18,1.8-.37,2.7-.56,1.92-.4,3.35-1.38,4.31-2.75Z"/>
          </g>
        </g>
      </g>
      <g>
        <g>
          <path class="cls-9" d="M330.95,381.01c-1.52-.01-2.95-.08-3.99.26-.54.77-1.14,1.52-1.8,1.74-.64.21-1.09-.07-1.25-.55-.33-1.02.61-2.02,1.92-2.68,1.78-3.87,2.73-7.44,1.8-10.29-.25-.76-.66-.99-.73-1.2-.21-.66.57-1.62,1.69-1.98,1.6-.52,2.61.5,2.94,1.52.65,2.01-1.61,7.16-3.75,11.23l3.45-.9c.39-2.85,1.02-5.68,1.46-5.82.46-.15.91.13.96.28.03.1-.5,2.02-.39,4.94l.15-.05c.86-.28,1.79-1.06,1.99-1.74.07-.3.13-.46.31-.52.38-.12,1.27.43,1.65,1.63.64,1.96-.79,3.18-2.45,3.72-.43.14-.88.23-1.36.3.26,1.83.58,3.24.8,3.93.07.23-.12.49-.35.56-1.09.36-2.66-.4-2.98-1.39-.17-.51-.17-1.63-.07-2.99Z"/>
          <path class="cls-9" d="M341.22,380.59c-.29.74-1.04,1.55-1.71,1.76-.64.21-1.09-.07-1.25-.55-.34-1.04.64-2.35,1.99-3.12,2.7-4.25,6.22-8.99,4.99-12.76-.62-1.91-2.19-2.66-3.66-2.18-1.48.48-2.25,2-1.84,3.24.27.84.97,1.26,1.73,1.01.53-.17.82-.6.94-.81.08-.11.14-.18.24-.22.15-.05.39.07.53.5.51,1.58-.49,3.34-2.22,3.9-1.65.54-3.46-.17-4.09-2.13-.93-2.87,1.25-6.03,4.81-7.19,2.95-.96,6.07-.2,7.02,2.75,1.42,4.37-2.9,8.28-6.23,13.1,1.28-.3,2.8-.63,4.46-1.17,1.09-.36,1.69-1.11,1.89-1.8.07-.3.13-.46.31-.52.38-.12,1.26.43,1.65,1.63.64,1.96-.43,3.43-2.08,3.97-2.49.81-5.23-.16-7.49.58Z"/>
          <path class="cls-9" d="M374.58,354.06c.38-.4.86-.65,1.19-.75.36-.12.69-.11.76.09.09.28-.21.4-.5,2.1-.35,2.03-.1,4.7-.07,7.39,4.29-1.68,6.07-4.7,5.11-7.62-.9-2.77-3.9-3.79-7.87-2.5-4.98,1.62-7.57,5.61-6.62,8.53.4,1.22,1.26,1.73,2.36,1.37.86-.28,1.46-.95,1.62-1.17.08-.11.11-.18.21-.21.18-.06.35.05.48.44.41,1.25-.28,3.47-2.75,4.27-2.06.67-4.16-.08-4.95-2.52-1.35-4.15,2.16-9.79,9.59-12.2,5.47-1.78,10.34-.72,11.54,2.97,1.06,3.26-.98,7.63-8.73,10.18-.11,4.25-1.11,8.35-6.1,9.97-2.8.91-5.19-.14-5.79-1.97-.55-1.68.36-2.96,1.58-3.35,1.02-.33,2.12.21,2.34.9.11.33-.67.78-.31,1.9.28.86,1.23,1.18,2.12.89,5.06-1.64-.1-13.55,4.78-18.68Z"/>
          <path class="cls-9" d="M393.9,359.71c.11,2.66-1.11,5.42-3.73,6.27-2.21.72-3.91-.44-4.54-2.38-.86-2.64.65-5.61,1.93-6.62.06-1.03.78-1.91,1.75-2.23,1.58-.51,3.43.52,4.24,3.01.07.23.12.47.17.7,1.03-.98,1.08-2.49,1.05-3.18-.01-.22.26-.31.37-.34.33-.11.77.12.87.42.03.1.06.26.04.47-.08.95-.75,2.8-2.14,3.87ZM392.13,360.51c-1.8.33-3.35-.54-4.12-1.78-.28.88-.32,2.13.03,3.22.43,1.32,1.4,2.22,2.51,1.85,1.14-.37,1.65-1.77,1.57-3.3ZM391.96,359.35c-.02-.16-.07-.29-.12-.44-.43-1.32-1.16-1.93-1.75-1.74-.33.11-.53.54-.37,1.02.24.74,1.06,1.34,2.23,1.16Z"/>
          <path class="cls-9" d="M396.06,355.01l.31-.1c.74-.24,1.6-.8,1.9-1.24.19-.29.37-.43.52-.48.41-.13,1.17.21,1.37.85.12.38.04.83-.1,1.41-.28,1.13-.66,2.8-.25,4.07.16.48.51.62.82.52.36-.12,1.02-.42,1.95-3.44.05-.19.18-.31.31-.35.18-.06.38.05.45.27.04.13.06.26.01.47-.79,4.05-1.95,5.33-3.33,5.78-1.27.41-2.5-.17-2.93-1.49-.4-1.22.12-3.19.61-4.44-1.75.15-3.74-.44-4.27-2.07-.33-1.02.05-2.1.89-2.37.64-.21,1.24.27,1.55,1.21.1.3.17.79.2,1.4Z"/>
          <path class="cls-9" d="M405.38,347.71c-.2.94-.38,2.2-.43,3.6.44-.28.83-.55,1.16-.85.95-.9.91-1.36,1.14-1.44.28-.09.74.12.97.81.39,1.2-.16,2.61-3.23,3.72.08,1.1.25,2.23.58,3.24.36,1.12.87,1.63,1.43,1.45.48-.16,1.3-.76,2.23-3.79.05-.19.18-.31.31-.35.18-.06.38.05.45.27.04.13.06.26.01.47-.79,4.05-2.16,5.4-3.71,5.9-1.53.5-2.78-.5-3.36-2.28-.2-.61-.44-1.6-.55-2.63-.06-.52-.11-1.12-.14-1.73-.7-.08-1.3-.45-1.47-.98-.06-.18-.03-.36.1-.4.18-.06.53.08,1.27-.16l.05-.02c-.02-1.62.06-3.28.29-4.65.31-1.82.7-2.87,1.59-3.16.58-.19,1.52.01,1.8.85.1.31-.27,1.16-.46,2.12Z"/>
          <path class="cls-9" d="M410.92,349.43c.04-1.08.8-1.95,1.79-2.27,1.58-.51,3.43.52,4.24,3.01.99,3.05-.1,7.15-3.38,8.21-2.21.72-3.91-.45-4.54-2.38-.85-2.62.62-5.54,1.88-6.57ZM413.65,349.61c-.36.12-.43.48-.28.96.07.23.2.36.23.46.06.18-.1.4-.4.5-.48.16-1.23,0-1.75-.53-.33.89-.38,2.2,0,3.35.43,1.32,1.4,2.22,2.51,1.85,1.55-.5,1.93-2.88,1.28-4.89-.47-1.45-1.21-1.83-1.59-1.7Z"/>
        </g>
        <g>
          <path class="cls-9" d="M354.77,402.92c-.36.92-1.29,1.92-2.11,2.19-.79.26-1.35-.08-1.55-.68-.42-1.29.8-2.91,2.47-3.87,3.35-5.27,7.71-11.16,6.2-15.83-.77-2.37-2.71-3.31-4.55-2.71-1.83.59-2.79,2.48-2.29,4.02.34,1.04,1.2,1.56,2.15,1.25.66-.21,1.01-.75,1.17-1.01.1-.14.17-.23.3-.27.19-.06.48.09.66.62.64,1.96-.61,4.14-2.76,4.84-2.05.67-4.29-.21-5.08-2.64-1.16-3.57,1.55-7.48,5.96-8.92,3.66-1.19,7.53-.25,8.72,3.41,1.76,5.43-3.6,10.28-7.73,16.26,1.59-.38,3.48-.78,5.53-1.45,1.36-.44,2.1-1.38,2.35-2.23.09-.38.16-.58.38-.65.47-.15,1.57.54,2.05,2.02.79,2.43-.54,4.26-2.59,4.92-3.09,1-6.48-.2-9.29.72Z"/>
          <path class="cls-9" d="M367.68,392.06c-2.4-7.39,1.42-16.13,7.96-18.25,1.58-.51,3.1-.24,3.38.64.05.16-.06.34-.25.4-.79.26-.76-.07-2.36.45-4.26,1.38-6.75,8.65-4.61,15.24,1.07,3.28,3.02,5.65,5.36,4.89,2.9-.94,3.9-7.23,2.32-12.09-.83-2.56-2.85-5.56-4.75-4.95-.57.18-.86.14-.91-.02-.13-.41,1.05-1.6,2.25-1.99,3.03-.98,5.72.97,6.87,4.5,2.41,7.42-.33,15.08-5.89,16.88-3.79,1.23-7.71-.64-9.36-5.72Z"/>
          <path class="cls-9" d="M389.74,391.56c-.36.92-1.3,1.92-2.12,2.19-.79.26-1.35-.08-1.55-.68-.42-1.29.8-2.91,2.47-3.87,3.35-5.27,7.71-11.16,6.2-15.83-.77-2.37-2.71-3.31-4.54-2.71-1.83.59-2.79,2.48-2.29,4.02.34,1.04,1.21,1.56,2.15,1.25.66-.21,1.01-.75,1.17-1.01.1-.14.17-.23.3-.27.19-.06.48.09.66.62.64,1.96-.61,4.14-2.76,4.84-2.05.67-4.29-.21-5.08-2.64-1.16-3.57,1.55-7.48,5.97-8.92,3.66-1.19,7.53-.25,8.71,3.41,1.76,5.43-3.6,10.28-7.73,16.26,1.59-.38,3.48-.78,5.53-1.45,1.36-.44,2.1-1.38,2.35-2.23.09-.38.16-.58.38-.65.47-.15,1.57.54,2.05,2.02.79,2.43-.54,4.26-2.59,4.92-3.09,1-6.48-.2-9.29.72Z"/>
          <path class="cls-9" d="M402.55,380.84c-2.14-6.6,1.06-16.6,8-18.86,3-.97,5.26-.03,5.85,1.8.75,2.3-1.13,3.93-2.58,4.4-.79.26-1.33.08-1.41-.17-.12-.38.6-1.28.09-2.82-.36-1.1-1.31-1.46-2.26-1.15-2.84.92-4.67,6.37-4.2,11.55.51-1.77,1.95-3.77,4.44-4.58,3.13-1.01,6.04.34,7.17,3.81,1.56,4.8-1.46,10.21-5.85,11.64-4.13,1.34-7.79-1.1-9.26-5.61ZM406.38,377.57c.08.46.21.87.36,1.31,1.08,3.31,3.2,5.66,5.35,4.96,2.15-.7,2.75-4.1,1.79-7.07-.77-2.37-2.36-3.84-4.29-3.21-1.7.55-2.87,2.64-3.2,4.01Z"/>
        </g>
      </g>
      <path class="cls-12" d="M340.25,158.48h118.74l36.69,112.93,36.69-112.93h50.45v-49.61l-27.78-20.18,14.26-43.88c-2.03-.7-4.21-1.09-6.48-1.09h-64.62l-2.53,1.84-2.53-1.84h-71.45l14.61,44.97-96.06,69.79Z"/>
      <path class="cls-16" d="M516.72,39.82h47.5c12.42,0,22.5,10.08,22.5,22.5v47.5h-4.01c-36.42,0-65.99-29.57-65.99-65.99v-4.01h0Z"/>
      <g>
        <circle class="cls-10" cx="538.38" cy="429.71" r="4.89"/>
        <circle class="cls-10" cx="567.94" cy="400.15" r="4.89"/>
      </g>
      <g>
        <circle class="cls-10" cx="18.78" cy="400.15" r="4.89"/>
        <circle class="cls-10" cx="48.34" cy="429.71" r="4.89"/>
      </g>
      <g>
        <circle class="cls-10" cx="48.34" cy="58.61" r="4.89"/>
        <circle class="cls-10" cx="18.78" cy="88.16" r="4.89"/>
      </g>
      <g>
        <circle class="cls-10" cx="567.94" cy="88.16" r="4.89"/>
        <circle class="cls-10" cx="538.38" cy="58.61" r="4.89"/>
      </g>
      <g>
        <rect class="cls-8" x="109.07" y="43.72" width="39.33" height="400.88"/>
        <path class="cls-7" d="M141.44,415.95c-.11-.9-.87-1.61-1.71-1.93s-1.78-.32-2.68-.32c.87-.66,1.77-1.34,2.29-2.3.52-.96.56-2.27-.22-3.04-.5-.5-1.25-.69-1.96-.65s-1.39.27-2.06.49c.63-1.11,1.16-2.36,1.02-3.63-.14-1.27-1.15-2.53-2.43-2.52-.96,0-1.81.7-2.28,1.54-.43.77-.59,1.66-.72,2.52-.3-1.76-1.52-3.4-3.22-4.01-1.78-.64-4,.01-4.99,1.63-.99,1.62-.45,4.03,1.22,4.93-.78-.46-1.79-.36-2.61.03-.81.4-1.47,1.05-2.11,1.69-1.01,1.01-2.08,2.21-2.01,3.63.07,1.47,1.4,2.62,2.82,2.99,1.42.37,2.92.12,4.37-.13-.58,2.91.88,6.11,3.45,7.6,1.08.63,2.45.96,3.59.44,1.01-.46,1.65-1.49,1.91-2.56.26-1.07.19-2.19.12-3.3,2.14,1.13,4.94.9,6.86-.57.79-.61,1.48-1.52,1.36-2.51ZM131.58,416.7c-1.19.53-2.64.38-3.74-.33-1.1-.71-1.83-1.92-2.01-3.21-.22-1.5.33-3.13,1.51-4.07,2.8-2.23,6.48.69,6.55,3.81.04,1.57-.87,3.16-2.31,3.8Z"/>
        <path class="cls-7" d="M141.68,375.81c-.28-.86-1.17-1.4-2.07-1.55s-1.8.04-2.69.23c.72-.82,1.46-1.67,1.78-2.72.32-1.04.09-2.34-.82-2.94-.59-.39-1.37-.42-2.05-.24s-1.31.54-1.92.9c.39-1.22.66-2.55.27-3.77-.39-1.22-1.63-2.24-2.89-1.98-.94.19-1.64,1.05-1.92,1.96-.26.84-.25,1.74-.2,2.61-.65-1.66-2.17-3.02-3.96-3.28-1.88-.27-3.92.82-4.56,2.6-.64,1.78.37,4.04,2.19,4.58-.85-.3-1.83,0-2.55.56-.72.55-1.23,1.32-1.73,2.08-.78,1.19-1.59,2.58-1.24,3.96.36,1.42,1.9,2.29,3.36,2.36,1.47.07,2.88-.47,4.25-1.01.02,2.97,2.08,5.81,4.9,6.75,1.19.4,2.59.44,3.61-.29.89-.65,1.32-1.79,1.36-2.9.04-1.1-.25-2.19-.54-3.25,2.33.68,5.02-.11,6.61-1.94.65-.75,1.14-1.79.83-2.73ZM132.18,378.52c-1.06.76-2.51.9-3.73.43-1.21-.47-2.17-1.52-2.62-2.74-.51-1.42-.31-3.13.66-4.29,2.3-2.75,6.48-.62,7.18,2.42.35,1.53-.22,3.27-1.5,4.19Z"/>
        <path class="cls-7" d="M135.82,327.65c-.88-.22-1.81.24-2.41.92s-.93,1.55-1.24,2.4c-.31-1.05-.63-2.13-1.35-2.95-.71-.83-1.93-1.32-2.92-.87-.65.29-1.09.93-1.3,1.61s-.24,1.4-.27,2.11c-.82-.98-1.8-1.92-3.04-2.24-1.24-.32-2.77.18-3.22,1.38-.34.9.01,1.94.63,2.68.57.67,1.34,1.14,2.1,1.57-1.75-.34-3.72.23-4.89,1.6-1.23,1.44-1.4,3.75-.24,5.25,1.16,1.5,3.62,1.84,5.04.6-.71.56-.97,1.55-.89,2.45.08.9.46,1.75.84,2.57.59,1.3,1.33,2.72,2.69,3.16,1.4.45,2.95-.38,3.79-1.58.84-1.2,1.14-2.69,1.41-4.13,2.52,1.57,6.03,1.34,8.33-.54.97-.79,1.76-1.95,1.68-3.2-.07-1.1-.81-2.07-1.72-2.69-.91-.62-1.99-.95-3.04-1.27,1.82-1.6,2.59-4.3,1.89-6.62-.29-.95-.9-1.92-1.87-2.16ZM133.04,337.14c.08,1.3-.58,2.6-1.63,3.38-1.05.78-2.44,1.03-3.72.75-1.48-.33-2.81-1.41-3.27-2.85-1.1-3.41,2.93-5.81,5.88-4.78,1.48.52,2.65,1.93,2.74,3.5Z"/>
        <path class="cls-7" d="M122,290.42c-.54.73-.48,1.77-.08,2.58s1.07,1.45,1.73,2.07c-1.08-.12-2.21-.24-3.25.1-1.04.34-1.96,1.27-1.93,2.36.02.71.44,1.36.98,1.82s1.19.76,1.84,1.06c-1.22.38-2.46.92-3.24,1.94-.77,1.02-.9,2.63.03,3.5.7.66,1.8.74,2.71.45.84-.27,1.57-.8,2.26-1.33-.99,1.48-1.23,3.52-.41,5.13.86,1.69,2.92,2.74,4.75,2.24s3.1-2.62,2.5-4.42c.25.87,1.05,1.49,1.92,1.77.86.27,1.79.25,2.69.22,1.43-.04,3.02-.18,3.95-1.26.96-1.11.79-2.87,0-4.11-.78-1.24-2.04-2.09-3.27-2.9,2.42-1.72,3.56-5.05,2.71-7.89-.36-1.2-1.12-2.38-2.31-2.79-1.04-.36-2.22-.05-3.15.55-.93.6-1.65,1.46-2.35,2.31-.78-2.3-2.97-4.05-5.38-4.3-.99-.1-2.12.09-2.71.89ZM129.68,296.64c1.23.43,2.18,1.54,2.49,2.8.31,1.27,0,2.65-.74,3.72-.87,1.24-2.38,2.05-3.89,1.92-3.57-.3-4.23-4.95-2.14-7.27,1.05-1.17,2.81-1.7,4.29-1.18Z"/>
        <path class="cls-7" d="M118.31,269.05c.66.61,1.71.66,2.56.35s1.56-.91,2.24-1.5c-.24,1.07-.47,2.17-.24,3.24.23,1.07,1.05,2.09,2.14,2.17.71.06,1.4-.29,1.92-.78.52-.49.89-1.11,1.25-1.72.25,1.26.65,2.55,1.58,3.43.93.88,2.51,1.17,3.49.34.73-.63.93-1.71.73-2.65-.18-.87-.63-1.64-1.09-2.39,1.37,1.14,3.37,1.59,5.06.96,1.77-.67,3.03-2.61,2.74-4.48-.3-1.87-2.28-3.36-4.13-2.95.89-.15,1.6-.89,1.96-1.72.36-.83.44-1.75.51-2.65.11-1.42.14-3.03-.83-4.06-1.01-1.07-2.77-1.09-4.09-.44-1.32.65-2.29,1.81-3.23,2.94-1.45-2.59-4.64-4.08-7.56-3.54-1.23.23-2.48.86-3.02,2-.47,1-.29,2.21.21,3.19.5.98,1.28,1.79,2.05,2.58-2.37.53-4.34,2.52-4.85,4.89-.21.97-.13,2.12.6,2.79ZM125.32,262.08c.56-1.18,1.76-2,3.05-2.18,1.29-.18,2.64.28,3.62,1.13,1.14,1,1.78,2.59,1.5,4.07-.68,3.52-5.37,3.68-7.45,1.36-1.05-1.17-1.39-2.97-.71-4.39Z"/>
        <path class="cls-7" d="M136.75,235.28c.52-.74.42-1.78,0-2.58-.42-.8-1.12-1.42-1.8-2.01,1.09.08,2.22.16,3.24-.21,1.02-.37,1.92-1.34,1.85-2.42-.04-.71-.48-1.35-1.04-1.79-.55-.44-1.22-.72-1.87-1,1.21-.42,2.43-1,3.17-2.05.74-1.04.81-2.65-.15-3.5-.72-.64-1.82-.68-2.73-.36-.83.3-1.54.85-2.21,1.41.94-1.51,1.11-3.56.24-5.14-.91-1.66-3.01-2.64-4.82-2.08-1.81.56-3.01,2.73-2.35,4.5-.28-.86-1.1-1.46-1.97-1.7-.87-.24-1.8-.19-2.7-.13-1.42.09-3.02.28-3.91,1.39-.92,1.15-.69,2.89.13,4.11.82,1.22,2.11,2.02,3.36,2.79-2.36,1.8-3.39,5.16-2.45,7.98.4,1.19,1.2,2.34,2.4,2.71,1.05.33,2.23-.02,3.13-.65.91-.63,1.6-1.52,2.27-2.39.85,2.27,3.1,3.95,5.52,4.12.99.07,2.11-.16,2.68-.98ZM128.87,229.32c-1.24-.39-2.23-1.47-2.58-2.72-.35-1.25-.09-2.65.62-3.74.83-1.27,2.31-2.13,3.83-2.05,3.58.18,4.39,4.81,2.38,7.19-1.01,1.2-2.75,1.79-4.25,1.32Z"/>
        <path class="cls-7" d="M132.48,199.75c.76-.5,1.05-1.5.96-2.4-.09-.9-.51-1.73-.91-2.54.98.49,1.99.98,3.08,1.02s2.28-.52,2.63-1.55c.22-.67.05-1.43-.29-2.05-.35-.62-.86-1.13-1.37-1.63,1.28.06,2.63-.02,3.71-.71,1.08-.69,1.74-2.16,1.17-3.3-.43-.86-1.43-1.31-2.4-1.35-.88-.04-1.75.21-2.58.48,1.44-1.05,2.36-2.88,2.15-4.68-.22-1.88-1.8-3.58-3.69-3.74-1.89-.16-3.81,1.4-3.86,3.3.07-.9-.48-1.76-1.19-2.32-.72-.55-1.59-.85-2.45-1.13-1.35-.45-2.9-.87-4.15-.17-1.28.72-1.72,2.42-1.41,3.86.31,1.43,1.2,2.66,2.07,3.84-2.86.79-5.08,3.52-5.26,6.48-.08,1.25.24,2.62,1.21,3.41.86.7,2.07.81,3.15.56,1.08-.25,2.05-.81,3-1.37-.06,2.42,1.4,4.82,3.58,5.89.9.44,2.02.64,2.85.09ZM127.4,191.27c-1.01-.83-1.52-2.19-1.38-3.49.14-1.3.9-2.49,1.97-3.24,1.24-.86,2.94-1.11,4.31-.47,3.25,1.51,2.27,6.1-.48,7.56-1.39.73-3.22.63-4.43-.37Z"/>
        <path class="cls-7" d="M131.15,162.41c.81-.41,1.21-1.37,1.22-2.28,0-.91-.32-1.78-.63-2.62.92.59,1.87,1.19,2.95,1.35s2.32-.27,2.78-1.26c.3-.65.21-1.41-.07-2.07-.28-.65-.73-1.21-1.18-1.76,1.26.2,2.62.27,3.76-.3,1.15-.57,1.97-1.96,1.52-3.15-.34-.9-1.28-1.46-2.23-1.6-.87-.13-1.76.02-2.61.2,1.54-.89,2.66-2.61,2.64-4.41-.02-1.89-1.4-3.75-3.26-4.12-1.86-.37-3.94.98-4.2,2.86.16-.89-.28-1.81-.94-2.43-.65-.63-1.49-1.02-2.32-1.39-1.3-.59-2.79-1.18-4.1-.62-1.35.57-1.98,2.22-1.83,3.68.15,1.46.9,2.78,1.64,4.05-2.93.47-5.43,2.94-5.93,5.87-.21,1.23-.05,2.63.83,3.52.78.79,1.97,1.03,3.07.9,1.1-.13,2.12-.58,3.13-1.03-.32,2.4.87,4.94,2.92,6.24.84.53,1.94.86,2.83.4ZM127.03,153.43c-.91-.93-1.27-2.35-.99-3.62.28-1.27,1.17-2.38,2.31-3,1.33-.72,3.04-.78,4.34,0,3.07,1.85,1.6,6.31-1.3,7.46-1.46.58-3.27.28-4.37-.85Z"/>
        <path class="cls-7" d="M134.48,123.76c.66-.62.78-1.65.54-2.52-.24-.87-.79-1.62-1.33-2.35,1.05.31,2.13.63,3.21.48s2.16-.9,2.32-1.98c.11-.7-.19-1.42-.64-1.97-.45-.55-1.04-.96-1.62-1.37,1.27-.15,2.59-.47,3.53-1.33.94-.86,1.35-2.42.59-3.45-.57-.77-1.64-1.05-2.59-.92-.88.11-1.69.51-2.46.91,1.24-1.28,1.83-3.24,1.32-4.97-.54-1.82-2.39-3.22-4.27-3.05-1.89.16-3.52,2.03-3.24,3.91-.09-.9-.77-1.66-1.57-2.08-.8-.42-1.72-.56-2.61-.7-1.41-.21-3.01-.36-4.11.54-1.14.93-1.28,2.68-.74,4.04.55,1.36,1.64,2.42,2.7,3.44-2.69,1.26-4.4,4.33-4.08,7.28.14,1.25.68,2.54,1.78,3.15.96.54,2.18.45,3.2.02,1.02-.43,1.88-1.15,2.72-1.86.36,2.4,2.2,4.51,4.53,5.19.96.28,2.1.29,2.83-.39ZM128.04,116.27c-1.13-.64-1.87-1.9-1.95-3.2-.08-1.3.47-2.61,1.39-3.53,1.08-1.06,2.71-1.59,4.17-1.2,3.46.93,3.28,5.63.81,7.53-1.24.96-3.06,1.17-4.43.39Z"/>
        <path class="cls-7" d="M141.44,77.28c-.11-.9-.87-1.61-1.71-1.93-.85-.32-1.78-.32-2.68-.32.87-.66,1.77-1.34,2.29-2.3.52-.96.56-2.27-.22-3.04-.5-.5-1.25-.69-1.96-.65-.71.04-1.39.27-2.06.49.63-1.11,1.16-2.36,1.02-3.63-.14-1.27-1.15-2.53-2.43-2.52-.96,0-1.81.7-2.28,1.54-.43.77-.59,1.66-.72,2.52-.3-1.76-1.52-3.4-3.22-4.01-1.78-.64-4,.01-4.99,1.63-.99,1.62-.45,4.04,1.22,4.93-.78-.46-1.79-.36-2.61.03-.81.4-1.47,1.05-2.11,1.69-1.01,1.01-2.08,2.21-2.01,3.63.07,1.47,1.4,2.62,2.82,2.99,1.42.37,2.92.12,4.37-.14-.58,2.91.88,6.11,3.45,7.6,1.08.63,2.45.96,3.59.44,1.01-.45,1.65-1.49,1.91-2.56.26-1.07.19-2.19.12-3.3,2.14,1.13,4.94.9,6.86-.57.79-.61,1.48-1.52,1.36-2.51ZM131.58,78.03c-1.19.53-2.64.38-3.74-.33-1.1-.71-1.83-1.92-2.01-3.21-.22-1.5.33-3.13,1.51-4.07,2.8-2.23,6.48.69,6.55,3.81.04,1.57-.87,3.16-2.31,3.8Z"/>
        <rect class="cls-7" x="112.07" y="43.72" width=".74" height="400.88" transform="translate(224.88 488.31) rotate(-180)"/>
        <rect class="cls-7" x="144.67" y="43.72" width=".74" height="400.88" transform="translate(290.07 488.31) rotate(-180)"/>
        <path class="cls-16" d="M170.46,183.94l-30.93-5.01c-7.15-1.16-14.44-1.16-21.58,0l-30.93,5.01-13.51-16.81,13.51-16.81,30.93,5.01c7.15,1.16,14.44,1.16,21.58,0l30.93-5.01,13.51,16.81-13.51,16.81Z"/>
        <g>
          <circle class="cls-8" cx="90.67" cy="167.13" r="3.78"/>
          <circle class="cls-8" cx="166.8" cy="167.13" r="3.78"/>
        </g>
        <g>
          <polyline class="cls-6" points="169.99 179.78 168.27 181.75 165.69 181.36"/>
          <path class="cls-4" d="M160.77,180.63l-21.81-3.24c-6.77-1.01-13.68-1.01-20.45,0l-24.27,3.61"/>
          <polyline class="cls-6" points="91.78 181.36 89.2 181.75 87.49 179.78"/>
          <line class="cls-3" x1="84.36" y1="176.22" x2="79.68" y2="170.87"/>
          <polyline class="cls-6" points="78.12 169.09 76.4 167.13 78.12 165.16"/>
          <line class="cls-3" x1="81.24" y1="161.6" x2="85.92" y2="156.25"/>
          <polyline class="cls-6" points="87.49 154.47 89.2 152.5 91.78 152.89"/>
          <path class="cls-4" d="M96.7,153.62l21.81,3.24c6.77,1.01,13.68,1.01,20.45,0l24.27-3.61"/>
          <polyline class="cls-6" points="165.69 152.89 168.27 152.5 169.99 154.47"/>
          <line class="cls-3" x1="173.11" y1="158.03" x2="177.79" y2="163.38"/>
          <polyline class="cls-6" points="179.35 165.16 181.07 167.13 179.35 169.09"/>
          <line class="cls-3" x1="176.23" y1="172.65" x2="171.55" y2="178"/>
        </g>
      </g>
      <g>
        <rect class="cls-13" x="438.32" y="43.72" width="39.33" height="400.88"/>
        <path class="cls-17" d="M470.22,415.95c-.11-.9-.87-1.61-1.71-1.93s-1.78-.32-2.68-.32c.87-.66,1.77-1.34,2.29-2.3.52-.96.56-2.27-.22-3.04-.5-.5-1.25-.69-1.96-.65s-1.39.27-2.06.49c.63-1.11,1.16-2.36,1.02-3.63-.14-1.27-1.15-2.53-2.43-2.52-.96,0-1.81.7-2.28,1.54-.43.77-.59,1.66-.72,2.52-.3-1.76-1.52-3.4-3.22-4.01-1.78-.64-4,.01-4.99,1.63-.99,1.62-.45,4.03,1.22,4.93-.78-.46-1.79-.36-2.61.03-.81.4-1.47,1.05-2.11,1.69-1.01,1.01-2.08,2.21-2.01,3.63.07,1.47,1.4,2.62,2.82,2.99,1.42.37,2.92.12,4.37-.13-.58,2.91.88,6.11,3.45,7.6,1.08.63,2.45.96,3.59.44,1.01-.46,1.65-1.49,1.91-2.56.26-1.07.19-2.19.12-3.3,2.14,1.13,4.94.9,6.86-.57.79-.61,1.48-1.52,1.36-2.51ZM460.36,416.7c-1.19.53-2.64.38-3.74-.33-1.1-.71-1.83-1.92-2.01-3.21-.22-1.5.33-3.13,1.51-4.07,2.8-2.23,6.48.69,6.55,3.81.04,1.57-.87,3.16-2.31,3.8Z"/>
        <path class="cls-17" d="M468.27,368.8c-.72-.55-1.76-.5-2.58-.12s-1.47,1.05-2.1,1.7c.14-1.08.27-2.2-.06-3.25-.33-1.04-1.24-1.98-2.33-1.97-.71.01-1.37.42-1.84.95s-.78,1.18-1.08,1.83c-.36-1.23-.89-2.48-1.89-3.27-1.01-.79-2.61-.93-3.5-.02-.67.69-.76,1.79-.48,2.71.26.84.78,1.58,1.3,2.27-1.47-1.01-3.5-1.28-5.12-.48-1.7.83-2.78,2.88-2.31,4.72.47,1.84,2.58,3.13,4.39,2.56-.87.23-1.51,1.03-1.79,1.89-.28.86-.27,1.78-.26,2.69.02,1.43.14,3.03,1.21,3.97,1.1.97,2.86.83,4.11.06,1.25-.76,2.12-2.01,2.94-3.23,1.69,2.44,5,3.63,7.85,2.82,1.21-.34,2.39-1.09,2.82-2.27.37-1.04.08-2.22-.51-3.16-.59-.93-1.44-1.67-2.28-2.38,2.31-.75,4.09-2.91,4.37-5.32.12-.99-.06-2.12-.85-2.73ZM461.94,376.39c-.45,1.22-1.57,2.16-2.84,2.45-1.27.29-2.65-.03-3.71-.79-1.23-.89-2.02-2.41-1.87-3.92.35-3.56,5.01-4.16,7.3-2.04,1.15,1.07,1.66,2.83,1.12,4.3Z"/>
        <path class="cls-17" d="M464.68,327.7c-.88-.22-1.82.23-2.42.9s-.94,1.54-1.26,2.39c-.3-1.05-.62-2.13-1.32-2.96-.71-.83-1.92-1.34-2.92-.89-.65.29-1.09.92-1.31,1.6s-.25,1.39-.28,2.1c-.81-.99-1.79-1.93-3.02-2.26-1.24-.33-2.77.16-3.23,1.36-.34.9,0,1.94.62,2.68.57.68,1.33,1.15,2.09,1.58-1.75-.35-3.72.2-4.9,1.56-1.24,1.43-1.43,3.74-.27,5.24,1.15,1.5,3.6,1.87,5.04.63-.71.56-.98,1.54-.91,2.44.08.9.45,1.75.82,2.58.58,1.3,1.31,2.73,2.67,3.18,1.39.46,2.95-.36,3.8-1.55.85-1.19,1.16-2.68,1.44-4.12,2.51,1.59,6.02,1.38,8.33-.48.98-.79,1.77-1.94,1.7-3.19-.06-1.1-.8-2.08-1.7-2.71-.91-.63-1.98-.97-3.03-1.3,1.83-1.59,2.62-4.28,1.94-6.61-.28-.96-.89-1.93-1.85-2.17ZM461.83,337.17c.07,1.3-.6,2.6-1.65,3.37-1.05.77-2.45,1.01-3.72.72-1.48-.34-2.8-1.43-3.25-2.87-1.07-3.42,2.98-5.79,5.91-4.74,1.48.53,2.63,1.95,2.71,3.52Z"/>
        <path class="cls-17" d="M457.41,288.14c-.85.32-1.35,1.23-1.46,2.13s.12,1.8.34,2.68c-.85-.69-1.73-1.39-2.79-1.66-1.06-.27-2.34.01-2.9.95-.37.61-.36,1.38-.16,2.06s.6,1.29.98,1.88c-1.23-.34-2.57-.55-3.77-.11-1.2.44-2.17,1.73-1.86,2.97.23.93,1.12,1.59,2.04,1.84.85.23,1.75.17,2.62.09-1.63.72-2.93,2.3-3.11,4.1-.19,1.89.98,3.88,2.79,4.45s4.02-.54,4.49-2.38c-.26.87.08,1.83.66,2.52.58.69,1.37,1.17,2.15,1.64,1.22.73,2.64,1.48,4.01,1.07,1.41-.42,2.21-1.99,2.22-3.46.01-1.47-.59-2.86-1.19-4.2,2.96-.15,5.72-2.33,6.54-5.18.35-1.2.33-2.61-.44-3.59-.68-.87-1.85-1.24-2.95-1.23-1.1,0-2.18.35-3.23.68.58-2.35-.32-5.01-2.21-6.52-.78-.62-1.83-1.07-2.77-.71ZM460.52,297.52c.8,1.03,1,2.47.58,3.7-.42,1.23-1.42,2.24-2.63,2.73-1.4.57-3.11.44-4.31-.48-2.84-2.18-.89-6.45,2.11-7.28,1.52-.42,3.28.08,4.25,1.32Z"/>
        <path class="cls-17" d="M445.59,261.5c.18.89.99,1.54,1.86,1.79s1.8.18,2.7.1c-.82.72-1.66,1.48-2.1,2.48-.44,1-.37,2.31.46,3.02.54.46,1.3.59,2.01.49.7-.09,1.37-.38,2.02-.66-.54,1.16-.97,2.45-.73,3.7.24,1.26,1.35,2.43,2.62,2.32.96-.08,1.75-.84,2.15-1.72.36-.8.46-1.7.52-2.57.44,1.73,1.79,3.27,3.53,3.74,1.83.5,3.99-.33,4.85-2.02.86-1.69.13-4.06-1.61-4.81.81.4,1.81.22,2.59-.24.78-.46,1.38-1.16,1.97-1.85.92-1.09,1.89-2.37,1.71-3.78-.19-1.46-1.6-2.5-3.05-2.76-1.45-.25-2.92.12-4.34.48.34-2.95-1.36-6.02-4.04-7.3-1.13-.54-2.52-.76-3.61-.15-.97.53-1.53,1.62-1.7,2.71-.17,1.09-.01,2.2.14,3.29-2.23-.96-4.99-.51-6.8,1.12-.74.67-1.35,1.63-1.16,2.61ZM455.36,259.97c1.14-.62,2.6-.59,3.75.03,1.15.62,1.97,1.77,2.26,3.04.34,1.48-.07,3.14-1.18,4.18-2.61,2.45-6.51-.17-6.83-3.28-.16-1.56.62-3.22,2-3.97Z"/>
        <path class="cls-17" d="M447.68,232.38c.72.55,1.76.51,2.58.12.82-.38,1.47-1.05,2.1-1.7-.14,1.08-.27,2.2.05,3.25.32,1.04,1.24,1.98,2.33,1.97.71,0,1.37-.42,1.84-.95.47-.53.78-1.18,1.09-1.82.36,1.23.88,2.48,1.89,3.27,1.01.79,2.61.94,3.5.02.67-.69.77-1.78.49-2.71-.25-.85-.77-1.58-1.3-2.28,1.47,1.01,3.5,1.28,5.12.49,1.7-.83,2.79-2.88,2.32-4.71-.47-1.84-2.57-3.14-4.38-2.57.87-.23,1.51-1.03,1.8-1.89.29-.86.28-1.78.27-2.69-.02-1.43-.13-3.03-1.2-3.97-1.1-.97-2.86-.83-4.11-.07-1.25.76-2.12,2.01-2.95,3.22-1.68-2.45-4.99-3.64-7.85-2.84-1.21.34-2.39,1.09-2.82,2.26-.38,1.04-.09,2.22.5,3.16.59.94,1.44,1.67,2.28,2.39-2.31.74-4.09,2.9-4.39,5.31-.12.99.06,2.12.85,2.73ZM454.03,224.81c.45-1.22,1.57-2.15,2.84-2.44,1.27-.29,2.65.04,3.7.8,1.22.89,2.01,2.42,1.86,3.92-.36,3.56-5.02,4.15-7.3,2.02-1.15-1.07-1.65-2.83-1.11-4.31Z"/>
        <path class="cls-17" d="M458.67,200.17c.84-.33,1.34-1.24,1.44-2.14.1-.9-.13-1.8-.36-2.68.85.68,1.74,1.38,2.8,1.64s2.34-.03,2.89-.97c.36-.61.35-1.39.14-2.06-.21-.68-.61-1.28-1-1.87,1.24.33,2.58.53,3.77.08,1.2-.45,2.16-1.75,1.83-2.98-.24-.93-1.13-1.58-2.06-1.82-.86-.22-1.75-.16-2.62-.07,1.63-.73,2.91-2.33,3.07-4.13.17-1.89-1.02-3.87-2.83-4.42-1.81-.55-4.02.58-4.46,2.42.25-.87-.1-1.82-.69-2.51-.59-.69-1.38-1.16-2.16-1.62-1.23-.72-2.66-1.46-4.02-1.03-1.4.44-2.19,2.01-2.19,3.48,0,1.47.62,2.86,1.23,4.19-2.96.17-5.7,2.38-6.49,5.24-.34,1.21-.31,2.61.48,3.59.69.86,1.86,1.23,2.96,1.21,1.1-.02,2.17-.37,3.22-.71-.56,2.36.36,5.01,2.27,6.5.78.61,1.84,1.05,2.77.69ZM455.48,190.82c-.81-1.02-1.03-2.46-.62-3.7.41-1.24,1.4-2.25,2.61-2.75,1.4-.59,3.11-.47,4.32.44,2.86,2.15.95,6.44-2.05,7.29-1.51.43-3.28-.05-4.26-1.28Z"/>
        <path class="cls-17" d="M466.95,158.76c.4-.81.14-1.82-.4-2.55-.54-.73-1.32-1.23-2.08-1.72,1.09-.08,2.21-.17,3.17-.7s1.7-1.61,1.46-2.68c-.15-.69-.68-1.26-1.3-1.61-.62-.35-1.32-.53-2-.7,1.13-.6,2.25-1.36,2.82-2.51.57-1.14.4-2.75-.68-3.44-.81-.52-1.9-.39-2.75.06-.78.42-1.39,1.07-1.97,1.73.7-1.64.56-3.68-.54-5.12-1.15-1.5-3.38-2.15-5.08-1.33-1.71.83-2.56,3.15-1.64,4.81-.4-.81-1.31-1.27-2.21-1.38-.9-.11-1.8.09-2.69.28-1.39.31-2.94.73-3.65,1.97-.73,1.27-.24,2.96.76,4.04,1,1.08,2.39,1.68,3.75,2.25-2.06,2.14-2.57,5.62-1.21,8.26.57,1.11,1.54,2.13,2.78,2.31,1.09.16,2.2-.36,2.99-1.12.8-.76,1.35-1.74,1.88-2.71,1.19,2.11,3.67,3.43,6.08,3.23.99-.08,2.07-.48,2.5-1.38ZM458.25,154.06c-1.29-.2-2.43-1.11-2.97-2.3-.54-1.19-.5-2.6.04-3.79.63-1.38,1.96-2.45,3.47-2.61,3.56-.36,5.07,4.08,3.45,6.75-.82,1.34-2.44,2.19-4,1.95Z"/>
        <path class="cls-17" d="M465.13,122.68c.54-.72.49-1.76.1-2.58-.39-.82-1.06-1.46-1.72-2.08,1.08.13,2.21.25,3.25-.08s1.97-1.26,1.95-2.35c-.02-.71-.43-1.36-.97-1.83-.54-.46-1.19-.77-1.83-1.07,1.22-.37,2.47-.91,3.25-1.92.78-1.01.91-2.62-.01-3.5-.7-.66-1.79-.75-2.71-.46-.84.26-1.57.79-2.26,1.32,1-1.48,1.25-3.51.44-5.13-.85-1.7-2.9-2.76-4.74-2.27-1.83.49-3.11,2.61-2.52,4.41-.24-.87-1.04-1.5-1.91-1.78-.86-.28-1.79-.26-2.69-.24-1.43.04-3.03.16-3.96,1.24-.96,1.11-.8,2.86-.03,4.11.77,1.25,2.03,2.1,3.25,2.92-2.43,1.71-3.59,5.02-2.76,7.87.35,1.2,1.11,2.38,2.29,2.8,1.04.37,2.22.06,3.15-.53.93-.6,1.65-1.45,2.36-2.3.76,2.3,2.94,4.06,5.36,4.33.99.11,2.12-.08,2.72-.87ZM457.49,116.41c-1.23-.44-2.17-1.55-2.47-2.82-.3-1.27,0-2.65.77-3.71.88-1.23,2.4-2.03,3.9-1.9,3.57.32,4.2,4.98,2.1,7.28-1.06,1.16-2.82,1.68-4.3,1.15Z"/>
        <path class="cls-17" d="M470.22,77.28c-.11-.9-.87-1.61-1.71-1.93-.85-.32-1.78-.32-2.68-.32.87-.66,1.77-1.34,2.29-2.3.52-.96.56-2.27-.22-3.04-.5-.5-1.25-.69-1.96-.65-.71.04-1.39.27-2.06.49.63-1.11,1.16-2.36,1.02-3.63-.14-1.27-1.15-2.53-2.43-2.52-.96,0-1.81.7-2.28,1.54-.43.77-.59,1.66-.72,2.52-.3-1.76-1.52-3.4-3.22-4.01-1.78-.64-4,.01-4.99,1.63-.99,1.62-.45,4.04,1.22,4.93-.78-.46-1.79-.36-2.61.03-.81.4-1.47,1.05-2.11,1.69-1.01,1.01-2.08,2.21-2.01,3.63.07,1.47,1.4,2.62,2.82,2.99,1.42.37,2.92.12,4.37-.14-.58,2.91.88,6.11,3.45,7.6,1.08.63,2.45.96,3.59.44,1.01-.45,1.65-1.49,1.91-2.56.26-1.07.19-2.19.12-3.3,2.14,1.13,4.94.9,6.86-.57.79-.61,1.48-1.52,1.36-2.51ZM460.36,78.03c-1.19.53-2.64.38-3.74-.33-1.1-.71-1.83-1.92-2.01-3.21-.22-1.5.33-3.13,1.51-4.07,2.8-2.23,6.48.69,6.55,3.81.04,1.57-.87,3.16-2.31,3.8Z"/>
        <rect class="cls-17" x="441.32" y="43.72" width=".74" height="400.88" transform="translate(883.37 488.31) rotate(-180)"/>
        <rect class="cls-17" x="473.91" y="43.72" width=".74" height="400.88" transform="translate(948.56 488.31) rotate(-180)"/>
        <path class="cls-15" d="M499.71,183.94l-30.93-5.01c-7.15-1.16-14.44-1.16-21.58,0l-30.93,5.01-13.51-16.81,13.51-16.81,30.93,5.01c7.15,1.16,14.44,1.16,21.58,0l30.93-5.01,13.51,16.81-13.51,16.81Z"/>
        <g>
          <circle class="cls-16" cx="419.92" cy="167.13" r="3.78"/>
          <circle class="cls-16" cx="496.05" cy="167.13" r="3.78"/>
        </g>
        <g>
          <polyline class="cls-1" points="499.24 179.78 497.52 181.75 494.94 181.36"/>
          <path class="cls-2" d="M490.02,180.63l-21.81-3.24c-6.77-1.01-13.68-1.01-20.45,0l-24.27,3.61"/>
          <polyline class="cls-1" points="421.03 181.36 418.45 181.75 416.73 179.78"/>
          <line class="cls-5" x1="413.61" y1="176.22" x2="408.93" y2="170.87"/>
          <polyline class="cls-1" points="407.37 169.09 405.65 167.13 407.37 165.16"/>
          <line class="cls-5" x1="410.49" y1="161.6" x2="415.17" y2="156.25"/>
          <polyline class="cls-1" points="416.73 154.47 418.45 152.5 421.03 152.89"/>
          <path class="cls-2" d="M425.95,153.62l21.81,3.24c6.77,1.01,13.68,1.01,20.45,0l24.27-3.61"/>
          <polyline class="cls-1" points="494.94 152.89 497.52 152.5 499.24 154.47"/>
          <line class="cls-5" x1="502.36" y1="158.03" x2="507.04" y2="163.38"/>
          <polyline class="cls-1" points="508.6 165.16 510.32 167.13 508.6 169.09"/>
          <line class="cls-5" x1="505.48" y1="172.65" x2="500.8" y2="178"/>
        </g>
      </g>
      <rect class="cls-9" x="193.62" y="15.55" width="8.35" height="28.1"/>
      <rect class="cls-9" x="384.75" y="15.55" width="8.35" height="28.1"/>
      <path class="cls-15" d="M206.25,0h174.22C387.44,0,393.1,5.66,393.1,12.63v2.92h-199.48v-2.92C193.62,5.66,199.28,0,206.25,0Z"/>
    </g>
  </g>
</svg>