<?xml version="1.0" encoding="UTF-8"?>
<svg id="Layer_2" data-name="Layer 2" xmlns="http://www.w3.org/2000/svg" viewBox="0 0 483.12 369.3">
  <defs>
    <style>
      .cls-1, .cls-2, .cls-3, .cls-4, .cls-5, .cls-6 {
        fill: none;
        stroke-miterlimit: 10;
        stroke-width: .21px;
      }

      .cls-1, .cls-3, .cls-5 {
        stroke: #ffa93f;
      }

      .cls-1, .cls-6 {
        stroke-dasharray: 3.9 3.9;
      }

      .cls-7 {
        fill: #ffb666;
      }

      .cls-8 {
        fill: #ffa93f;
      }

      .cls-9 {
        fill: #fbab48;
      }

      .cls-10 {
        fill: #fefcfd;
      }

      .cls-11 {
        fill: #fac1b0;
      }

      .cls-2, .cls-4, .cls-6 {
        stroke: #2d1410;
      }

      .cls-2, .cls-5 {
        stroke-dasharray: 4.09 4.09;
      }

      .cls-12 {
        fill: #f9f9f9;
      }

      .cls-13 {
        fill: #8fbdde;
      }

      .cls-14 {
        fill: #d8e9a2;
      }

      .cls-15 {
        fill: #2d1410;
      }

      .cls-16 {
        fill: #b1cddd;
      }
    </style>
  </defs>
  <g id="Layer_1-2" data-name="Layer 1">
    <rect class="cls-10" x="3.21" y="36" width="476.71" height="330.09" rx="16.47" ry="16.47"/>
    <path class="cls-8" d="M479.82,311.66h3.3v39.11c0,10.23-8.3,18.53-18.53,18.53h-39.11v-3.3c0-29.99,24.35-54.34,54.34-54.34Z"/>
    <path class="cls-12" d="M185.43,294.09l-74.61-24.24v-78.45l-46.11,63.47L3.21,234.88v13.78l33,45.43L3.21,339.51v10.11c0,1.22.14,2.4.39,3.54l61.11-19.86,23.82,32.78h22.29v-47.76l74.61-24.24Z"/>
    <path class="cls-13" d="M0,311.66h3.3c29.99,0,54.34,24.35,54.34,54.34v3.3H18.53c-10.23,0-18.53-8.3-18.53-18.53v-39.11h0Z"/>
    <path class="cls-14" d="M18.53,32.79h39.11v3.3c0,29.99-24.35,54.34-54.34,54.34H0v-39.11c0-10.23,8.3-18.53,18.53-18.53Z"/>
    <g>
      <g>
        <g>
          <path class="cls-13" d="M143.07,164.79c2.61-.55,5.22-1.08,7.83-1.59-1.83,1.89-3.63,3.79-5.42,5.7,1.3,2.22,2.58,4.45,3.85,6.68-2.36-1.06-4.74-2.1-7.13-3.13-1.76,1.92-3.49,3.86-5.2,5.8.23-2.56.48-5.12.74-7.68-2.42-1-4.85-1.98-7.3-2.95,2.6-.62,5.19-1.22,7.8-1.8.27-2.56.56-5.12.86-7.69,1.33,2.21,2.66,4.42,3.97,6.64Z"/>
          <path class="cls-8" d="M193.29,156.94c2.64-.27,5.28-.52,7.93-.74-2.01,1.68-4,3.38-5.97,5.09,1.05,2.35,2.08,4.7,3.11,7.06-2.22-1.31-4.47-2.6-6.73-3.87-1.94,1.72-3.86,3.46-5.76,5.21.5-2.52,1.02-5.04,1.54-7.56-2.29-1.25-4.59-2.49-6.92-3.71,2.63-.34,5.27-.66,7.91-.96.54-2.52,1.1-5.03,1.67-7.55,1.09,2.34,2.16,4.68,3.23,7.03Z"/>
          <path class="cls-14" d="M243.93,154.5c2.65.01,5.3.05,7.95.11-2.18,1.46-4.33,2.94-6.47,4.43.79,2.45,1.57,4.9,2.33,7.35-2.07-1.54-4.16-3.06-6.27-4.57-2.11,1.51-4.2,3.03-6.27,4.57.77-2.45,1.54-4.9,2.33-7.35-2.14-1.49-4.29-2.97-6.47-4.43,2.65-.06,5.3-.09,7.95-.11.81-2.44,1.63-4.89,2.46-7.33.83,2.44,1.65,4.88,2.46,7.33Z"/>
          <path class="cls-11" d="M294.55,157.47c2.64.3,5.27.61,7.91.96-2.32,1.22-4.63,2.46-6.92,3.71.53,2.52,1.04,5.04,1.54,7.56-1.9-1.75-3.82-3.49-5.76-5.21-2.26,1.27-4.51,2.57-6.73,3.87,1.02-2.36,2.06-4.71,3.11-7.06-1.97-1.71-3.96-3.41-5.97-5.09,2.64.22,5.29.47,7.93.74,1.06-2.35,2.14-4.69,3.23-7.03.57,2.52,1.12,5.03,1.67,7.55Z"/>
          <path class="cls-13" d="M344.71,165.84c2.6.58,5.2,1.18,7.8,1.8-2.45.96-4.89,1.94-7.3,2.95.26,2.56.5,5.12.74,7.68-1.71-1.94-3.44-3.88-5.2-5.8-2.39,1.02-4.77,2.07-7.13,3.13,1.27-2.23,2.56-4.46,3.85-6.68-1.78-1.91-3.59-3.81-5.42-5.7,2.61.51,5.22,1.04,7.83,1.59,1.31-2.22,2.63-4.43,3.97-6.64.3,2.56.59,5.12.86,7.69Z"/>
        </g>
        <g>
          <path class="cls-14" d="M144,244.81c2.58.55,5.17,1.07,7.76,1.57-2.38,1.07-4.78,2.13-7.2,3.17.31,2.56.63,5.12.96,7.67-1.84-1.91-3.67-3.84-5.47-5.77-2.44,1.01-4.9,2.01-7.37,2.99,1.37-2.19,2.72-4.38,4.06-6.58-1.77-1.95-3.52-3.9-5.25-5.87,2.57.62,5.14,1.21,7.72,1.79,1.33-2.21,2.64-4.42,3.94-6.63.27,2.56.55,5.11.84,7.67Z"/>
          <path class="cls-9" d="M193.75,252.58c2.62.27,5.23.51,7.85.73-2.25,1.32-4.51,2.63-6.8,3.92.58,2.51,1.17,5.02,1.77,7.53-2.03-1.7-4.04-3.42-6.03-5.15-2.31,1.27-4.64,2.52-6.98,3.76,1.12-2.32,2.23-4.65,3.32-6.98-1.96-1.75-3.9-3.5-5.82-5.27,2.61.34,5.22.65,7.83.95,1.08-2.33,2.15-4.67,3.2-7.02.54,2.51,1.08,5.02,1.64,7.53Z"/>
          <path class="cls-13" d="M243.91,255c2.63-.01,5.25-.05,7.88-.11-2.09,1.55-4.2,3.1-6.33,4.62.84,2.43,1.69,4.87,2.56,7.29-2.2-1.48-4.37-2.97-6.53-4.48-2.16,1.51-4.33,3-6.53,4.48.86-2.43,1.72-4.86,2.56-7.29-2.13-1.53-4.24-3.07-6.33-4.62,2.62.06,5.25.09,7.88.11.82-2.44,1.64-4.88,2.43-7.32.8,2.44,1.61,4.88,2.43,7.32Z"/>
          <path class="cls-14" d="M294.04,252.06c2.61-.29,5.22-.61,7.83-.95-1.92,1.77-3.86,3.53-5.82,5.27,1.1,2.33,2.2,4.66,3.32,6.98-2.35-1.24-4.67-2.49-6.98-3.76-1.99,1.73-4,3.45-6.03,5.15.6-2.51,1.19-5.02,1.77-7.53-2.28-1.29-4.55-2.6-6.8-3.92,2.62-.22,5.23-.47,7.85-.73.56-2.51,1.11-5.02,1.64-7.53,1.05,2.34,2.12,4.68,3.2,7.02Z"/>
          <path class="cls-11" d="M343.73,243.77c2.58-.57,5.15-1.17,7.72-1.79-1.73,1.97-3.48,3.92-5.25,5.87,1.34,2.2,2.69,4.39,4.06,6.58-2.47-.98-4.93-1.97-7.37-2.99-1.8,1.93-3.62,3.86-5.47,5.77.33-2.56.66-5.12.96-7.67-2.42-1.04-4.82-2.09-7.2-3.17,2.59-.5,5.17-1.03,7.76-1.57.29-2.56.57-5.11.84-7.67,1.3,2.21,2.62,4.43,3.94,6.63Z"/>
        </g>
      </g>
      <polygon class="cls-14" points="123.12 206.87 130.82 206.87 124.59 211.39 126.97 218.72 120.74 214.19 114.51 218.72 116.89 211.39 110.66 206.87 118.36 206.87 120.74 199.55 123.12 206.87"/>
      <polygon class="cls-11" points="364.76 206.87 372.46 206.87 366.23 211.39 368.61 218.72 362.38 214.19 356.15 218.72 358.53 211.39 352.31 206.87 360 206.87 362.38 199.55 364.76 206.87"/>
    </g>
    <g>
      <g>
        <path class="cls-15" d="M207.54,186.58c1.71-.41,3.43-.79,5.16-1.14.82,4.05,1.64,8.1,2.46,12.15,2.32-.47,4.64-.88,6.98-1.23.19,1.29.39,2.59.58,3.88-3.81.57-7.6,1.3-11.37,2.21-1.27-5.29-2.54-10.58-3.81-15.87Z"/>
        <path class="cls-15" d="M222.1,183.84c1.74-.24,3.48-.44,5.22-.62.55,5.41,1.09,10.82,1.64,16.24-1.55.16-3.1.34-4.65.55-.74-5.39-1.47-10.78-2.21-16.17Z"/>
        <path class="cls-15" d="M230.23,182.96c2.37-.19,4.73-.33,7.1-.4,1.94-.06,3.58.19,4.87.96,1.29.77,2.03,1.95,2,3.44-.02,1.4-.8,2.69-2.34,3.25,0,.01,0,.03,0,.04,1.99.58,2.89,2.08,2.86,3.76-.03,1.56-.75,2.78-1.92,3.58-1.17.81-2.75,1.2-4.59,1.25-2.22.07-4.45.19-6.66.37-.44-5.42-.88-10.84-1.32-16.26ZM237.37,189.09c1.22-.04,1.89-.57,1.87-1.52,0-.47-.22-.83-.57-1.05-.35-.22-.9-.34-1.7-.31-.46.02-.93.04-1.39.06.04.96.09,1.92.13,2.88.55-.03,1.1-.05,1.66-.07ZM239.42,194.78c.37-.28.53-.69.52-1.14-.01-.99-.74-1.55-2.01-1.51-.69.02-1.38.05-2.07.08.05,1.02.09,2.04.14,3.06.56-.03,1.12-.05,1.68-.07.86-.03,1.37-.15,1.74-.43Z"/>
        <path class="cls-15" d="M246.82,182.54c4.12.13,8.24.43,12.34.9-.15,1.3-.3,2.6-.45,3.9-2.3-.26-4.6-.47-6.9-.63-.05.82-.11,1.63-.16,2.45,1.93.13,3.86.3,5.79.5-.13,1.22-.26,2.45-.4,3.67-1.88-.2-3.76-.37-5.64-.49-.14,2.08-.28,4.15-.41,6.23-1.56-.1-3.11-.18-4.67-.23.17-5.44.34-10.87.51-16.31Z"/>
        <path class="cls-15" d="M265.31,188.25c-1.88-.3-3.77-.57-5.67-.8.16-1.3.32-2.6.47-3.89,5.63.68,11.23,1.69,16.77,3.02-.31,1.27-.61,2.54-.92,3.81-1.86-.45-3.73-.86-5.61-1.23-.8,4.05-1.61,8.11-2.41,12.16-1.54-.3-3.08-.58-4.62-.83.66-4.08,1.32-8.16,1.98-12.24Z"/>
      </g>
      <g>
        <path class="cls-15" d="M168.01,230.26c-6.56-1.37-9.96-6.49-8.66-11.81,1.34-5.45,6.65-8.39,12.67-7.14,1.9.4,3.65,1.16,4.96,2.18-.32,1.67-.64,3.35-.96,5.03-1.26-1.11-2.98-2.14-4.81-2.52-3.18-.66-5.78.85-6.41,3.64-.61,2.68,1,5.32,4.55,6.05,1.88.39,3.92.13,5.68-.51-.32,1.67-.64,3.33-.95,5-1.82.53-4.08.5-6.07.09Z"/>
        <path class="cls-15" d="M177.11,222.18c1.03-5.39,6.08-8.7,11.79-7.81,5.72.89,9.49,5.58,8.84,11.02-.65,5.44-5.71,9.07-11.82,8.12-6.08-.95-9.84-5.95-8.8-11.33ZM192.23,224.65c.39-2.78-1.23-5.18-4.06-5.62-2.83-.44-5.11,1.35-5.58,4.12-.48,2.76,1.13,5.23,4.06,5.69,2.93.45,5.2-1.41,5.59-4.18Z"/>
        <path class="cls-15" d="M201.22,216.34c1.72.2,3.44.39,5.16.57,1.39,2.44,2.81,4.87,4.27,7.3,1.85-2.13,3.67-4.27,5.46-6.43,1.71.13,3.41.24,5.12.34-.37,6.26-.74,12.51-1.12,18.77-1.89-.11-3.79-.24-5.68-.38.15-2.04.31-4.07.46-6.11.11-1.48.26-3.13.39-4.42-.02,0-.04,0-.05,0-.89,1.13-1.88,2.3-2.84,3.4-.86.99-1.73,1.97-2.6,2.96-.7-1.12-1.38-2.25-2.07-3.37-.78-1.27-1.51-2.57-2.19-3.85-.02,0-.04,0-.05,0-.11,1.29-.25,2.95-.4,4.42-.21,2.03-.42,4.06-.63,6.1-1.81-.19-3.63-.39-5.44-.6.74-6.22,1.48-12.45,2.21-18.67Z"/>
        <path class="cls-15" d="M224.21,218.29c2.44.12,4.88.22,7.32.29,2.2.06,3.97.51,5.42,1.62,1.46,1.11,2.37,2.78,2.36,4.96-.01,2.18-.96,3.84-2.49,4.91-1.53,1.07-3.39,1.48-5.67,1.41-.67-.02-1.34-.04-2.01-.06-.07,1.96-.14,3.93-.21,5.89-1.89-.07-3.79-.15-5.68-.24.32-6.26.64-12.52.95-18.78ZM230.83,227.29c1.07.03,1.67-.11,2.19-.46.52-.35.8-.97.82-1.7.02-.73-.24-1.36-.73-1.73-.49-.38-1.07-.55-2.13-.58-.5-.02-1.01-.03-1.51-.05-.05,1.49-.1,2.98-.16,4.47.51.02,1.02.03,1.53.05Z"/>
        <path class="cls-15" d="M241.46,218.73c1.8,0,3.59-.01,5.39-.04.07,4.76.15,9.52.22,14.28,2.74-.04,5.49-.12,8.23-.22.06,1.51.12,3.01.17,4.52-4.67.18-9.35.27-14.02.27,0-6.27,0-12.54,0-18.8Z"/>
        <path class="cls-15" d="M256.61,218.4c4.12-.18,8.23-.43,12.34-.76.12,1.5.24,3,.36,4.5-2.36.19-4.73.35-7.09.49.05.88.1,1.76.16,2.64,2.02-.12,4.04-.26,6.06-.41.11,1.42.22,2.83.33,4.25-2.04.16-4.09.3-6.13.42.06.95.11,1.9.17,2.85,2.54-.15,5.08-.33,7.62-.53.12,1.5.24,3,.36,4.5-4.44.36-8.89.64-13.34.83-.27-6.26-.55-12.52-.82-18.78Z"/>
        <path class="cls-15" d="M276.89,221.45c-2.03.21-4.05.4-6.08.57-.13-1.5-.25-3-.38-4.5,5.79-.49,11.58-1.13,17.35-1.91.2,1.49.41,2.98.61,4.48-2.02.27-4.04.53-6.06.77.56,4.73,1.12,9.46,1.67,14.19-1.89.22-3.77.43-5.66.62-.48-4.74-.97-9.47-1.45-14.21Z"/>
        <path class="cls-15" d="M289.42,215.38c4.09-.58,8.17-1.23,12.24-1.95.26,1.48.53,2.97.79,4.45-2.34.42-4.69.81-7.03,1.18.14.87.27,1.74.41,2.62,2-.31,4.01-.65,6-1,.24,1.4.49,2.8.73,4.2-2.02.35-4.05.69-6.08,1.01.15.94.3,1.88.44,2.82,2.52-.4,5.04-.82,7.55-1.27.27,1.48.53,2.97.8,4.45-4.4.79-8.81,1.49-13.24,2.11-.87-6.21-1.75-12.41-2.62-18.62Z"/>
        <path class="cls-15" d="M304.35,212.94c2.45-.46,4.89-.94,7.33-1.45,3.09-.65,5.79-.24,7.91,1.02,2.12,1.27,3.62,3.25,4.25,5.88.59,2.47.27,4.96-1.14,7.07-1.4,2.11-3.76,3.71-7.16,4.42-2.58.54-5.17,1.05-7.76,1.53-1.15-6.16-2.29-12.32-3.44-18.49ZM317.79,223.41c.72-1.04.92-2.39.62-3.75-.31-1.37-1.06-2.5-2.13-3.15-1.07-.64-2.32-.88-3.73-.58-.66.14-1.32.27-1.98.41.65,3.19,1.29,6.38,1.94,9.57.68-.14,1.36-.28,2.04-.42,1.45-.3,2.53-1.04,3.25-2.08Z"/>
      </g>
    </g>
    <g>
      <g>
        <path class="cls-9" d="M272.51,313.73c-1.25,0-2.43-.07-3.29.21-.44.63-.94,1.25-1.48,1.43-.52.17-.9-.05-1.03-.45-.27-.84.5-1.67,1.58-2.2,1.47-3.19,2.25-6.12,1.48-8.47-.2-.63-.54-.82-.6-.99-.18-.54.47-1.33,1.39-1.63,1.32-.43,2.15.41,2.42,1.25.54,1.65-1.33,5.89-3.09,9.25l2.84-.74c.32-2.35.84-4.67,1.2-4.79.38-.12.75.1.79.23.03.08-.41,1.66-.32,4.06l.13-.04c.71-.23,1.48-.87,1.64-1.44.06-.25.11-.38.25-.43.31-.1,1.04.36,1.36,1.34.52,1.61-.65,2.62-2.01,3.06-.36.12-.73.19-1.12.25.21,1.51.47,2.67.66,3.24.06.19-.1.4-.29.46-.9.29-2.19-.33-2.46-1.15-.14-.42-.14-1.34-.06-2.46Z"/>
        <path class="cls-9" d="M280.97,313.39c-.24.61-.86,1.27-1.4,1.45-.52.17-.9-.06-1.03-.45-.28-.86.53-1.93,1.64-2.57,2.22-3.5,5.12-7.41,4.11-10.5-.51-1.57-1.8-2.19-3.02-1.8-1.22.39-1.85,1.64-1.52,2.67.22.69.8,1.04,1.43.83.44-.14.67-.5.78-.67.06-.09.11-.15.2-.18.12-.04.32.06.43.41.42,1.3-.4,2.75-1.83,3.21-1.36.44-2.85-.14-3.37-1.75-.77-2.37,1.03-4.96,3.96-5.92,2.43-.79,4.99-.16,5.78,2.27,1.17,3.6-2.39,6.82-5.13,10.79,1.05-.25,2.31-.52,3.67-.96.9-.29,1.39-.92,1.56-1.48.06-.25.11-.38.25-.43.31-.1,1.04.36,1.36,1.34.52,1.61-.36,2.82-1.72,3.27-2.05.67-4.3-.13-6.17.48Z"/>
        <path class="cls-9" d="M308.44,291.55c.31-.33.71-.53.98-.62.29-.1.57-.09.63.07.08.23-.17.33-.41,1.73-.29,1.67-.09,3.87-.06,6.09,3.53-1.38,4.99-3.87,4.21-6.28-.74-2.28-3.21-3.12-6.48-2.06-4.1,1.33-6.23,4.62-5.45,7.03.33,1.01,1.04,1.42,1.94,1.13.71-.23,1.2-.78,1.33-.96.06-.09.09-.15.18-.17.15-.05.29.04.39.36.33,1.03-.23,2.85-2.26,3.51-1.7.55-3.43-.07-4.08-2.08-1.11-3.41,1.78-8.06,7.9-10.04,4.5-1.46,8.51-.59,9.5,2.45.87,2.68-.81,6.28-7.19,8.38-.09,3.5-.91,6.87-5.02,8.21-2.3.75-4.27-.12-4.76-1.62-.45-1.38.3-2.44,1.3-2.76.84-.27,1.75.17,1.93.74.09.27-.56.64-.26,1.57.23.71,1.01.97,1.74.73,4.17-1.35-.08-11.16,3.94-15.38Z"/>
        <path class="cls-9" d="M324.35,296.19c.09,2.19-.91,4.46-3.07,5.16-1.82.59-3.22-.37-3.74-1.96-.71-2.18.54-4.62,1.59-5.45.05-.85.65-1.58,1.44-1.83,1.3-.42,2.82.43,3.49,2.48.06.19.1.38.14.58.85-.81.89-2.05.86-2.62-.01-.18.22-.26.3-.28.27-.09.63.09.71.35.03.08.05.22.03.38-.07.79-.62,2.31-1.77,3.19ZM322.89,296.85c-1.49.27-2.76-.45-3.39-1.47-.23.72-.26,1.75.03,2.65.35,1.09,1.15,1.83,2.07,1.53.94-.31,1.36-1.46,1.3-2.71ZM322.75,295.9c-.02-.13-.05-.24-.09-.36-.35-1.09-.96-1.59-1.44-1.43-.27.09-.43.44-.31.84.2.61.87,1.11,1.84.95Z"/>
        <path class="cls-9" d="M326.12,292.33l.25-.08c.61-.2,1.31-.66,1.57-1.02.15-.24.3-.35.43-.39.33-.11.96.17,1.13.7.1.31.04.68-.09,1.16-.23.93-.55,2.31-.21,3.36.13.4.42.51.67.43.29-.1.84-.34,1.6-2.84.04-.15.15-.26.25-.29.15-.05.31.04.37.23.03.11.05.22.01.39-.65,3.34-1.61,4.39-2.74,4.76-1.05.34-2.06-.14-2.41-1.23-.33-1.01.1-2.62.5-3.66-1.44.12-3.08-.36-3.52-1.71-.27-.84.04-1.73.73-1.95.52-.17,1.02.22,1.27,1,.08.25.14.65.16,1.15Z"/>
        <path class="cls-9" d="M333.8,286.31c-.17.77-.31,1.81-.36,2.96.36-.23.69-.45.95-.7.78-.74.75-1.12.94-1.18.23-.07.61.1.8.67.32.98-.13,2.15-2.66,3.07.06.91.2,1.83.47,2.67.3.92.71,1.34,1.17,1.19.4-.13,1.07-.63,1.83-3.12.04-.15.15-.26.25-.29.15-.05.31.04.37.23.03.11.05.22.01.39-.65,3.34-1.77,4.44-3.05,4.86-1.26.41-2.29-.41-2.76-1.88-.16-.5-.36-1.32-.45-2.17-.05-.43-.09-.92-.11-1.42-.58-.07-1.07-.37-1.21-.81-.05-.15-.03-.29.08-.33.15-.05.44.07,1.05-.13h.04c-.02-1.35.05-2.71.24-3.84.26-1.5.57-2.36,1.31-2.6.48-.16,1.25,0,1.48.7.08.25-.22.95-.38,1.75Z"/>
        <path class="cls-9" d="M338.36,287.73c.03-.89.66-1.6,1.48-1.87,1.3-.42,2.82.43,3.49,2.48.82,2.51-.08,5.88-2.78,6.76-1.82.59-3.22-.37-3.74-1.96-.7-2.16.51-4.56,1.55-5.41ZM340.61,287.88c-.29.1-.36.39-.23.79.06.19.17.29.19.38.05.15-.08.33-.33.41-.4.13-1.02,0-1.44-.44-.27.74-.31,1.81,0,2.76.35,1.09,1.15,1.83,2.07,1.53,1.28-.41,1.59-2.37,1.05-4.02-.39-1.19-1-1.5-1.31-1.4Z"/>
      </g>
      <g>
        <path class="cls-9" d="M292.12,331.78c-.3.76-1.07,1.58-1.74,1.8-.65.21-1.11-.07-1.27-.56-.35-1.07.66-2.4,2.04-3.19,2.76-4.34,6.35-9.19,5.1-13.04-.63-1.95-2.24-2.72-3.74-2.23-1.51.49-2.3,2.04-1.88,3.31.28.86.99,1.29,1.77,1.03.55-.18.83-.62.97-.83.08-.11.14-.19.24-.22.16-.05.4.07.54.51.52,1.61-.5,3.41-2.27,3.98-1.69.55-3.53-.17-4.18-2.17-.95-2.94,1.27-6.16,4.91-7.34,3.01-.98,6.2-.2,7.18,2.81,1.45,4.47-2.97,8.46-6.37,13.39,1.31-.31,2.86-.64,4.55-1.19,1.12-.36,1.73-1.14,1.93-1.83.07-.31.13-.47.32-.53.39-.13,1.29.44,1.69,1.66.65,2-.44,3.5-2.13,4.05-2.55.83-5.34-.16-7.65.59Z"/>
        <path class="cls-9" d="M302.75,322.84c-1.98-6.08,1.17-13.28,6.55-15.03,1.3-.42,2.55-.2,2.79.53.04.13-.05.28-.21.33-.65.21-.62-.06-1.95.37-3.51,1.14-5.56,7.12-3.79,12.55.88,2.7,2.49,4.65,4.41,4.03,2.39-.78,3.21-5.96,1.91-9.96-.68-2.11-2.35-4.58-3.91-4.07-.47.15-.71.12-.75-.01-.11-.34.87-1.32,1.85-1.64,2.49-.81,4.71.8,5.66,3.71,1.98,6.11-.28,12.42-4.85,13.9-3.12,1.01-6.35-.52-7.71-4.71Z"/>
        <path class="cls-9" d="M320.92,322.42c-.3.76-1.07,1.58-1.74,1.8-.65.21-1.11-.07-1.28-.56-.35-1.07.66-2.4,2.04-3.19,2.76-4.34,6.35-9.19,5.1-13.03-.63-1.95-2.23-2.72-3.74-2.23-1.51.49-2.3,2.04-1.88,3.31.28.86.99,1.29,1.77,1.03.55-.18.83-.62.97-.83.08-.11.14-.19.24-.22.16-.05.4.07.54.51.52,1.61-.5,3.41-2.27,3.98-1.69.55-3.53-.17-4.18-2.17-.95-2.94,1.27-6.16,4.91-7.34,3.01-.98,6.2-.2,7.18,2.81,1.45,4.47-2.97,8.46-6.37,13.39,1.31-.31,2.86-.64,4.55-1.19,1.12-.36,1.73-1.14,1.93-1.83.07-.31.13-.47.32-.53.39-.13,1.29.44,1.69,1.66.65,2-.44,3.5-2.13,4.05-2.55.83-5.34-.16-7.65.59Z"/>
        <path class="cls-9" d="M331.47,313.59c-1.76-5.43.87-13.67,6.59-15.53,2.47-.8,4.33-.03,4.82,1.48.62,1.9-.93,3.23-2.13,3.62-.65.21-1.1.07-1.16-.14-.1-.31.49-1.05.08-2.32-.29-.91-1.08-1.2-1.86-.95-2.34.76-3.84,5.24-3.46,9.51.42-1.46,1.6-3.11,3.66-3.77,2.57-.84,4.98.28,5.9,3.14,1.28,3.95-1.2,8.41-4.82,9.58-3.4,1.11-6.41-.9-7.62-4.62ZM334.62,310.9c.07.38.18.72.29,1.08.89,2.73,2.63,4.66,4.4,4.09,1.77-.57,2.26-3.38,1.47-5.82-.63-1.95-1.95-3.16-3.53-2.65-1.4.46-2.37,2.18-2.64,3.3Z"/>
      </g>
    </g>
    <path class="cls-12" d="M280.17,130.5h97.77l30.21,92.99,30.21-92.99h41.55v-40.85l-22.87-16.62,11.74-36.13c-1.68-.57-3.47-.9-5.34-.9h-53.21l-2.08,1.51-2.08-1.51h-58.84l12.03,37.03-79.1,57.47Z"/>
    <path class="cls-15" d="M425.48,32.79h39.11c10.23,0,18.53,8.3,18.53,18.53v39.11h-3.3c-29.99,0-54.34-24.35-54.34-54.34v-3.3h0Z"/>
    <g>
      <circle class="cls-10" cx="443.32" cy="353.83" r="4.03"/>
      <circle class="cls-10" cx="467.65" cy="329.49" r="4.03"/>
    </g>
    <g>
      <circle class="cls-10" cx="15.47" cy="329.49" r="4.03"/>
      <circle class="cls-10" cx="39.8" cy="353.83" r="4.03"/>
    </g>
    <g>
      <circle class="cls-10" cx="39.8" cy="48.26" r="4.03"/>
      <circle class="cls-10" cx="15.47" cy="72.6" r="4.03"/>
    </g>
    <g>
      <circle class="cls-10" cx="467.65" cy="72.6" r="4.03"/>
      <circle class="cls-10" cx="443.32" cy="48.26" r="4.03"/>
    </g>
    <g>
      <rect class="cls-8" x="89.81" y="36" width="32.39" height="330.09"/>
      <path class="cls-7" d="M116.47,342.5c-.09-.74-.71-1.33-1.41-1.59s-1.46-.26-2.21-.26c.72-.54,1.46-1.11,1.88-1.9.43-.79.46-1.87-.18-2.51-.41-.41-1.03-.57-1.62-.54s-1.15.22-1.7.41c.52-.92.95-1.95.84-2.99-.11-1.05-.95-2.08-2-2.08-.79,0-1.49.57-1.88,1.27-.35.64-.49,1.36-.6,2.07-.25-1.45-1.25-2.8-2.65-3.3-1.47-.53-3.3.01-4.11,1.34-.81,1.33-.37,3.32,1.01,4.06-.64-.38-1.47-.3-2.15.03-.67.33-1.21.86-1.74,1.39-.83.83-1.71,1.82-1.65,2.99.06,1.21,1.15,2.16,2.32,2.46,1.17.3,2.4.1,3.59-.11-.47,2.4.72,5.03,2.84,6.26.89.52,2.02.79,2.96.36.83-.37,1.36-1.23,1.57-2.11.21-.88.16-1.81.1-2.71,1.76.93,4.07.74,5.65-.47.65-.5,1.22-1.25,1.12-2.07ZM108.35,343.12c-.98.44-2.17.31-3.08-.27-.9-.58-1.5-1.58-1.66-2.65-.18-1.23.27-2.57,1.24-3.35,2.31-1.84,5.33.57,5.39,3.14.03,1.29-.72,2.6-1.9,3.13Z"/>
      <path class="cls-7" d="M116.67,309.45c-.23-.71-.97-1.16-1.7-1.27s-1.49.03-2.22.19c.59-.67,1.2-1.38,1.47-2.24.26-.86.07-1.93-.68-2.42-.49-.32-1.12-.35-1.69-.2s-1.08.44-1.58.74c.32-1,.54-2.1.22-3.1-.32-1-1.35-1.85-2.38-1.63-.78.16-1.35.86-1.58,1.62-.22.69-.2,1.43-.17,2.15-.53-1.37-1.79-2.49-3.26-2.7-1.54-.22-3.23.67-3.76,2.14-.53,1.47.3,3.33,1.8,3.77-.7-.25-1.5,0-2.1.46-.59.45-1.01,1.09-1.42,1.71-.64.98-1.31,2.12-1.02,3.26.3,1.17,1.56,1.89,2.77,1.95,1.21.06,2.37-.39,3.5-.83.02,2.44,1.72,4.79,4.04,5.56.98.33,2.13.37,2.97-.24.74-.53,1.09-1.48,1.12-2.38.03-.91-.21-1.8-.45-2.68,1.92.56,4.13-.09,5.44-1.59.54-.62.94-1.47.68-2.25ZM108.84,311.69c-.87.63-2.07.74-3.07.35-1-.39-1.79-1.25-2.15-2.26-.42-1.17-.25-2.58.55-3.53,1.89-2.26,5.34-.51,5.91,1.99.29,1.26-.18,2.69-1.23,3.45Z"/>
      <path class="cls-7" d="M111.84,269.8c-.72-.18-1.49.2-1.99.76s-.76,1.27-1.02,1.97c-.25-.86-.52-1.75-1.11-2.43-.59-.68-1.59-1.09-2.41-.72-.53.24-.89.77-1.07,1.32s-.2,1.15-.22,1.73c-.68-.81-1.48-1.58-2.5-1.84-1.02-.26-2.28.15-2.65,1.14-.28.74,0,1.6.52,2.2.47.55,1.1.94,1.73,1.29-1.44-.28-3.06.19-4.03,1.32-1.01,1.19-1.15,3.09-.19,4.32.96,1.23,2.98,1.52,4.15.49-.58.46-.8,1.27-.73,2.02.07.74.38,1.44.69,2.12.49,1.07,1.1,2.24,2.21,2.6,1.15.37,2.43-.31,3.12-1.3.69-.99.94-2.22,1.16-3.4,2.08,1.29,4.96,1.1,6.86-.45.8-.65,1.45-1.61,1.38-2.64-.06-.91-.67-1.71-1.42-2.22-.75-.51-1.64-.78-2.5-1.05,1.5-1.32,2.13-3.54,1.55-5.45-.24-.79-.74-1.58-1.54-1.78ZM109.55,277.61c.06,1.07-.48,2.14-1.34,2.78-.86.64-2.01.85-3.06.62-1.22-.27-2.31-1.16-2.7-2.35-.91-2.81,2.42-4.79,4.84-3.94,1.22.43,2.18,1.59,2.26,2.88Z"/>
      <path class="cls-7" d="M100.46,239.14c-.44.6-.39,1.45-.07,2.12s.88,1.2,1.42,1.71c-.89-.1-1.82-.2-2.67.08-.85.28-1.62,1.05-1.59,1.94.02.58.36,1.12.81,1.5s.98.63,1.52.87c-1.01.31-2.03.76-2.67,1.6-.64.84-.74,2.16.03,2.88.58.54,1.48.61,2.23.37.69-.22,1.29-.66,1.86-1.1-.81,1.22-1.01,2.9-.34,4.22.7,1.39,2.4,2.26,3.91,1.85s2.55-2.16,2.05-3.64c.2.72.87,1.23,1.58,1.45.71.22,1.47.21,2.22.18,1.17-.04,2.49-.15,3.25-1.04.79-.92.65-2.36,0-3.38-.64-1.02-1.68-1.72-2.69-2.39,1.99-1.42,2.93-4.15,2.24-6.5-.29-.99-.93-1.96-1.9-2.29-.86-.3-1.83-.04-2.59.45-.76.49-1.35,1.21-1.93,1.91-.64-1.89-2.45-3.33-4.43-3.54-.82-.09-1.74.08-2.23.73ZM106.78,244.26c1.01.35,1.79,1.27,2.05,2.31.26,1.04,0,2.18-.61,3.06-.72,1.02-1.96,1.69-3.2,1.58-2.94-.25-3.48-4.08-1.76-5.98.87-.96,2.31-1.4,3.53-.97Z"/>
      <path class="cls-7" d="M97.42,221.54c.55.51,1.4.55,2.11.29s1.28-.75,1.85-1.24c-.19.88-.39,1.79-.2,2.67.19.88.87,1.72,1.76,1.79.58.05,1.15-.24,1.58-.64.43-.4.73-.91,1.03-1.41.2,1.03.54,2.1,1.3,2.82.77.72,2.07.97,2.87.28.6-.52.76-1.41.6-2.18-.15-.71-.52-1.35-.89-1.96,1.13.94,2.77,1.31,4.16.79,1.46-.55,2.5-2.15,2.25-3.69-.25-1.54-1.88-2.77-3.4-2.43.73-.13,1.32-.73,1.61-1.41.3-.68.36-1.44.42-2.19.09-1.17.12-2.49-.69-3.35-.83-.88-2.28-.89-3.36-.36-1.09.53-1.89,1.49-2.66,2.42-1.2-2.13-3.82-3.36-6.22-2.91-1.01.19-2.04.71-2.48,1.65-.39.82-.24,1.82.17,2.63.41.81,1.05,1.48,1.69,2.13-1.95.44-3.57,2.08-3.99,4.03-.17.8-.11,1.74.49,2.3ZM103.19,215.8c.46-.97,1.45-1.65,2.51-1.79,1.06-.14,2.17.23,2.98.93.94.82,1.47,2.13,1.23,3.35-.56,2.9-4.42,3.03-6.14,1.12-.86-.96-1.14-2.45-.59-3.61Z"/>
      <path class="cls-7" d="M112.6,193.74c.42-.61.34-1.47,0-2.13-.35-.66-.92-1.17-1.48-1.66.9.07,1.82.14,2.67-.17.84-.31,1.58-1.1,1.53-2-.04-.58-.4-1.11-.86-1.47-.46-.36-1-.59-1.54-.82,1-.34,2-.83,2.61-1.69.61-.86.67-2.19-.12-2.88-.59-.52-1.5-.56-2.25-.29-.68.24-1.27.7-1.82,1.16.77-1.25.91-2.93.2-4.23-.75-1.37-2.48-2.17-3.97-1.72-1.49.46-2.48,2.24-1.93,3.71-.23-.71-.91-1.2-1.63-1.4-.72-.2-1.48-.16-2.22-.11-1.17.08-2.48.23-3.22,1.15-.76.94-.57,2.38.11,3.38.68,1,1.74,1.66,2.77,2.3-1.94,1.48-2.79,4.25-2.02,6.57.33.98.99,1.93,1.98,2.23.87.27,1.83-.02,2.58-.54.75-.52,1.31-1.25,1.87-1.97.7,1.87,2.55,3.25,4.55,3.39.82.06,1.74-.13,2.21-.81ZM106.11,188.83c-1.02-.32-1.83-1.21-2.13-2.24-.29-1.03-.08-2.18.51-3.08.68-1.04,1.91-1.75,3.15-1.69,2.95.15,3.62,3.96,1.96,5.92-.83.99-2.26,1.47-3.5,1.09Z"/>
      <path class="cls-7" d="M109.09,164.48c.62-.41.87-1.23.79-1.97-.08-.74-.42-1.43-.75-2.09.8.4,1.64.81,2.54.84s1.88-.43,2.16-1.28c.18-.55.04-1.18-.24-1.69-.29-.51-.71-.93-1.12-1.34,1.05.05,2.17-.02,3.05-.58.89-.57,1.44-1.78.96-2.72-.35-.71-1.18-1.08-1.97-1.11-.73-.03-1.44.17-2.12.39,1.18-.87,1.94-2.37,1.77-3.85-.18-1.55-1.48-2.94-3.04-3.08-1.55-.13-3.14,1.15-3.18,2.71.06-.74-.39-1.45-.98-1.91-.59-.45-1.31-.7-2.02-.93-1.11-.37-2.39-.72-3.41-.14-1.05.59-1.42,2-1.16,3.18.25,1.18.99,2.19,1.71,3.17-2.36.65-4.18,2.9-4.33,5.33-.06,1.03.2,2.16,1,2.81.71.57,1.71.67,2.59.46.89-.2,1.69-.67,2.47-1.13-.05,2,1.15,3.97,2.95,4.85.74.36,1.66.53,2.35.08ZM104.91,157.5c-.83-.68-1.25-1.81-1.13-2.87.12-1.07.74-2.05,1.63-2.66,1.02-.71,2.42-.91,3.55-.39,2.67,1.24,1.87,5.03-.4,6.23-1.14.6-2.65.52-3.65-.3Z"/>
      <path class="cls-7" d="M107.99,133.73c.66-.34,1-1.13,1-1.88,0-.75-.26-1.46-.52-2.16.76.48,1.54.98,2.43,1.11s1.91-.22,2.29-1.04c.24-.53.17-1.16-.06-1.7-.23-.54-.6-1-.97-1.45,1.04.17,2.16.22,3.1-.25.94-.47,1.62-1.61,1.25-2.6-.28-.74-1.06-1.2-1.84-1.32-.72-.11-1.45.02-2.15.16,1.27-.73,2.19-2.15,2.18-3.64-.01-1.56-1.16-3.09-2.69-3.39-1.53-.3-3.24.81-3.46,2.35.14-.73-.23-1.49-.77-2-.54-.52-1.23-.84-1.91-1.15-1.07-.49-2.3-.97-3.38-.51-1.11.47-1.63,1.83-1.5,3.03.12,1.2.74,2.29,1.35,3.33-2.41.39-4.47,2.42-4.88,4.83-.17,1.02-.04,2.16.69,2.9.64.65,1.62.85,2.53.74.9-.11,1.75-.48,2.58-.85-.26,1.98.71,4.07,2.4,5.14.69.44,1.6.71,2.33.33ZM104.6,126.33c-.75-.77-1.05-1.93-.81-2.98.23-1.05.96-1.96,1.91-2.47,1.1-.6,2.51-.64,3.57,0,2.52,1.53,1.32,5.2-1.07,6.15-1.2.48-2.69.23-3.59-.7Z"/>
      <path class="cls-7" d="M110.74,101.91c.54-.51.65-1.36.44-2.08-.2-.72-.65-1.33-1.1-1.93.86.26,1.75.52,2.64.39s1.78-.74,1.91-1.63c.09-.58-.16-1.17-.53-1.62-.37-.45-.86-.79-1.34-1.13,1.05-.13,2.13-.38,2.91-1.1.78-.71,1.11-2,.49-2.84-.47-.64-1.35-.86-2.13-.76-.72.09-1.39.42-2.02.75,1.02-1.06,1.51-2.67,1.09-4.1-.44-1.5-1.96-2.65-3.52-2.51-1.55.13-2.89,1.67-2.67,3.22-.07-.74-.63-1.36-1.29-1.71-.66-.35-1.41-.46-2.15-.57-1.16-.17-2.48-.3-3.39.44-.94.76-1.06,2.21-.61,3.33.45,1.12,1.35,1.99,2.22,2.83-2.21,1.04-3.63,3.57-3.36,6,.11,1.03.56,2.09,1.46,2.6.79.44,1.8.37,2.63.02.84-.35,1.55-.95,2.24-1.53.29,1.97,1.81,3.71,3.73,4.27.79.23,1.73.24,2.33-.32ZM105.43,95.74c-.93-.53-1.54-1.57-1.61-2.64-.07-1.07.38-2.15,1.15-2.9.89-.88,2.23-1.31,3.44-.99,2.85.77,2.7,4.63.67,6.2-1.02.79-2.52.96-3.65.32Z"/>
      <path class="cls-7" d="M116.47,63.63c-.09-.74-.71-1.33-1.41-1.59-.7-.26-1.46-.26-2.21-.26.72-.54,1.46-1.11,1.88-1.9.43-.79.46-1.87-.18-2.51-.41-.41-1.03-.57-1.62-.54-.58.03-1.15.22-1.7.41.52-.92.95-1.95.84-2.99-.11-1.05-.95-2.08-2-2.08-.79,0-1.49.57-1.88,1.27-.35.64-.49,1.36-.6,2.07-.25-1.45-1.25-2.8-2.65-3.3-1.47-.53-3.3.01-4.11,1.34-.81,1.33-.37,3.32,1.01,4.06-.64-.38-1.47-.3-2.15.03-.67.33-1.21.86-1.74,1.39-.83.83-1.71,1.82-1.65,2.99.06,1.21,1.15,2.16,2.32,2.46,1.17.3,2.4.1,3.59-.11-.47,2.4.72,5.03,2.84,6.26.89.52,2.02.79,2.96.36.83-.37,1.36-1.23,1.57-2.11.21-.88.16-1.81.1-2.71,1.76.93,4.07.74,5.65-.47.65-.5,1.22-1.25,1.12-2.07ZM108.35,64.25c-.98.44-2.17.31-3.08-.27-.9-.58-1.5-1.58-1.66-2.65-.18-1.23.27-2.57,1.24-3.35,2.31-1.84,5.33.57,5.39,3.14.03,1.29-.72,2.6-1.9,3.13Z"/>
      <rect class="cls-7" x="92.28" y="36" width=".61" height="330.09" transform="translate(185.17 402.09) rotate(-180)"/>
      <rect class="cls-7" x="119.12" y="36" width=".61" height="330.09" transform="translate(238.85 402.09) rotate(-180)"/>
      <path class="cls-15" d="M140.36,151.46l-25.47-4.12c-5.89-.95-11.89-.95-17.77,0l-25.47,4.12-11.12-13.84,11.12-13.84,25.47,4.12c5.89.95,11.89.95,17.77,0l25.47-4.12,11.12,13.84-11.12,13.84Z"/>
      <g>
        <circle class="cls-8" cx="74.66" cy="137.62" r="3.11"/>
        <circle class="cls-8" cx="137.35" cy="137.62" r="3.11"/>
      </g>
      <g>
        <polyline class="cls-3" points="139.97 148.04 138.56 149.66 136.43 149.34"/>
        <path class="cls-5" d="M132.39,148.74l-17.96-2.67c-5.58-.83-11.26-.83-16.84,0l-19.98,2.97"/>
        <polyline class="cls-3" points="75.58 149.34 73.45 149.66 72.04 148.04"/>
        <line class="cls-1" x1="69.47" y1="145.1" x2="65.61" y2="140.7"/>
        <polyline class="cls-3" points="64.33 139.23 62.91 137.62 64.33 136"/>
        <line class="cls-1" x1="66.9" y1="133.06" x2="70.75" y2="128.66"/>
        <polyline class="cls-3" points="72.04 127.19 73.45 125.58 75.58 125.89"/>
        <path class="cls-5" d="M79.63,126.49l17.96,2.67c5.58.83,11.26.83,16.84,0l19.98-2.97"/>
        <polyline class="cls-3" points="136.43 125.89 138.56 125.58 139.97 127.19"/>
        <line class="cls-1" x1="142.54" y1="130.13" x2="146.4" y2="134.53"/>
        <polyline class="cls-3" points="147.68 136 149.1 137.62 147.68 139.23"/>
        <line class="cls-1" x1="145.11" y1="142.17" x2="141.26" y2="146.57"/>
      </g>
    </g>
    <g>
      <rect class="cls-13" x="360.92" y="36" width="32.39" height="330.09"/>
      <path class="cls-16" d="M387.19,342.5c-.09-.74-.71-1.33-1.41-1.59s-1.46-.26-2.21-.26c.72-.54,1.46-1.11,1.88-1.9.43-.79.46-1.87-.18-2.51-.41-.41-1.03-.57-1.62-.54s-1.15.22-1.7.41c.52-.92.95-1.95.84-2.99-.11-1.05-.95-2.08-2-2.08-.79,0-1.49.57-1.88,1.27-.35.64-.49,1.36-.6,2.07-.25-1.45-1.25-2.8-2.65-3.3-1.47-.53-3.3.01-4.11,1.34-.81,1.33-.37,3.32,1.01,4.06-.64-.38-1.47-.3-2.15.03-.67.33-1.21.86-1.74,1.39-.83.83-1.71,1.82-1.65,2.99.06,1.21,1.15,2.16,2.32,2.46,1.17.3,2.4.1,3.59-.11-.47,2.4.72,5.03,2.84,6.26.89.52,2.02.79,2.96.36.83-.37,1.36-1.23,1.57-2.11.21-.88.16-1.81.1-2.71,1.76.93,4.07.74,5.65-.47.65-.5,1.22-1.25,1.12-2.07ZM379.07,343.12c-.98.44-2.17.31-3.08-.27-.9-.58-1.5-1.58-1.66-2.65-.18-1.23.27-2.57,1.24-3.35,2.31-1.84,5.33.57,5.39,3.14.03,1.29-.72,2.6-1.9,3.13Z"/>
      <path class="cls-16" d="M385.58,303.68c-.59-.45-1.45-.41-2.12-.1s-1.21.86-1.73,1.4c.11-.89.22-1.82-.05-2.67-.27-.86-1.02-1.63-1.92-1.62-.58,0-1.13.35-1.51.79s-.64.97-.89,1.5c-.3-1.01-.73-2.04-1.56-2.69-.83-.65-2.15-.77-2.88-.01-.55.57-.63,1.47-.4,2.23.21.7.64,1.3,1.07,1.87-1.21-.83-2.88-1.05-4.22-.4-1.4.68-2.29,2.37-1.9,3.88.39,1.51,2.13,2.58,3.61,2.1-.72.19-1.24.85-1.48,1.56-.23.71-.23,1.47-.21,2.22.02,1.17.11,2.49.99,3.27.91.8,2.35.68,3.38.05,1.03-.63,1.74-1.66,2.42-2.66,1.39,2.01,4.11,2.99,6.47,2.33.99-.28,1.97-.9,2.32-1.87.31-.86.07-1.83-.42-2.6-.48-.77-1.19-1.37-1.88-1.96,1.9-.62,3.37-2.4,3.6-4.38.1-.82-.05-1.75-.7-2.24ZM380.37,309.93c-.37,1.01-1.29,1.78-2.34,2.02-1.05.24-2.18-.03-3.05-.65-1.01-.73-1.66-1.99-1.54-3.23.29-2.94,4.12-3.43,6.01-1.68.95.88,1.36,2.33.92,3.54Z"/>
      <path class="cls-16" d="M382.63,269.84c-.72-.18-1.49.19-1.99.74s-.77,1.27-1.04,1.97c-.25-.86-.51-1.76-1.09-2.44-.58-.68-1.58-1.1-2.4-.74-.53.24-.9.76-1.08,1.31s-.21,1.15-.23,1.73c-.67-.81-1.47-1.59-2.49-1.86-1.02-.27-2.28.14-2.66,1.12-.28.74,0,1.6.51,2.21.47.56,1.1.95,1.72,1.3-1.44-.29-3.06.16-4.04,1.29-1.02,1.18-1.18,3.08-.23,4.32.95,1.24,2.97,1.54,4.15.52-.59.46-.81,1.27-.75,2.01.06.74.37,1.44.67,2.12.48,1.07,1.08,2.25,2.19,2.62,1.15.38,2.43-.3,3.13-1.28.7-.98.95-2.21,1.19-3.39,2.07,1.31,4.96,1.14,6.86-.4.8-.65,1.46-1.6,1.4-2.63-.05-.91-.66-1.71-1.4-2.23-.75-.52-1.63-.8-2.5-1.07,1.51-1.31,2.16-3.53,1.6-5.44-.23-.79-.73-1.59-1.53-1.79ZM380.28,277.63c.06,1.07-.49,2.14-1.36,2.77-.87.63-2.02.83-3.06.59-1.22-.28-2.3-1.18-2.68-2.37-.88-2.81,2.45-4.77,4.87-3.9,1.22.44,2.17,1.61,2.24,2.9Z"/>
      <path class="cls-16" d="M376.64,237.26c-.7.26-1.11,1.01-1.2,1.75s.1,1.48.28,2.21c-.7-.57-1.43-1.15-2.3-1.37-.87-.22-1.93,0-2.39.78-.3.5-.3,1.14-.13,1.7s.49,1.06.81,1.55c-1.02-.28-2.12-.46-3.11-.09-.99.36-1.79,1.42-1.53,2.44.19.77.92,1.31,1.68,1.51.7.19,1.44.14,2.16.08-1.34.59-2.41,1.89-2.56,3.37-.16,1.55.81,3.2,2.3,3.66s3.31-.44,3.69-1.96c-.22.71.07,1.5.55,2.08.48.57,1.13.97,1.77,1.35,1.01.6,2.18,1.22,3.3.88,1.16-.35,1.82-1.64,1.83-2.85,0-1.21-.49-2.36-.98-3.46,2.44-.12,4.71-1.92,5.39-4.27.29-.99.28-2.15-.36-2.96-.56-.71-1.52-1.02-2.43-1.02-.91,0-1.79.29-2.66.56.48-1.94-.26-4.12-1.82-5.37-.64-.51-1.51-.88-2.28-.59ZM379.2,244.98c.66.84.83,2.03.48,3.05-.35,1.02-1.17,1.84-2.17,2.25-1.15.47-2.56.36-3.55-.4-2.34-1.79-.74-5.31,1.74-5.99,1.25-.34,2.7.07,3.5,1.09Z"/>
      <path class="cls-16" d="M366.91,215.33c.15.73.82,1.27,1.53,1.47s1.48.15,2.22.08c-.67.6-1.36,1.22-1.73,2.04-.36.82-.31,1.9.38,2.48.45.38,1.07.48,1.65.41.58-.08,1.13-.31,1.66-.54-.44.96-.8,2.02-.6,3.05.2,1.04,1.11,2,2.16,1.91.79-.06,1.44-.69,1.77-1.41.3-.66.38-1.4.43-2.12.36,1.42,1.47,2.69,2.91,3.08,1.51.41,3.29-.27,3.99-1.67.7-1.39.1-3.34-1.33-3.96.67.33,1.49.18,2.14-.2.64-.38,1.14-.96,1.62-1.52.76-.9,1.56-1.95,1.41-3.11-.15-1.2-1.32-2.06-2.51-2.27-1.19-.21-2.4.1-3.57.4.28-2.43-1.12-4.96-3.33-6.01-.93-.44-2.07-.62-2.98-.12-.8.44-1.26,1.33-1.4,2.23-.14.9-.01,1.81.12,2.71-1.83-.79-4.11-.42-5.6.92-.61.55-1.11,1.35-.95,2.15ZM374.95,214.06c.94-.51,2.14-.48,3.09.02.95.51,1.62,1.46,1.86,2.5.28,1.22-.06,2.59-.97,3.44-2.15,2.02-5.36-.14-5.62-2.7-.13-1.29.51-2.65,1.65-3.27Z"/>
      <path class="cls-16" d="M368.63,191.35c.59.45,1.45.42,2.12.1.68-.32,1.21-.86,1.73-1.4-.11.89-.23,1.81.04,2.67.27.86,1.02,1.63,1.92,1.62.58,0,1.13-.34,1.51-.78.39-.44.64-.97.9-1.5.3,1.01.73,2.04,1.55,2.69.83.65,2.15.77,2.88.02.55-.57.63-1.47.4-2.23-.21-.7-.64-1.3-1.07-1.88,1.21.83,2.88,1.06,4.22.41,1.4-.68,2.29-2.37,1.91-3.88-.38-1.51-2.12-2.59-3.61-2.11.72-.19,1.24-.85,1.48-1.55.24-.71.23-1.47.22-2.21-.02-1.17-.11-2.49-.99-3.27-.9-.8-2.35-.69-3.38-.06-1.03.63-1.75,1.65-2.43,2.65-1.38-2.01-4.11-3-6.46-2.34-.99.28-1.97.89-2.32,1.86-.31.85-.07,1.83.41,2.6.48.77,1.18,1.37,1.87,1.97-1.9.61-3.37,2.39-3.61,4.37-.1.81.05,1.75.7,2.25ZM373.86,185.11c.37-1.01,1.3-1.77,2.34-2.01,1.05-.24,2.18.03,3.05.66,1.01.73,1.65,1.99,1.53,3.23-.3,2.93-4.13,3.42-6.01,1.67-.95-.88-1.36-2.33-.91-3.55Z"/>
      <path class="cls-16" d="M377.68,164.83c.69-.27,1.11-1.02,1.19-1.76.08-.74-.11-1.48-.3-2.2.7.56,1.44,1.13,2.31,1.35s1.93-.03,2.38-.8c.3-.5.29-1.14.11-1.7-.17-.56-.5-1.05-.82-1.54,1.02.27,2.12.44,3.11.06.99-.37,1.78-1.44,1.51-2.46-.2-.77-.93-1.3-1.7-1.5-.7-.18-1.44-.13-2.16-.06,1.34-.6,2.4-1.92,2.53-3.4.14-1.55-.84-3.19-2.33-3.64-1.49-.45-3.31.47-3.68,1.99.21-.72-.08-1.5-.56-2.07-.48-.57-1.14-.96-1.78-1.33-1.01-.59-2.19-1.2-3.31-.85-1.15.36-1.8,1.66-1.8,2.87,0,1.21.51,2.35,1.01,3.45-2.44.14-4.69,1.96-5.35,4.32-.28.99-.26,2.15.39,2.95.57.71,1.53,1.01,2.44.99.91-.01,1.79-.3,2.65-.59-.46,1.94.3,4.12,1.87,5.35.65.51,1.52.86,2.28.57ZM375.05,157.12c-.67-.84-.85-2.03-.51-3.05.34-1.02,1.16-1.85,2.15-2.27,1.15-.48,2.56-.39,3.56.36,2.36,1.77.78,5.3-1.69,6.01-1.24.35-2.7-.04-3.51-1.06Z"/>
      <path class="cls-16" d="M384.5,130.73c.33-.67.12-1.5-.33-2.1-.44-.6-1.09-1.01-1.72-1.41.9-.07,1.82-.14,2.61-.58s1.4-1.33,1.2-2.21c-.12-.57-.56-1.03-1.07-1.33-.51-.29-1.08-.44-1.65-.58.93-.49,1.85-1.12,2.33-2.06.47-.94.33-2.26-.56-2.83-.67-.43-1.57-.32-2.26.05-.64.34-1.15.88-1.62,1.42.57-1.35.46-3.03-.45-4.21-.95-1.24-2.78-1.77-4.18-1.09-1.4.68-2.11,2.6-1.35,3.96-.33-.67-1.08-1.05-1.82-1.14-.74-.09-1.49.07-2.21.23-1.15.25-2.42.6-3.01,1.62-.6,1.05-.2,2.44.62,3.33.82.89,1.97,1.38,3.08,1.85-1.7,1.76-2.11,4.63-1,6.8.47.92,1.27,1.75,2.29,1.9.9.13,1.81-.3,2.47-.92.66-.63,1.11-1.44,1.55-2.23.98,1.74,3.02,2.82,5.01,2.66.82-.07,1.7-.4,2.06-1.13ZM377.34,126.86c-1.06-.16-2-.91-2.44-1.89-.44-.98-.41-2.14.04-3.12.52-1.13,1.62-2.02,2.86-2.15,2.93-.3,4.18,3.36,2.84,5.55-.67,1.1-2.01,1.8-3.29,1.6Z"/>
      <path class="cls-16" d="M383,101.02c.45-.6.4-1.45.08-2.12-.32-.67-.87-1.2-1.41-1.72.89.1,1.82.21,2.67-.07s1.62-1.04,1.6-1.93c-.01-.58-.35-1.12-.8-1.51-.44-.38-.98-.63-1.51-.88,1.01-.31,2.03-.75,2.68-1.58.64-.83.75-2.16-.01-2.88-.57-.55-1.48-.62-2.23-.38-.69.22-1.3.65-1.86,1.09.82-1.22,1.03-2.89.36-4.22-.7-1.4-2.39-2.27-3.9-1.87-1.51.4-2.56,2.15-2.08,3.63-.2-.72-.86-1.23-1.57-1.46-.71-.23-1.47-.21-2.22-.2-1.17.03-2.49.13-3.26,1.02-.79.91-.66,2.36-.02,3.38.64,1.03,1.67,1.73,2.67,2.4-2,1.41-2.96,4.14-2.27,6.48.29.99.91,1.96,1.89,2.3.86.3,1.83.05,2.6-.44.77-.49,1.36-1.2,1.95-1.89.63,1.89,2.42,3.35,4.41,3.57.82.09,1.74-.06,2.24-.72ZM376.71,95.86c-1.01-.36-1.79-1.28-2.04-2.32-.25-1.04,0-2.18.63-3.06.72-1.02,1.97-1.67,3.21-1.56,2.94.27,3.46,4.1,1.73,5.99-.87.96-2.32,1.38-3.54.95Z"/>
      <path class="cls-16" d="M387.19,63.63c-.09-.74-.71-1.33-1.41-1.59-.7-.26-1.46-.26-2.21-.26.72-.54,1.46-1.11,1.88-1.9.43-.79.46-1.87-.18-2.51-.41-.41-1.03-.57-1.62-.54-.58.03-1.15.22-1.7.41.52-.92.95-1.95.84-2.99-.11-1.05-.95-2.08-2-2.08-.79,0-1.49.57-1.88,1.27-.35.64-.49,1.36-.6,2.07-.25-1.45-1.25-2.8-2.65-3.3-1.47-.53-3.3.01-4.11,1.34-.81,1.33-.37,3.32,1.01,4.06-.64-.38-1.47-.3-2.15.03-.67.33-1.21.86-1.74,1.39-.83.83-1.71,1.82-1.65,2.99.06,1.21,1.15,2.16,2.32,2.46,1.17.3,2.4.1,3.59-.11-.47,2.4.72,5.03,2.84,6.26.89.52,2.02.79,2.96.36.83-.37,1.36-1.23,1.57-2.11.21-.88.16-1.81.1-2.71,1.76.93,4.07.74,5.65-.47.65-.5,1.22-1.25,1.12-2.07ZM379.07,64.25c-.98.44-2.17.31-3.08-.27-.9-.58-1.5-1.58-1.66-2.65-.18-1.23.27-2.57,1.24-3.35,2.31-1.84,5.33.57,5.39,3.14.03,1.29-.72,2.6-1.9,3.13Z"/>
      <rect class="cls-16" x="363.39" y="36" width=".61" height="330.09" transform="translate(727.39 402.09) rotate(-180)"/>
      <rect class="cls-16" x="390.23" y="36" width=".61" height="330.09" transform="translate(781.07 402.09) rotate(-180)"/>
      <path class="cls-14" d="M411.47,151.46l-25.47-4.12c-5.89-.95-11.89-.95-17.77,0l-25.47,4.12-11.12-13.84,11.12-13.84,25.47,4.12c5.89.95,11.89.95,17.77,0l25.47-4.12,11.12,13.84-11.12,13.84Z"/>
      <g>
        <circle class="cls-15" cx="345.77" cy="137.62" r="3.11"/>
        <circle class="cls-15" cx="408.46" cy="137.62" r="3.11"/>
      </g>
      <g>
        <polyline class="cls-4" points="411.08 148.04 409.67 149.66 407.54 149.34"/>
        <path class="cls-2" d="M403.5,148.74l-17.96-2.67c-5.58-.83-11.26-.83-16.84,0l-19.98,2.97"/>
        <polyline class="cls-4" points="346.69 149.34 344.56 149.66 343.15 148.04"/>
        <line class="cls-6" x1="340.58" y1="145.1" x2="336.72" y2="140.7"/>
        <polyline class="cls-4" points="335.44 139.23 334.02 137.62 335.44 136"/>
        <line class="cls-6" x1="338.01" y1="133.06" x2="341.86" y2="128.66"/>
        <polyline class="cls-4" points="343.15 127.19 344.56 125.58 346.69 125.89"/>
        <path class="cls-2" d="M350.74,126.49l17.96,2.67c5.58.83,11.26.83,16.84,0l19.98-2.97"/>
        <polyline class="cls-4" points="407.54 125.89 409.67 125.58 411.08 127.19"/>
        <line class="cls-6" x1="413.65" y1="130.13" x2="417.51" y2="134.53"/>
        <polyline class="cls-4" points="418.79 136 420.21 137.62 418.79 139.23"/>
        <line class="cls-6" x1="416.22" y1="142.17" x2="412.37" y2="146.57"/>
      </g>
    </g>
    <rect class="cls-9" x="159.43" y="12.8" width="6.88" height="23.14"/>
    <rect class="cls-9" x="316.81" y="12.8" width="6.88" height="23.14"/>
    <path class="cls-14" d="M169.83,0h143.46C319.03,0,323.69,4.66,323.69,10.4v2.41h-164.25v-2.41C159.43,4.66,164.09,0,169.83,0Z"/>
  </g>
</svg>