<?xml version="1.0" encoding="UTF-8"?>
<svg id="Layer_2" data-name="Layer 2" xmlns="http://www.w3.org/2000/svg" viewBox="0 0 700.67 337.33">
  <defs>
    <style>
      .cls-1 {
        fill: #ffa93f;
      }

      .cls-2, .cls-3, .cls-4 {
        fill: #fbab48;
      }

      .cls-5 {
        fill: #fac1b0;
      }

      .cls-6 {
        letter-spacing: 0em;
      }

      .cls-7 {
        letter-spacing: -.02em;
      }

      .cls-3 {
        font-size: 37.19px;
      }

      .cls-3, .cls-4 {
        font-family: GelatoLuxe, 'Gelato Luxe';
      }

      .cls-8 {
        fill: #8fbdde;
      }

      .cls-9 {
        fill: #d8e9a2;
      }

      .cls-10 {
        fill: #2d1410;
      }

      .cls-11 {
        letter-spacing: 0em;
      }

      .cls-4 {
        font-size: 46.15px;
      }

      .cls-12 {
        fill: #fffef9;
      }

      .cls-13 {
        letter-spacing: 0em;
      }
    </style>
  </defs>
  <g id="Layer_2-2" data-name="Layer 2">
    <path class="cls-12" d="M560.67,0H0v337.33h560.67l140-73.56V73.56L560.67,0ZM653.89,188.22c-10.8,0-19.56-8.76-19.56-19.56s8.76-19.56,19.56-19.56,19.56,8.76,19.56,19.56-8.76,19.56-19.56,19.56Z"/>
    <g>
      <text class="cls-3" transform="translate(462.84 278.35) rotate(-18)"><tspan class="cls-6" x="0" y="0">4</tspan><tspan class="cls-13" x="20.04" y="0" xml:space="preserve">2  </tspan><tspan class="cls-7" x="56.37" y="0">P</tspan><tspan x="89.32" y="0">orto</tspan></text>
      <text class="cls-4" transform="translate(500.13 303.76) rotate(-18)"><tspan x="0" y="0">20</tspan><tspan class="cls-11" x="51.13" y="0">2</tspan><tspan x="75.27" y="0">6</tspan></text>
    </g>
    <g>
      <g>
        <g>
          <g>
            <path class="cls-8" d="M132.8,105.42c3.91-.83,7.82-1.62,11.73-2.38-2.74,2.83-5.44,5.68-8.11,8.54,1.94,3.33,3.86,6.67,5.77,10.01-3.53-1.59-7.09-3.15-10.68-4.69-2.63,2.88-5.22,5.78-7.79,8.69.35-3.83.72-7.67,1.11-11.5-3.62-1.5-7.27-2.97-10.94-4.41,3.89-.93,7.78-1.83,11.68-2.7.41-3.84.84-7.67,1.29-11.51,2,3.31,3.98,6.62,5.94,9.94Z"/>
            <path class="cls-1" d="M208.03,93.67c3.95-.4,7.91-.77,11.87-1.11-3.01,2.52-5.99,5.07-8.94,7.63,1.57,3.52,3.12,7.04,4.65,10.57-3.33-1.96-6.69-3.89-10.08-5.8-2.91,2.58-5.78,5.19-8.63,7.81.75-3.77,1.52-7.55,2.31-11.32-3.42-1.88-6.88-3.73-10.36-5.56,3.95-.51,7.89-.99,11.85-1.43.81-3.77,1.65-7.54,2.5-11.31,1.63,3.5,3.24,7.01,4.83,10.52Z"/>
            <path class="cls-9" d="M283.88,90.01c3.97.02,7.94.07,11.91.16-3.26,2.19-6.49,4.4-9.69,6.63,1.18,3.67,2.35,7.34,3.5,11.01-3.1-2.3-6.23-4.58-9.4-6.84-3.16,2.26-6.29,4.54-9.4,6.84,1.15-3.67,2.31-7.34,3.5-11.01-3.2-2.23-6.43-4.44-9.69-6.63,3.97-.09,7.94-.14,11.91-.16,1.21-3.66,2.43-7.32,3.68-10.98,1.25,3.66,2.47,7.32,3.68,10.98Z"/>
            <path class="cls-5" d="M359.7,94.45c3.95.44,7.9.92,11.85,1.43-3.48,1.83-6.93,3.68-10.36,5.56.79,3.77,1.56,7.54,2.31,11.32-2.84-2.62-5.72-5.22-8.63-7.81-3.39,1.91-6.75,3.84-10.08,5.8,1.53-3.53,3.08-7.05,4.65-10.57-2.95-2.56-5.93-5.1-8.94-7.63,3.96.34,7.92.71,11.87,1.11,1.59-3.51,3.2-7.02,4.83-10.52.85,3.77,1.68,7.54,2.5,11.31Z"/>
            <path class="cls-8" d="M434.84,106.99c3.9.87,7.79,1.77,11.68,2.7-3.67,1.44-7.32,2.91-10.94,4.41.39,3.84.76,7.67,1.11,11.5-2.56-2.91-5.16-5.81-7.79-8.69-3.59,1.53-7.15,3.1-10.68,4.69,1.9-3.34,3.83-6.68,5.77-10.01-2.67-2.86-5.37-5.71-8.11-8.54,3.92.76,7.83,1.55,11.73,2.38,1.96-3.32,3.94-6.64,5.94-9.94.45,3.84.88,7.68,1.29,11.51Z"/>
          </g>
          <g>
            <path class="cls-9" d="M134.2,225.28c3.87.82,7.74,1.6,11.62,2.36-3.57,1.61-7.16,3.19-10.78,4.75.46,3.83.94,7.66,1.44,11.49-2.76-2.87-5.49-5.75-8.19-8.64-3.65,1.52-7.33,3.01-11.04,4.47,2.05-3.28,4.07-6.57,6.08-9.86-2.65-2.92-5.28-5.85-7.86-8.79,3.85.92,7.71,1.82,11.57,2.67,1.99-3.3,3.96-6.61,5.91-9.93.4,3.83.82,7.66,1.26,11.49Z"/>
            <path class="cls-2" d="M208.72,236.92c3.92.4,7.84.76,11.76,1.1-3.36,1.98-6.76,3.94-10.18,5.87.86,3.76,1.75,7.52,2.65,11.27-3.04-2.55-6.05-5.13-9.03-7.72-3.46,1.9-6.94,3.78-10.46,5.63,1.68-3.48,3.34-6.97,4.98-10.46-2.94-2.61-5.84-5.25-8.71-7.9,3.91.51,7.82.98,11.73,1.42,1.62-3.5,3.22-7,4.8-10.51.8,3.76,1.62,7.52,2.46,11.29Z"/>
            <path class="cls-8" d="M283.85,240.54c3.93-.02,7.86-.07,11.8-.16-3.13,2.33-6.29,4.64-9.49,6.92,1.26,3.65,2.53,7.29,3.83,10.93-3.29-2.22-6.55-4.45-9.78-6.71-3.23,2.26-6.49,4.5-9.78,6.71,1.3-3.64,2.57-7.28,3.83-10.93-3.19-2.29-6.35-4.59-9.49-6.92,3.93.09,7.86.14,11.8.16,1.23-3.65,2.45-7.3,3.65-10.96,1.2,3.66,2.41,7.31,3.65,10.96Z"/>
            <path class="cls-9" d="M358.94,236.14c3.91-.44,7.82-.91,11.73-1.42-2.87,2.65-5.78,5.28-8.71,7.9,1.64,3.49,3.3,6.98,4.98,10.46-3.51-1.85-7-3.73-10.46-5.63-2.98,2.59-5.98,5.16-9.03,7.72.9-3.76,1.78-7.51,2.65-11.27-3.42-1.93-6.81-3.89-10.18-5.87,3.92-.33,7.84-.7,11.76-1.1.84-3.76,1.66-7.52,2.46-11.29,1.58,3.51,3.18,7.01,4.8,10.51Z"/>
            <path class="cls-5" d="M433.37,223.73c3.86-.86,7.72-1.75,11.57-2.67-2.59,2.95-5.21,5.88-7.86,8.79,2.01,3.29,4.04,6.58,6.08,9.86-3.71-1.46-7.39-2.95-11.04-4.47-2.7,2.9-5.43,5.78-8.19,8.64.5-3.83.98-7.66,1.44-11.49-3.62-1.55-7.22-3.14-10.78-4.75,3.88-.75,7.75-1.54,11.62-2.36.44-3.83.86-7.66,1.26-11.49,1.95,3.32,3.92,6.63,5.91,9.93Z"/>
          </g>
        </g>
        <polygon class="cls-9" points="102.92 168.45 114.45 168.45 105.12 175.23 108.69 186.2 99.36 179.42 90.03 186.2 93.59 175.23 84.26 168.45 95.79 168.45 99.36 157.48 102.92 168.45"/>
        <polygon class="cls-5" points="464.87 168.45 476.41 168.45 467.08 175.23 470.64 186.2 461.31 179.42 451.98 186.2 455.54 175.23 446.21 168.45 457.75 168.45 461.31 157.48 464.87 168.45"/>
      </g>
      <g>
        <g>
          <path class="cls-10" d="M216.26,129.85c3.23-.77,6.47-1.49,9.71-2.15,1.55,7.62,3.09,15.25,4.64,22.87,4.36-.88,8.74-1.65,13.14-2.31.36,2.43.73,4.87,1.09,7.3-7.18,1.07-14.32,2.46-21.4,4.16-2.39-9.96-4.78-19.92-7.17-29.87Z"/>
          <path class="cls-10" d="M243.68,124.7c3.27-.45,6.55-.84,9.84-1.17,1.03,10.19,2.05,20.38,3.08,30.57-2.92.29-5.84.64-8.76,1.04-1.39-10.15-2.77-20.29-4.16-30.44Z"/>
          <path class="cls-10" d="M258.98,123.04c4.45-.36,8.91-.61,13.38-.76,3.65-.12,6.74.36,9.17,1.8,2.43,1.44,3.81,3.68,3.77,6.48-.04,2.63-1.5,5.06-4.41,6.13,0,.03,0,.06,0,.08,3.74,1.1,5.44,3.91,5.38,7.09-.06,2.93-1.41,5.23-3.62,6.75-2.21,1.52-5.18,2.26-8.64,2.36-4.19.13-8.37.36-12.55.7-.83-10.21-1.65-20.41-2.48-30.62ZM272.43,134.59c2.29-.08,3.56-1.07,3.52-2.86-.02-.89-.4-1.56-1.07-1.97-.66-.41-1.7-.64-3.2-.58-.87.03-1.75.07-2.62.11.08,1.81.17,3.62.25,5.43,1.04-.05,2.08-.09,3.12-.12ZM276.28,145.31c.69-.52.99-1.29.98-2.14-.03-1.86-1.39-2.91-3.77-2.84-1.3.04-2.6.09-3.9.15.09,1.92.18,3.84.26,5.76,1.05-.05,2.11-.09,3.16-.13,1.62-.05,2.58-.29,3.28-.81Z"/>
          <path class="cls-10" d="M290.21,122.26c7.76.24,15.51.8,23.23,1.69-.28,2.45-.56,4.89-.84,7.34-4.33-.5-8.66-.89-13-1.18-.1,1.54-.2,3.08-.31,4.61,3.64.24,7.27.56,10.9.95-.25,2.31-.5,4.61-.74,6.92-3.53-.38-7.08-.69-10.62-.92-.26,3.91-.52,7.82-.78,11.73-2.93-.19-5.86-.34-8.79-.43.32-10.24.63-20.47.95-30.71Z"/>
          <path class="cls-10" d="M325.03,133.01c-3.55-.57-7.11-1.08-10.67-1.51.3-2.44.59-4.89.89-7.33,10.6,1.29,21.14,3.18,31.58,5.69-.57,2.39-1.15,4.79-1.72,7.18-3.51-.84-7.03-1.61-10.56-2.31-1.51,7.63-3.03,15.26-4.54,22.89-2.89-.57-5.79-1.1-8.7-1.57,1.24-7.68,2.49-15.36,3.73-23.04Z"/>
        </g>
        <g>
          <path class="cls-10" d="M160.14,206.65c-10.71-2.23-16.28-10.61-14.14-19.3,2.19-8.91,10.87-13.71,20.71-11.67,3.11.65,5.97,1.9,8.1,3.56-.52,2.74-1.05,5.47-1.57,8.21-2.06-1.82-4.87-3.5-7.85-4.12-5.19-1.08-9.45,1.39-10.48,5.95-.99,4.38,1.63,8.69,7.43,9.89,3.07.63,6.4.21,9.27-.84-.52,2.72-1.04,5.45-1.56,8.17-2.97.86-6.67.82-9.91.15Z"/>
          <path class="cls-10" d="M175.01,193.45c1.69-8.8,9.94-14.21,19.26-12.76,9.36,1.46,15.51,9.12,14.44,18.01-1.07,8.88-9.33,14.82-19.31,13.27-9.93-1.55-16.07-9.73-14.39-18.51ZM199.72,197.49c.63-4.54-2.01-8.46-6.64-9.18-4.63-.72-8.34,2.21-9.12,6.73-.78,4.51,1.85,8.55,6.63,9.29,4.78.74,8.5-2.3,9.13-6.84Z"/>
          <path class="cls-10" d="M214.41,183.91c2.81.33,5.62.64,8.43.93,2.27,3.99,4.6,7.96,6.98,11.92,3.03-3.48,6-6.98,8.93-10.51,2.79.21,5.58.39,8.37.56-.61,10.22-1.22,20.45-1.82,30.67-3.09-.18-6.19-.39-9.28-.63.25-3.33.5-6.66.75-9.99.18-2.41.43-5.12.63-7.23-.03,0-.06,0-.09,0-1.46,1.85-3.07,3.76-4.64,5.55-1.41,1.62-2.83,3.23-4.25,4.83-1.14-1.83-2.26-3.67-3.38-5.51-1.27-2.08-2.47-4.21-3.58-6.28-.03,0-.06,0-.09,0-.17,2.11-.41,4.82-.66,7.23-.34,3.32-.69,6.64-1.03,9.96-2.97-.31-5.93-.63-8.89-.99,1.21-10.17,2.41-20.34,3.62-30.51Z"/>
          <path class="cls-10" d="M251.99,187.09c3.99.2,7.98.36,11.97.48,3.59.11,6.48.84,8.86,2.65,2.38,1.81,3.88,4.54,3.86,8.1-.02,3.56-1.57,6.27-4.07,8.02-2.5,1.75-5.54,2.41-9.26,2.31-1.09-.03-2.19-.07-3.28-.11-.11,3.21-.22,6.42-.34,9.63-3.1-.11-6.19-.24-9.29-.4.52-10.23,1.04-20.46,1.56-30.68ZM262.79,201.8c1.75.05,2.73-.18,3.57-.75.85-.57,1.31-1.58,1.33-2.77.03-1.19-.39-2.22-1.2-2.83-.81-.61-1.75-.89-3.49-.95-.82-.03-1.64-.05-2.47-.08-.09,2.43-.17,4.86-.26,7.29.83.03,1.67.06,2.5.08Z"/>
          <path class="cls-10" d="M280.16,187.81c2.94,0,5.87-.02,8.81-.07.12,7.78.24,15.56.36,23.34,4.48-.07,8.97-.19,13.45-.36.09,2.46.19,4.92.28,7.38-7.63.29-15.27.44-22.91.43,0-10.24,0-20.48.01-30.72Z"/>
          <path class="cls-10" d="M304.92,187.28c6.72-.29,13.44-.71,20.16-1.25.2,2.45.39,4.91.59,7.36-3.86.31-7.73.58-11.59.81.09,1.44.17,2.88.26,4.32,3.3-.2,6.6-.42,9.89-.67.18,2.31.36,4.63.53,6.94-3.34.26-6.67.48-10.01.68.09,1.55.18,3.11.28,4.66,4.15-.25,8.3-.54,12.45-.87.2,2.45.4,4.91.6,7.36-7.26.59-14.53,1.04-21.8,1.36-.45-10.23-.9-20.46-1.34-30.69Z"/>
          <path class="cls-10" d="M338.06,192.26c-3.31.34-6.62.65-9.93.93-.21-2.45-.41-4.91-.62-7.36,9.47-.8,18.92-1.84,28.35-3.12.33,2.44.66,4.88.99,7.32-3.3.45-6.6.87-9.91,1.26.91,7.73,1.82,15.45,2.74,23.18-3.08.36-6.17.7-9.25,1.02-.79-7.74-1.58-15.48-2.37-23.22Z"/>
          <path class="cls-10" d="M358.54,182.34c6.68-.94,13.35-2,20-3.19.43,2.42.86,4.85,1.29,7.27-3.83.68-7.66,1.32-11.49,1.92.22,1.43.45,2.85.67,4.28,3.27-.51,6.54-1.06,9.81-1.63.4,2.29.8,4.57,1.2,6.86-3.31.58-6.62,1.13-9.93,1.65.24,1.54.48,3.07.72,4.61,4.12-.65,8.23-1.34,12.34-2.07.43,2.42.87,4.85,1.3,7.27-7.19,1.29-14.4,2.44-21.63,3.46-1.43-10.14-2.86-20.28-4.28-30.42Z"/>
          <path class="cls-10" d="M382.93,178.35c4-.74,7.99-1.53,11.97-2.36,5.05-1.05,9.46-.4,12.93,1.67,3.46,2.07,5.92,5.32,6.95,9.61.97,4.04.44,8.1-1.86,11.56-2.3,3.45-6.14,6.06-11.69,7.23-4.22.88-8.44,1.71-12.67,2.5-1.87-10.07-3.75-20.14-5.62-30.2ZM404.89,195.46c1.18-1.69,1.51-3.9,1.01-6.13-.5-2.24-1.73-4.09-3.48-5.14-1.75-1.05-3.79-1.43-6.1-.95-1.08.23-2.16.45-3.24.67,1.06,5.21,2.11,10.43,3.17,15.64,1.11-.23,2.22-.45,3.33-.69,2.37-.49,4.13-1.7,5.31-3.39Z"/>
        </g>
      </g>
    </g>
  </g>
</svg>